<?xml version="1.0" encoding="UTF-8"?>
<svg version="1.1" xmlns="http://www.w3.org/2000/svg" width="469" height="469">
<path d="M0 0 C9.30698145 8.57462881 18.14970455 17.53700643 25.78710938 27.64648438 C26.26325684 28.26797363 26.7394043 28.88946289 27.22998047 29.52978516 C65.33867498 79.52298384 81.95478485 141.64364996 74.26782227 204.03417969 C69.11553284 241.2992736 55.5633728 276.91260905 33.78710938 307.64648438 C33.36623047 308.24396484 32.94535156 308.84144531 32.51171875 309.45703125 C24.77300312 320.36208832 16.1129154 330.08155512 6.78710938 339.64648438 C5.94019531 340.53335937 5.09328125 341.42023438 4.22070312 342.33398438 C-9.50623046 356.4783739 -26.10124254 367.98069225 -43.21289062 377.64648438 C-43.85387695 378.01483398 -44.49486328 378.38318359 -45.15527344 378.76269531 C-97.04894564 408.39786324 -160.72896569 415.36265927 -218.24414062 400.30664062 C-245.17995249 392.94273722 -270.38418847 381.82994324 -293.21289062 365.64648438 C-293.81568848 365.22028809 -294.41848633 364.7940918 -295.03955078 364.35498047 C-305.53534178 356.8768283 -314.98919421 348.63248482 -324.21289062 339.64648438 C-325.15132813 338.74800781 -326.08976562 337.84953125 -327.05664062 336.92382812 C-332.93108287 331.20349934 -338.23048533 325.15465664 -343.21289062 318.64648438 C-343.69628906 318.01774414 -344.1796875 317.38900391 -344.67773438 316.74121094 C-382.7703438 266.75059819 -399.37902391 204.63680177 -391.69360352 142.25878906 C-383.43774503 82.54643283 -352.76214978 27.04333414 -305.21289062 -10.35351562 C-304.23835938 -11.145 -303.26382813 -11.93648437 -302.25976562 -12.75195312 C-293.40883986 -19.80155983 -284.00599448 -25.70096399 -274.21289062 -31.35351562 C-273.52211426 -31.7545752 -272.83133789 -32.15563477 -272.11962891 -32.56884766 C-187.24818073 -81.26826037 -78.70363727 -66.70892128 0 0 Z M-357.21289062 94.64648438 C-356.5640879 103.11385996 -354.53924716 111.19390647 -352.52148438 119.41601562 C-352.13975384 120.98998639 -351.75857799 122.56409177 -351.37791443 124.13832092 C-350.56459508 127.49780226 -349.74807327 130.85648134 -348.92889404 134.21453857 C-346.98407186 142.18764151 -345.05443437 150.16442266 -343.12486267 158.14122772 C-342.6848309 159.9600893 -342.24459326 161.77890107 -341.80415344 163.59766388 C-338.62980902 176.70808924 -335.503599 189.82901614 -332.42773438 202.96289062 C-332.14760781 204.15838878 -332.14760781 204.15838878 -331.86182213 205.37803841 C-330.07838805 212.99108384 -328.30021603 220.60533614 -326.53020954 228.2215147 C-325.88690532 230.98663064 -325.2408765 233.75110517 -324.59422493 236.51543999 C-324.1535753 238.40403864 -323.71692622 240.2935693 -323.28038025 242.18312073 C-323.02076004 243.29235397 -322.76113983 244.40158722 -322.49365234 245.54443359 C-322.26894257 246.5119455 -322.04423279 247.4794574 -321.81271362 248.47628784 C-321.41544825 250.60831941 -321.41544825 250.60831941 -320.21289062 251.64648438 C-318.76999276 251.73944253 -317.32259278 251.7639495 -315.87670898 251.76000977 C-314.95582993 251.75993423 -314.03495087 251.7598587 -313.08616638 251.75978088 C-311.58461754 251.75203896 -311.58461754 251.75203896 -310.05273438 251.74414062 C-309.03313126 251.74272568 -308.01352814 251.74131073 -306.96302795 251.73985291 C-303.69211955 251.73423534 -300.42127849 251.72167988 -297.15039062 251.70898438 C-294.93880307 251.70397164 -292.72721444 251.69940834 -290.515625 251.6953125 C-285.0813563 251.68426021 -279.6471304 251.66710873 -274.21289062 251.64648438 C-271.96202029 245.28200333 -270.21346006 238.90089552 -268.70092773 232.32495117 C-268.46961655 231.33519791 -268.23830536 230.34544464 -267.99998474 229.32569885 C-267.50216868 227.19329715 -267.00627464 225.06044599 -266.51212883 222.92719078 C-265.7299465 219.55130079 -264.94229709 216.17672757 -264.1532135 212.80244446 C-262.19631302 204.42967405 -260.24796527 196.05491952 -258.30084229 187.67987061 C-256.65115271 180.5848874 -254.99751683 173.49084891 -253.33819771 166.39811134 C-252.56204726 163.07309934 -251.79181491 159.74675117 -251.02171326 156.42033386 C-250.54660221 154.38716577 -250.07119998 152.3540657 -249.59545898 150.32104492 C-249.38294495 149.3957901 -249.17043091 148.47053528 -248.95147705 147.51724243 C-248.65094673 146.24113853 -248.65094673 146.24113853 -248.34434509 144.93925476 C-248.17310088 144.20244823 -248.00185667 143.46564169 -247.82542324 142.70650768 C-247.17806791 140.52937125 -246.28513915 138.6445975 -245.21289062 136.64648438 C-245.07466165 137.22701254 -244.93643267 137.8075407 -244.79401493 138.40566063 C-241.43337671 152.51877242 -238.07001773 166.63123372 -234.70361423 180.74297142 C-233.07572617 187.56726099 -231.44876612 194.39176933 -229.82397461 201.21679688 C-228.25711785 207.79845478 -226.68769664 214.37949621 -225.11668205 220.96016312 C-224.51655336 223.47586265 -223.91729673 225.99177039 -223.3189106 228.50788498 C-222.48319811 232.02126756 -221.64443907 235.5339093 -220.80493164 239.04638672 C-220.55605698 240.09582962 -220.30718231 241.14527252 -220.05076599 242.22651672 C-219.82220917 243.18006546 -219.59365234 244.1336142 -219.35816956 245.11605835 C-219.15998406 245.94751562 -218.96179857 246.77897289 -218.75760746 247.63562584 C-218.27073094 249.69563341 -218.27073094 249.69563341 -217.21289062 251.64648438 C-202.03289062 251.64648438 -186.85289062 251.64648438 -171.21289062 251.64648438 C-168.71249468 244.19167265 -168.71249468 244.19167265 -166.69543457 236.67840576 C-166.43480728 235.58256668 -166.17417999 234.4867276 -165.90565491 233.35768127 C-165.63128098 232.18551559 -165.35690704 231.01334991 -165.07421875 229.80566406 C-164.77623886 228.54751389 -164.47825897 227.28936371 -164.17124939 225.99308777 C-163.35969597 222.56603763 -162.55321582 219.1378121 -161.74770164 215.70933819 C-160.89923631 212.10193763 -160.04609051 208.49564417 -159.19348145 204.88922119 C-157.57884678 198.05634493 -155.96846934 191.22247269 -154.35959864 184.38823724 C-152.53926074 176.65675464 -150.71382789 168.92647787 -148.88811207 161.19626379 C-146.03931313 149.13324416 -143.1931371 137.0696063 -140.3515625 125.00488281 C-140.07718857 123.84081406 -139.80281464 122.6767453 -139.52012634 121.47740173 C-139.00386427 119.28437265 -138.48918914 117.09096922 -137.9763031 114.89714813 C-137.44140245 112.61950371 -136.89916091 110.34357662 -136.35145569 108.06897736 C-135.93826332 106.33281788 -135.93826332 106.33281788 -135.51672363 104.56158447 C-135.26660774 103.5219669 -135.01649185 102.48234932 -134.75879669 101.41122818 C-134.0837489 98.46213279 -134.0837489 98.46213279 -134.21289062 94.64648438 C-146.75289062 94.64648438 -159.29289063 94.64648438 -172.21289062 94.64648438 C-175.55683731 107.15674206 -175.55683731 107.15674206 -178.68652344 119.71533203 C-179.00926743 121.05256317 -179.00926743 121.05256317 -179.33853149 122.41680908 C-180.03310863 125.29755851 -180.72483593 128.17898054 -181.41601562 131.06054688 C-181.90354132 133.08979356 -182.39106985 135.11903956 -182.87860107 137.14828491 C-183.89189809 141.36852352 -184.90344919 145.58917658 -185.9140625 149.81005859 C-187.2090665 155.2170024 -188.51114461 160.62221714 -189.81480789 166.02707863 C-190.82058119 170.20228176 -191.82130884 174.37868225 -192.82064056 178.55543137 C-193.29881238 180.55017219 -193.77886321 182.54446357 -194.26084137 184.53828812 C-194.9315101 187.31480609 -195.59504196 190.09293743 -196.25683594 192.87158203 C-196.45626801 193.69030792 -196.65570007 194.50903381 -196.86117554 195.35256958 C-197.76865021 199.19487656 -198.46225467 202.66581013 -198.21289062 206.64648438 C-198.87289062 206.64648438 -199.53289062 206.64648438 -200.21289062 206.64648438 C-200.33043701 205.37312729 -200.4479834 204.0997702 -200.5690918 202.78782654 C-201.15529016 197.54489483 -202.27786349 192.50815672 -203.51367188 187.38500977 C-203.86261002 185.91019135 -203.86261002 185.91019135 -204.21859741 184.40557861 C-204.98229252 181.1838293 -205.75367607 177.96397757 -206.52539062 174.74414062 C-207.06005128 172.49744511 -207.59430625 170.25065302 -208.12817383 168.00376892 C-209.24455981 163.31022514 -210.36452668 158.61755583 -211.48730469 153.92553711 C-212.92862563 147.90188988 -214.36297783 141.87661062 -215.79493713 135.85073185 C-216.89610036 131.21872281 -217.99988544 126.58734196 -219.10458374 121.95617485 C-219.63464814 119.73347097 -220.1641292 117.5106279 -220.69302368 115.28764534 C-221.43019994 112.1918874 -222.17065304 109.09693248 -222.91210938 106.00219727 C-223.13136078 105.07910263 -223.35061218 104.156008 -223.57650757 103.2049408 C-223.77837677 102.36536835 -223.98024597 101.5257959 -224.18823242 100.66078186 C-224.36299606 99.92950608 -224.5377597 99.1982303 -224.71781921 98.44479465 C-225.1727835 96.56522302 -225.1727835 96.56522302 -226.21289062 94.64648438 C-239.08289063 94.64648438 -251.95289063 94.64648438 -265.21289062 94.64648438 C-269.58290901 111.9163165 -273.85749027 129.19514611 -277.89648438 146.54492188 C-278.09143116 147.3821302 -278.28637794 148.21933853 -278.48723221 149.08191681 C-279.87852424 155.06094525 -281.26490433 161.04110839 -282.65039062 167.02148438 C-284.06111489 173.10983654 -285.47359606 179.19777163 -286.89024544 185.28474808 C-287.44904159 187.68963123 -288.0048009 190.09520273 -288.56040955 192.50082397 C-288.89811726 193.95354581 -289.23596422 195.40623528 -289.57397461 196.85888672 C-289.86739243 198.12582367 -290.16081024 199.39276062 -290.46311951 200.6980896 C-291.21289062 203.64648438 -291.21289062 203.64648438 -292.21289062 205.64648438 C-295.16037315 193.22388505 -298.10742429 180.80118347 -301.05393696 168.37835407 C-302.42238647 162.60887593 -303.79098007 156.83943204 -305.15991211 151.07006836 C-306.4829798 145.49397569 -307.80565704 139.91779053 -309.12807274 134.3415432 C-309.63064081 132.22265568 -310.13334546 130.10380055 -310.63619423 127.98497963 C-311.34482884 124.99894463 -312.05293431 122.01278452 -312.76098633 119.02661133 C-312.97953435 118.10649922 -313.19808237 117.18638712 -313.42325306 116.23839283 C-314.35791922 112.29558265 -315.2853378 108.35189531 -316.17440796 104.39852905 C-316.44129425 103.21215851 -316.70818054 102.02578796 -316.9831543 100.8034668 C-317.20194748 99.81142746 -317.42074066 98.81938812 -317.64616394 97.79728699 C-318.010821 95.68068788 -318.010821 95.68068788 -319.21289062 94.64648438 C-322.02452442 94.55786445 -324.81147318 94.53126082 -327.62304688 94.54882812 C-328.88609901 94.55095055 -328.88609901 94.55095055 -330.17466736 94.55311584 C-332.87494397 94.55873174 -335.5751389 94.57128689 -338.27539062 94.58398438 C-340.10156131 94.58899733 -341.92773328 94.59356059 -343.75390625 94.59765625 C-348.24026605 94.60870633 -352.72656447 94.62598158 -357.21289062 94.64648438 Z M-120.21289062 94.64648438 C-116.43692532 101.79658317 -112.07134182 108.36340795 -107.40039062 114.95898438 C-102.5946553 121.77898963 -97.86117007 128.63289899 -93.25073242 135.58666992 C-88.9940208 141.97811197 -84.64054636 148.30467362 -80.3046875 154.64257812 C-76.48537906 160.24239375 -72.75264416 165.8655851 -69.21289062 171.64648438 C-70.37565104 173.36002604 -71.53841146 175.07356771 -72.70117188 176.78710938 C-73.07112778 177.33231232 -73.44108368 177.87751526 -73.82225037 178.4392395 C-75.91953884 181.53000039 -78.01686638 184.62073476 -80.11425781 187.71142578 C-84.06472706 193.53286787 -88.01508621 199.35438397 -91.96386719 205.17697144 C-93.17159362 206.95774244 -94.37949018 208.73839795 -95.58740234 210.51904297 C-97.16655407 212.84701904 -98.74490299 215.17553664 -100.32275391 217.50439453 C-104.1095691 223.09109255 -107.9099659 228.66758737 -111.74023438 234.22460938 C-112.44374023 235.2476416 -113.14724609 236.27067383 -113.87207031 237.32470703 C-115.19299563 239.24376921 -116.51768007 241.16025108 -117.84667969 243.07373047 C-118.71437988 244.33564209 -118.71437988 244.33564209 -119.59960938 245.62304688 C-120.10709717 246.35604004 -120.61458496 247.0890332 -121.13745117 247.84423828 C-122.38369873 249.58294044 -122.38369873 249.58294044 -122.21289062 251.64648438 C-99.52419932 255.73682343 -99.52419932 255.73682343 -78.07855225 250.27050781 C-69.51311861 242.81202277 -64.33705664 231.84946662 -59.35302734 221.8359375 C-56.64702971 216.42607283 -53.34401798 211.48482468 -49.90039062 206.52148438 C-49.43133301 205.79590332 -48.96227539 205.07032227 -48.47900391 204.32275391 C-47.4444094 202.72756947 -46.3375433 201.17950608 -45.21289062 199.64648438 C-44.55289063 199.64648438 -43.89289063 199.64648438 -43.21289062 199.64648438 C-41.72460938 201.60351562 -41.72460938 201.60351562 -39.90039062 204.45898438 C-38.82917969 206.10640625 -38.82917969 206.10640625 -37.73632812 207.78710938 C-37.13643066 208.71040039 -37.13643066 208.71040039 -36.52441406 209.65234375 C-34.07710915 213.37341346 -31.54674334 217.03787076 -29.02539062 220.70898438 C-27.91068413 222.33389989 -26.79610302 223.95890143 -25.68164062 225.58398438 C-25.11574219 226.40898437 -24.54984375 227.23398437 -23.96679688 228.08398438 C-22.15824073 230.72632922 -20.35663694 233.37330217 -18.55664062 236.02148438 C-17.96520264 236.89023193 -17.37376465 237.75897949 -16.7644043 238.65405273 C-15.6248852 240.32821633 -14.48696714 242.00347105 -13.35083008 243.67993164 C-12.83738037 244.43330811 -12.32393066 245.18668457 -11.79492188 245.96289062 C-11.3435083 246.62748291 -10.89209473 247.2920752 -10.42700195 247.97680664 C-9.17894961 249.78445197 -9.17894961 249.78445197 -7.21289062 251.64648438 C-4.12764124 251.82201857 -1.13324861 251.87771234 1.95117188 251.84179688 C2.85837982 251.83896698 3.76558777 251.83613708 4.70028687 251.83322144 C7.6043606 251.8220059 10.50812849 251.796899 13.41210938 251.77148438 C15.37825076 251.76145634 17.34439697 251.75233019 19.31054688 251.74414062 C24.13618596 251.7220621 28.96159578 251.68752302 33.78710938 251.64648438 C32.35647711 247.64345209 30.43409164 244.41334563 28.03320312 240.91210938 C27.66056335 240.36573318 27.28792358 239.81935699 26.9039917 239.25642395 C25.68192539 237.46672682 24.45325415 235.68167014 23.22460938 233.89648438 C22.36580054 232.64087984 21.50749023 231.3849342 20.6496582 230.12866211 C18.88986089 227.55275903 17.12765048 224.97853535 15.36328125 222.40576172 C9.48520766 213.8324285 3.64942326 205.23033037 -2.18310547 196.62597656 C-4.24830592 193.59449878 -6.33289671 190.57703023 -8.41992188 187.56054688 C-9.72625499 185.65192779 -11.0322601 183.74308415 -12.33789062 181.83398438 C-12.94866455 180.96201416 -13.55943848 180.09004395 -14.1887207 179.19165039 C-14.7355249 178.38655029 -15.2823291 177.5814502 -15.84570312 176.75195312 C-16.3292627 176.05223389 -16.81282227 175.35251465 -17.31103516 174.6315918 C-18.21289062 172.64648438 -18.21289062 172.64648438 -18.05273438 170.6940918 C-17.01200448 168.1567076 -15.67726731 166.05463097 -14.14257812 163.77929688 C-13.50118896 162.82265137 -12.8597998 161.86600586 -12.19897461 160.88037109 C-11.50231689 159.85443848 -10.80565918 158.82850586 -10.08789062 157.77148438 C-9.36867432 156.7030127 -8.64945801 155.63454102 -7.90844727 154.53369141 C-5.683507 151.23317259 -3.44974952 147.93893403 -1.21289062 144.64648438 C-0.55820801 143.68162109 0.09647461 142.71675781 0.77099609 141.72265625 C4.46101918 136.28834541 8.16543679 130.86400995 11.87548828 125.44335938 C13.90620596 122.47223527 15.93126757 119.49731721 17.95507812 116.52148438 C18.63820068 115.51746582 19.32132324 114.51344727 20.02514648 113.47900391 C21.33516825 111.55331483 22.644606 109.62722829 23.95336914 107.70068359 C24.83786743 106.40155029 24.83786743 106.40155029 25.74023438 105.07617188 C26.2574707 104.31546387 26.77470703 103.55475586 27.30761719 102.77099609 C28.32162629 101.31490579 29.38141661 99.88995289 30.47753906 98.49462891 C31.97982767 96.75202296 31.97982767 96.75202296 31.78710938 94.64648438 C25.95252785 94.37332265 20.12170635 94.17442738 14.28222656 94.04223633 C12.29914501 93.98711481 10.31650664 93.91218803 8.33496094 93.81665039 C-3.00732475 92.87054588 -3.00732475 92.87054588 -13.1418457 96.84521484 C-15.22032915 99.68437149 -16.72646743 102.46275861 -18.21289062 105.64648438 C-19.16918346 107.11222618 -20.15041506 108.56216938 -21.16210938 109.99023438 C-22.077091 111.37418508 -22.98982104 112.75962679 -23.90039062 114.14648438 C-27.18076776 119.11519651 -30.48564442 124.06239628 -33.87304688 128.95898438 C-34.47221924 129.82587891 -35.0713916 130.69277344 -35.6887207 131.5859375 C-36.85530024 133.26958773 -38.02560886 134.95066132 -39.19995117 136.62890625 C-39.72500244 137.38751953 -40.25005371 138.14613281 -40.79101562 138.92773438 C-41.25926758 139.59869141 -41.72751953 140.26964844 -42.20996094 140.9609375 C-43.38333856 142.60604965 -43.38333856 142.60604965 -43.21289062 144.64648438 C-43.87289062 144.64648438 -44.53289062 144.64648438 -45.21289062 144.64648438 C-45.48294922 143.91091309 -45.75300781 143.1753418 -46.03125 142.41748047 C-47.169231 139.748868 -48.43603673 137.66318739 -50.11914062 135.31054688 C-50.6933374 134.50085449 -51.26753418 133.69116211 -51.85913086 132.85693359 C-52.47087158 132.00373535 -53.0826123 131.15053711 -53.71289062 130.27148438 C-54.98637531 128.47556538 -56.25850069 126.67868176 -57.52929688 124.88085938 C-58.15594238 123.99462891 -58.78258789 123.10839844 -59.42822266 122.1953125 C-62.6531488 117.58953563 -65.74476325 112.89855642 -68.83398438 108.20117188 C-69.41466675 107.38543701 -69.41466675 107.38543701 -70.00708008 106.55322266 C-71.21289062 104.64648438 -71.21289062 104.64648438 -72.29956055 102.01708984 C-73.94854624 98.665782 -75.18965549 96.88382376 -78.21289062 94.64648438 C-85.14658713 92.93369595 -92.58450223 93.71313354 -99.65039062 94.02148438 C-101.64181596 94.07167885 -103.63336215 94.11730035 -105.625 94.15820312 C-110.49062344 94.26807513 -115.35043028 94.44040762 -120.21289062 94.64648438 Z " fill="#000000" transform="translate(393.212890625,61.353515625)"/>
</svg>
