0
SECTION
2
HEADER
9
$INSUNITS
70
4
9
$ACADVER
1
AC1014
9
$HANDSEED
5
FFFF
0
ENDSEC
0
SECTION
2
TABLES
0
TABLE
2
VPORT
5
8
100
AcDbSymbolTable
0
ENDTAB
0
TABLE
2
LTYPE
5
5
100
AcDbSymbolTable
0
LTYPE
5
14
100
AcDbSymbolTableRecord
100
AcDbLinetypeTableRecord
2
BYBLOCK
70
0
0
LTYPE
5
15
100
AcDbSymbolTableRecord
100
AcDbLinetypeTableRecord
2
BYLAYER
70
0
0
LTYPE
5
16
100
AcDbSymbolTableRecord
100
AcDbLinetypeTableRecord
2
DASHED
70
0
3
Dashed __ __ __ __ __ __ __ __ __ __ __ __ __ _
72
65
73
2
40
0.75
49
0.5
74
0
49
-0.25
74
0
0
ENDTAB
0
TABLE
2
LAYER
5
2
100
AcDbSymbolTable
70
2
0
LAYER
5
50
100
AcDbSymbolTableRecord
100
AcDbLayerTableRecord
2
0
70
0
62
7
6
CONTINUOUS
0
ENDTAB
0
TABLE
2
STYLE
5
3
100
AcDbSymbolTable
70
1
0
STYLE
5
11
100
AcDbSymbolTableRecord
100
AcDbTextStyleTableRecord
2
STANDARD
70
0
0
ENDTAB
0
TABLE
2
VIEW
5
6
100
AcDbSymbolTable
70
0
0
ENDTAB
0
TABLE
2
UCS
5
7
100
AcDbSymbolTable
70
0
0
ENDTAB
0
TABLE
2
APPID
5
9
100
AcDbSymbolTable
70
2
0
APPID
5
12
100
AcDbSymbolTableRecord
100
AcDbRegAppTableRecord
2
ACAD
70
0
0
ENDTAB
0
TABLE
2
DIMSTYLE
5
A
100
AcDbSymbolTable
70
1
0
ENDTAB
0
TABLE
2
BLOCK_RECORD
5
1
100
AcDbSymbolTable
70
1
0
BLOCK_RECORD
5
1F
100
AcDbSymbolTableRecord
100
AcDbBlockTableRecord
2
*MODEL_SPACE
0
BLOCK_RECORD
5
1B
100
AcDbSymbolTableRecord
100
AcDbBlockTableRecord
2
*PAPER_SPACE
0
ENDTAB
0
ENDSEC
0
SECTION
2
BLOCKS
0
BLOCK
5
20
100
AcDbEntity
100
AcDbBlockBegin
2
*MODEL_SPACE
0
ENDBLK
5
21
100
AcDbEntity
100
AcDbBlockEnd
0
BLOCK
5
1C
100
AcDbEntity
100
AcDbBlockBegin
2
*PAPER_SPACE
0
ENDBLK
5
1D
100
AcDbEntity
100
AcDbBlockEnd
0
ENDSEC
0
SECTION
2
ENTITIES
0
POINT
5
100
100
AcDbEntity
8
0
100
AcDbPoint
10
0
20
0
30
0
0
CIRCLE
5
101
100
AcDbEntity
8
0
100
AcDbCircle
10
0
20
0
30
0
40
50
210
0
220
0
230
1
0
CIRCLE
5
102
100
AcDbEntity
8
0
100
AcDbCircle
10
0
20
45
30
0
40
1.6000000000000003
210
0
220
0
230
1
0
CIRCLE
5
103
100
AcDbEntity
8
0
100
AcDbCircle
10
45
20
0
30
0
40
1.6000000000000014
210
0
220
0
230
1
0
CIRCLE
5
104
100
AcDbEntity
8
0
100
AcDbCircle
10
-45
20
0
30
0
40
1.6000000000000014
210
0
220
0
230
1
0
CIRCLE
5
105
100
AcDbEntity
8
0
100
AcDbCircle
10
0
20
-45
30
0
40
1.6000000000000003
210
0
220
0
230
1
0
CIRCLE
5
106
100
AcDbEntity
8
0
100
AcDbCircle
10
30
20
-30
30
0
40
1.6000000000000005
210
0
220
0
230
1
0
LINE
5
107
100
AcDbEntity
8
0
100
AcDbLine
10
0
20
0
30
0
11
9.0000001341104507
21
0
31
0
6
DASHED
0
LINE
5
108
100
AcDbEntity
8
0
100
AcDbLine
10
9.0000001341104507
20
0
30
0
11
9.0000001341104507
21
3.0000000447034836
31
0
6
DASHED
0
LINE
5
109
100
AcDbEntity
8
0
100
AcDbLine
10
9.0000001341104507
20
3.0000000447034836
30
0
11
0
21
3.0000000447034836
31
0
6
DASHED
0
LINE
5
110
100
AcDbEntity
8
0
100
AcDbLine
10
0
20
3.0000000447034836
30
0
11
0
21
0
31
0
6
DASHED
0
LINE
5
111
100
AcDbEntity
8
0
100
AcDbLine
10
0.75170526280999184
20
5.0327418744564056
30
0
11
0.88403815403580666
21
4.9993176758289337
31
0
0
SPLINE
5
112
100
AcDbEntity
8
0
100
AcDbSpline
70
0
71
2
72
6
73
3
74
0
42
0.000000001
43
0.0000000001
44
0.0000000001
40
0
40
0
40
0
40
1
40
1
40
1
10
0.88403815403580666
20
4.9993176758289337
30
0
10
0.8424283005297184
20
4.8362889885902405
30
0
10
0.73396997526288033
20
4.7503407299518585
30
0
0
SPLINE
5
113
100
AcDbEntity
8
0
100
AcDbSpline
70
0
71
2
72
6
73
3
74
0
42
0.000000001
43
0.0000000001
44
0.0000000001
40
0
40
0
40
0
40
1
40
1
40
1
10
0.73396997526288033
20
4.7503407299518585
30
0
10
0.62619367614388466
20
4.6650747954845428
30
0
10
0.46998636797070503
20
4.6650747954845428
30
0
0
SPLINE
5
114
100
AcDbEntity
8
0
100
AcDbSpline
70
0
71
2
72
6
73
3
74
0
42
0.000000001
43
0.0000000001
44
0.0000000001
40
0
40
0
40
0
40
1
40
1
40
1
10
0.46998636797070503
20
4.6650747954845428
30
0
10
0.30832195654511452
20
4.6650747954845428
30
0
10
0.20668484270572662
20
4.7305591404438019
30
0
0
SPLINE
5
115
100
AcDbEntity
8
0
100
AcDbSpline
70
0
71
2
72
6
73
3
74
0
42
0.000000001
43
0.0000000001
44
0.0000000001
40
0
40
0
40
0
40
1
40
1
40
1
10
0.20668484270572662
20
4.7305591404438019
30
0
10
0.10572986677289009
20
4.7967255115509033
30
0
10
0.052523873746395111
20
4.9215550720691681
30
0
0
SPLINE
5
116
100
AcDbEntity
8
0
100
AcDbSpline
70
0
71
2
72
6
73
3
74
0
42
0.000000001
43
0.0000000001
44
0.0000000001
40
0
40
0
40
0
40
1
40
1
40
1
10
0.052523873746395111
20
4.9215550720691681
30
0
10
0
20
5.0463844835758209
30
0
10
0
20
5.1896314322948456
30
0
0
SPLINE
5
117
100
AcDbEntity
8
0
100
AcDbSpline
70
0
71
2
72
6
73
3
74
0
42
0.000000001
43
0.0000000001
44
0.0000000001
40
0
40
0
40
0
40
1
40
1
40
1
10
0
20
5.1896314322948456
30
0
10
0
20
5.3458388149738312
30
0
10
0.05934515967965126
20
5.4618005454540253
30
0
0
SPLINE
5
118
100
AcDbEntity
8
0
100
AcDbSpline
70
0
71
2
72
6
73
3
74
0
42
0.000000001
43
0.0000000001
44
0.0000000001
40
0
40
0
40
0
40
1
40
1
40
1
10
0.05934515967965126
20
5.4618005454540253
30
0
10
0.11937243863940239
20
5.5784444510936737
30
0
10
0.22919507697224617
20
5.6384716928005219
30
0
0
SPLINE
5
119
100
AcDbEntity
8
0
100
AcDbSpline
70
0
71
2
72
6
73
3
74
0
42
0.000000001
43
0.0000000001
44
0.0000000001
40
0
40
0
40
0
40
1
40
1
40
1
10
0.22919507697224617
20
5.6384716928005219
30
0
10
0.33969985321164131
20
5.6991811096668243
30
0
10
0.47203274443745613
20
5.6991811096668243
30
0
0
SPLINE
5
120
100
AcDbEntity
8
0
100
AcDbSpline
70
0
71
2
72
6
73
3
74
0
42
0.000000001
43
0.0000000001
44
0.0000000001
40
0
40
0
40
0
40
1
40
1
40
1
10
0.47203274443745613
20
5.6991811096668243
30
0
10
0.62210092321038246
20
5.6991811096668243
30
0
10
0.72442011907696724
20
5.6227828562259674
30
0
0
SPLINE
5
121
100
AcDbEntity
8
0
100
AcDbSpline
70
0
71
2
72
6
73
3
74
0
42
0.000000001
43
0.0000000001
44
0.0000000001
40
0
40
0
40
0
40
1
40
1
40
1
10
0.72442011907696724
20
5.6227828562259674
30
0
10
0.82673938944935799
20
5.5463844537734985
30
0
10
0.86698496714234352
20
5.4079124331474304
30
0
0
LINE
5
122
100
AcDbEntity
8
0
100
AcDbLine
10
0.86698496714234352
20
5.4079124331474304
30
0
11
0.7366984523832798
21
5.377216637134552
31
0
0
SPLINE
5
123
100
AcDbEntity
8
0
100
AcDbSpline
70
0
71
2
72
6
73
3
74
0
42
0.000000001
43
0.0000000001
44
0.0000000001
40
0
40
0
40
0
40
1
40
1
40
1
10
0.7366984523832798
20
5.377216637134552
30
0
10
0.70190990343689919
20
5.4863572120666504
30
0
10
0.63574345782399178
20
5.536152571439743
30
0
0
SPLINE
5
124
100
AcDbEntity
8
0
100
AcDbSpline
70
0
71
2
72
6
73
3
74
0
42
0.000000001
43
0.0000000001
44
0.0000000001
40
0
40
0
40
0
40
1
40
1
40
1
10
0.63574345782399178
20
5.536152571439743
30
0
10
0.56957701221108437
20
5.5859479308128357
30
0
10
0.46930423006415367
20
5.5859479308128357
30
0
0
SPLINE
5
125
100
AcDbEntity
8
0
100
AcDbSpline
70
0
71
2
72
6
73
3
74
0
42
0.000000001
43
0.0000000001
44
0.0000000001
40
0
40
0
40
0
40
1
40
1
40
1
10
0.46930423006415367
20
5.5859479308128357
30
0
10
0.35402456298470497
20
5.5859479308128357
30
0
10
0.27626195922493935
20
5.5306954681873322
30
0
0
SPLINE
5
126
100
AcDbEntity
8
0
100
AcDbSpline
70
0
71
2
72
6
73
3
74
0
42
0.000000001
43
0.0000000001
44
0.0000000001
40
0
40
0
40
0
40
1
40
1
40
1
10
0.27626195922493935
20
5.5306954681873322
30
0
10
0.19918143749237061
20
5.4754431545734406
30
0
10
0.16780354082584381
20
5.3819915652275085
30
0
0
SPLINE
5
127
100
AcDbEntity
8
0
100
AcDbSpline
70
0
71
2
72
6
73
3
74
0
42
0.000000001
43
0.0000000001
44
0.0000000001
40
0
40
0
40
0
40
1
40
1
40
1
10
0.16780354082584381
20
5.3819915652275085
30
0
10
0.13642564415931702
20
5.2892221510410309
30
0
10
0.13642564415931702
20
5.190313458442688
30
0
0
SPLINE
5
128
100
AcDbEntity
8
0
100
AcDbSpline
70
0
71
2
72
6
73
3
74
0
42
0.000000001
43
0.0000000001
44
0.0000000001
40
0
40
0
40
0
40
1
40
1
40
1
10
0.13642564415931702
20
5.190313458442688
30
0
10
0.13642564415931702
20
5.0627554953098297
30
0
10
0.17326056957244873
20
4.9672575294971466
30
0
0
SPLINE
5
129
100
AcDbEntity
8
0
100
AcDbSpline
70
0
71
2
72
6
73
3
74
0
42
0.000000001
43
0.0000000001
44
0.0000000001
40
0
40
0
40
0
40
1
40
1
40
1
10
0.17326056957244873
20
4.9672575294971466
30
0
10
0.21077761426568031
20
4.8724417388439178
30
0
10
0.28922239318490028
20
4.8253749310970306
30
0
0
SPLINE
5
130
100
AcDbEntity
8
0
100
AcDbSpline
70
0
71
2
72
6
73
3
74
0
42
0.000000001
43
0.0000000001
44
0.0000000001
40
0
40
0
40
0
40
1
40
1
40
1
10
0.28922239318490028
20
4.8253749310970306
30
0
10
0.36766713485121727
20
4.7783081233501434
30
0
10
0.45907231047749519
20
4.7783081233501434
30
0
0
SPLINE
5
131
100
AcDbEntity
8
0
100
AcDbSpline
70
0
71
2
72
6
73
3
74
0
42
0.000000001
43
0.0000000001
44
0.0000000001
40
0
40
0
40
0
40
1
40
1
40
1
10
0.45907231047749519
20
4.7783081233501434
30
0
10
0.57025918737053871
20
4.7783081233501434
30
0
10
0.64733969047665596
20
4.8424281179904938
30
0
0
SPLINE
5
132
100
AcDbEntity
8
0
100
AcDbSpline
70
0
71
2
72
6
73
3
74
0
42
0.000000001
43
0.0000000001
44
0.0000000001
40
0
40
0
40
0
40
1
40
1
40
1
10
0.64733969047665596
20
4.8424281179904938
30
0
10
0.72442011907696724
20
4.9065481126308441
30
0
10
0.75170526280999184
20
5.0327418744564056
30
0
0
SPLINE
5
133
100
AcDbEntity
8
0
100
AcDbSpline
70
0
71
2
72
6
73
3
74
0
42
0.000000001
43
0.0000000001
44
0.0000000001
40
0
40
0
40
0
40
1
40
1
40
1
10
1.5040926821529865
20
4.7714868187904358
30
0
10
1.435879934579134
20
4.7135059535503387
30
0
10
1.3724419660866261
20
4.689631462097168
30
0
0
SPLINE
5
134
100
AcDbEntity
8
0
100
AcDbSpline
70
0
71
2
72
6
73
3
74
0
42
0.000000001
43
0.0000000001
44
0.0000000001
40
0
40
0
40
0
40
1
40
1
40
1
10
1.3724419660866261
20
4.689631462097168
30
0
10
1.3096861727535725
20
4.6657569706439972
30
0
10
1.2373805232346058
20
4.6657569706439972
30
0
0
SPLINE
5
135
100
AcDbEntity
8
0
100
AcDbSpline
70
0
71
2
72
6
73
3
74
0
42
0.000000001
43
0.0000000001
44
0.0000000001
40
0
40
0
40
0
40
1
40
1
40
1
10
1.2373805232346058
20
4.6657569706439972
30
0
10
1.1180081404745579
20
4.6657569706439972
30
0
10
1.0538880713284016
20
4.7237378358840942
30
0
0
SPLINE
5
136
100
AcDbEntity
8
0
100
AcDbSpline
70
0
71
2
72
6
73
3
74
0
42
0.000000001
43
0.0000000001
44
0.0000000001
40
0
40
0
40
0
40
1
40
1
40
1
10
1.0538880713284016
20
4.7237378358840942
30
0
10
0.98976807668805122
20
4.7824008762836456
30
0
10
0.98976807668805122
20
4.8731239140033722
30
0
0
SPLINE
5
137
100
AcDbEntity
8
0
100
AcDbSpline
70
0
71
2
72
6
73
3
74
0
42
0.000000001
43
0.0000000001
44
0.0000000001
40
0
40
0
40
0
40
1
40
1
40
1
10
0.98976807668805122
20
4.8731239140033722
30
0
10
0.98976807668805122
20
4.9263298511505127
30
0
10
1.013642493635416
20
4.9699860811233521
30
0
0
SPLINE
5
138
100
AcDbEntity
8
0
100
AcDbSpline
70
0
71
2
72
6
73
3
74
0
42
0.000000001
43
0.0000000001
44
0.0000000001
40
0
40
0
40
0
40
1
40
1
40
1
10
1.013642493635416
20
4.9699860811233521
30
0
10
1.0381991602480412
20
5.0143243372440338
30
0
10
1.077080462127924
20
5.04092738032341
30
0
0
SPLINE
5
139
100
AcDbEntity
8
0
100
AcDbSpline
70
0
71
2
72
6
73
3
74
0
42
0.000000001
43
0.0000000001
44
0.0000000001
40
0
40
0
40
0
40
1
40
1
40
1
10
1.077080462127924
20
5.04092738032341
30
0
10
1.1166438646614552
20
5.0675304234027863
30
0
10
1.1657571233808994
20
5.0811730325222015
30
0
0
SPLINE
5
140
100
AcDbEntity
8
0
100
AcDbSpline
70
0
71
2
72
6
73
3
74
0
42
0.000000001
43
0.0000000001
44
0.0000000001
40
0
40
0
40
0
40
1
40
1
40
1
10
1.1657571233808994
20
5.0811730325222015
30
0
10
1.2019099481403828
20
5.0907227396965027
30
0
10
1.2748976238071918
20
5.0995904207229614
30
0
0
SPLINE
5
141
100
AcDbEntity
8
0
100
AcDbSpline
70
0
71
2
72
6
73
3
74
0
42
0.000000001
43
0.0000000001
44
0.0000000001
40
0
40
0
40
0
40
1
40
1
40
1
10
1.2748976238071918
20
5.0995904207229614
30
0
10
1.4236015267670155
20
5.1173257827758789
30
0
10
1.493860799819231
20
5.141882449388504
30
0
0
SPLINE
5
142
100
AcDbEntity
8
0
100
AcDbSpline
70
0
71
2
72
6
73
3
74
0
42
0.000000001
43
0.0000000001
44
0.0000000001
40
0
40
0
40
0
40
1
40
1
40
1
10
1.493860799819231
20
5.141882449388504
30
0
10
1.4945429749786854
20
5.1671211421489716
30
0
10
1.4945429749786854
20
5.1739424467086792
30
0
0
SPLINE
5
143
100
AcDbEntity
8
0
100
AcDbSpline
70
0
71
2
72
6
73
3
74
0
42
0.000000001
43
0.0000000001
44
0.0000000001
40
0
40
0
40
0
40
1
40
1
40
1
10
1.4945429749786854
20
5.1739424467086792
30
0
10
1.4945429749786854
20
5.2489764988422394
30
0
10
1.4597544260323048
20
5.2796722948551178
30
0
0
SPLINE
5
144
100
AcDbEntity
8
0
100
AcDbSpline
70
0
71
2
72
6
73
3
74
0
42
0.000000001
43
0.0000000001
44
0.0000000001
40
0
40
0
40
0
40
1
40
1
40
1
10
1.4597544260323048
20
5.2796722948551178
30
0
10
1.4126876182854176
20
5.3212821483612061
30
0
10
1.319918055087328
20
5.3212821483612061
30
0
0
SPLINE
5
145
100
AcDbEntity
8
0
100
AcDbSpline
70
0
71
2
72
6
73
3
74
0
42
0.000000001
43
0.0000000001
44
0.0000000001
40
0
40
0
40
0
40
1
40
1
40
1
10
1.319918055087328
20
5.3212821483612061
30
0
10
1.2332877703011036
20
5.3212821483612061
30
0
10
1.1916780658066273
20
5.2905863523483276
30
0
0
SPLINE
5
146
100
AcDbEntity
8
0
100
AcDbSpline
70
0
71
2
72
6
73
3
74
0
42
0.000000001
43
0.0000000001
44
0.0000000001
40
0
40
0
40
0
40
1
40
1
40
1
10
1.1916780658066273
20
5.2905863523483276
30
0
10
1.1507503129541874
20
5.2605727314949036
30
0
10
1.1309685744345188
20
5.1834921538829803
30
0
0
LINE
5
147
100
AcDbEntity
8
0
100
AcDbLine
10
1.1309685744345188
20
5.1834921538829803
30
0
11
1.0109140165150166
21
5.1998633146286011
31
0
0
SPLINE
5
148
100
AcDbEntity
8
0
100
AcDbSpline
70
0
71
2
72
6
73
3
74
0
42
0.000000001
43
0.0000000001
44
0.0000000001
40
0
40
0
40
0
40
1
40
1
40
1
10
1.0109140165150166
20
5.1998633146286011
30
0
10
1.0272851027548313
20
5.2769437432289124
30
0
10
1.0648021288216114
20
5.3240106999874115
30
0
0
SPLINE
5
149
100
AcDbEntity
8
0
100
AcDbSpline
70
0
71
2
72
6
73
3
74
0
42
0.000000001
43
0.0000000001
44
0.0000000001
40
0
40
0
40
0
40
1
40
1
40
1
10
1.0648021288216114
20
5.3240106999874115
30
0
10
1.1023192293941975
20
5.3717596828937531
30
0
10
1.1732605285942554
20
5.3969983756542206
30
0
0
SPLINE
5
150
100
AcDbEntity
8
0
100
AcDbSpline
70
0
71
2
72
6
73
3
74
0
42
0.000000001
43
0.0000000001
44
0.0000000001
40
0
40
0
40
0
40
1
40
1
40
1
10
1.1732605285942554
20
5.3969983756542206
30
0
10
1.2442018277943134
20
5.4229192435741425
30
0
10
1.3376534171402454
20
5.4229192435741425
30
0
0
SPLINE
5
151
100
AcDbEntity
8
0
100
AcDbSpline
70
0
71
2
72
6
73
3
74
0
42
0.000000001
43
0.0000000001
44
0.0000000001
40
0
40
0
40
0
40
1
40
1
40
1
10
1.3376534171402454
20
5.4229192435741425
30
0
10
1.4304228313267231
20
5.4229192435741425
30
0
10
1.4884036965668201
20
5.4010911285877228
30
0
0
SPLINE
5
152
100
AcDbEntity
8
0
100
AcDbSpline
70
0
71
2
72
6
73
3
74
0
42
0.000000001
43
0.0000000001
44
0.0000000001
40
0
40
0
40
0
40
1
40
1
40
1
10
1.4884036965668201
20
5.4010911285877228
30
0
10
1.5463847108185291
20
5.3792630136013031
30
0
10
1.5736697800457478
20
5.3458388149738312
30
0
0
SPLINE
5
153
100
AcDbEntity
8
0
100
AcDbSpline
70
0
71
2
72
6
73
3
74
0
42
0.000000001
43
0.0000000001
44
0.0000000001
40
0
40
0
40
0
40
1
40
1
40
1
10
1.5736697800457478
20
5.3458388149738312
30
0
10
1.6009548492729664
20
5.3130966424942017
30
0
10
1.6118690557777882
20
5.2626191079616547
30
0
0
SPLINE
5
154
100
AcDbEntity
8
0
100
AcDbSpline
70
0
71
2
72
6
73
3
74
0
42
0.000000001
43
0.0000000001
44
0.0000000001
40
0
40
0
40
0
40
1
40
1
40
1
10
1.6118690557777882
20
5.2626191079616547
30
0
10
1.6180080361664295
20
5.2312411367893219
30
0
10
1.6180080361664295
20
5.1493857800960541
30
0
0
LINE
5
155
100
AcDbEntity
8
0
100
AcDbLine
10
1.6180080361664295
20
5.1493857800960541
30
0
11
1.6180080361664295
21
4.9856750667095184
31
0
0
SPLINE
5
156
100
AcDbEntity
8
0
100
AcDbSpline
70
0
71
2
72
6
73
3
74
0
42
0.000000001
43
0.0000000001
44
0.0000000001
40
0
40
0
40
0
40
1
40
1
40
1
10
1.6180080361664295
20
4.9856750667095184
30
0
10
1.6180080361664295
20
4.8144608736038208
30
0
10
1.6255115158855915
20
4.7687582671642303
30
0
0
SPLINE
5
157
100
AcDbEntity
8
0
100
AcDbSpline
70
0
71
2
72
6
73
3
74
0
42
0.000000001
43
0.0000000001
44
0.0000000001
40
0
40
0
40
0
40
1
40
1
40
1
10
1.6255115158855915
20
4.7687582671642303
30
0
10
1.6336971707642078
20
4.7237378358840942
30
0
10
1.6568893380463123
20
4.682127982378006
30
0
0
LINE
5
158
100
AcDbEntity
8
0
100
AcDbLine
10
1.6568893380463123
20
4.682127982378006
30
0
11
1.5286493487656116
21
4.682127982378006
31
0
0
SPLINE
5
159
100
AcDbEntity
8
0
100
AcDbSpline
70
0
71
2
72
6
73
3
74
0
42
0.000000001
43
0.0000000001
44
0.0000000001
40
0
40
0
40
0
40
1
40
1
40
1
10
1.5286493487656116
20
4.682127982378006
30
0
10
1.5095497854053974
20
4.7203271090984344
30
0
10
1.5040926821529865
20
4.7714868187904358
30
0
0
SPLINE
5
160
100
AcDbEntity
8
0
100
AcDbSpline
70
0
71
2
72
6
73
3
74
0
42
0.000000001
43
0.0000000001
44
0.0000000001
40
0
40
0
40
0
40
1
40
1
40
1
10
1.493860799819231
20
5.0457023084163666
30
0
10
1.4270122535526752
20
5.018417090177536
30
0
10
1.2933150120079517
20
4.9993176758289337
30
0
0
SPLINE
5
161
100
AcDbEntity
8
0
100
AcDbSpline
70
0
71
2
72
6
73
3
74
0
42
0.000000001
43
0.0000000001
44
0.0000000001
40
0
40
0
40
0
40
1
40
1
40
1
10
1.2933150120079517
20
4.9993176758289337
30
0
10
1.2175989337265491
20
4.9884036183357239
30
0
10
1.1862209625542164
20
4.9747610092163086
30
0
0
SPLINE
5
162
100
AcDbEntity
8
0
100
AcDbSpline
70
0
71
2
72
6
73
3
74
0
42
0.000000001
43
0.0000000001
44
0.0000000001
40
0
40
0
40
0
40
1
40
1
40
1
10
1.1862209625542164
20
4.9747610092163086
30
0
10
1.1548430658876896
20
4.9611184000968933
30
0
10
1.1377898789942265
20
4.934515506029129
30
0
0
SPLINE
5
163
100
AcDbEntity
8
0
100
AcDbSpline
70
0
71
2
72
6
73
3
74
0
42
0.000000001
43
0.0000000001
44
0.0000000001
40
0
40
0
40
0
40
1
40
1
40
1
10
1.1377898789942265
20
4.934515506029129
30
0
10
1.1207366175949574
20
4.9085946381092072
30
0
10
1.1207366175949574
20
4.87653449177742
30
0
0
SPLINE
5
164
100
AcDbEntity
8
0
100
AcDbSpline
70
0
71
2
72
6
73
3
74
0
42
0.000000001
43
0.0000000001
44
0.0000000001
40
0
40
0
40
0
40
1
40
1
40
1
10
1.1207366175949574
20
4.87653449177742
30
0
10
1.1207366175949574
20
4.8274213075637817
30
0
10
1.1575715430080891
20
4.7946791350841522
30
0
0
SPLINE
5
165
100
AcDbEntity
8
0
100
AcDbSpline
70
0
71
2
72
6
73
3
74
0
42
0.000000001
43
0.0000000001
44
0.0000000001
40
0
40
0
40
0
40
1
40
1
40
1
10
1.1575715430080891
20
4.7946791350841522
30
0
10
1.1950886435806751
20
4.7619369626045227
30
0
10
1.2667121179401875
20
4.7619369626045227
30
0
0
SPLINE
5
166
100
AcDbEntity
8
0
100
AcDbSpline
70
0
71
2
72
6
73
3
74
0
42
0.000000001
43
0.0000000001
44
0.0000000001
40
0
40
0
40
0
40
1
40
1
40
1
10
1.2667121179401875
20
4.7619369626045227
30
0
10
1.3376534171402454
20
4.7619369626045227
30
0
10
1.392905730754137
20
4.7926327586174011
30
0
0
SPLINE
5
167
100
AcDbEntity
8
0
100
AcDbSpline
70
0
71
2
72
6
73
3
74
0
42
0.000000001
43
0.0000000001
44
0.0000000001
40
0
40
0
40
0
40
1
40
1
40
1
10
1.392905730754137
20
4.7926327586174011
30
0
10
1.4481581933796406
20
4.8240105807781219
30
0
10
1.4740790612995625
20
4.8778988420963287
30
0
0
SPLINE
5
168
100
AcDbEntity
8
0
100
AcDbSpline
70
0
71
2
72
6
73
3
74
0
42
0.000000001
43
0.0000000001
44
0.0000000001
40
0
40
0
40
0
40
1
40
1
40
1
10
1.4740790612995625
20
4.8778988420963287
30
0
10
1.493860799819231
20
4.9195085465908051
30
0
10
1.493860799819231
20
5.0006818771362305
30
0
0
LINE
5
169
100
AcDbEntity
8
0
100
AcDbLine
10
1.493860799819231
20
5.0006818771362305
30
0
11
1.493860799819231
21
5.0457023084163666
31
0
0
LINE
5
170
100
AcDbEntity
8
0
100
AcDbLine
10
1.8083217926323414
20
4.682127982378006
30
0
11
1.8083217926323414
21
5.4065482318401337
31
0
0
LINE
5
171
100
AcDbEntity
8
0
100
AcDbLine
10
1.8083217926323414
20
5.4065482318401337
30
0
11
1.9181445427238941
21
5.4065482318401337
31
0
0
LINE
5
172
100
AcDbEntity
8
0
100
AcDbLine
10
1.9181445427238941
20
5.4065482318401337
30
0
11
1.9181445427238941
21
5.3049109876155853
31
0
0
SPLINE
5
173
100
AcDbEntity
8
0
100
AcDbSpline
70
0
71
2
72
6
73
3
74
0
42
0.000000001
43
0.0000000001
44
0.0000000001
40
0
40
0
40
0
40
1
40
1
40
1
10
1.9181445427238941
20
5.3049109876155853
30
0
10
1.9522509165108204
20
5.3581170737743378
30
0
10
2.0088675804436207
20
5.3901770710945129
30
0
0
SPLINE
5
174
100
AcDbEntity
8
0
100
AcDbSpline
70
0
71
2
72
6
73
3
74
0
42
0.000000001
43
0.0000000001
44
0.0000000001
40
0
40
0
40
0
40
1
40
1
40
1
10
2.0088675804436207
20
5.3901770710945129
30
0
10
2.065484244376421
20
5.4229192435741425
30
0
10
2.1377897448837757
20
5.4229192435741425
30
0
0
SPLINE
5
175
100
AcDbEntity
8
0
100
AcDbSpline
70
0
71
2
72
6
73
3
74
0
42
0.000000001
43
0.0000000001
44
0.0000000001
40
0
40
0
40
0
40
1
40
1
40
1
10
2.1377897448837757
20
5.4229192435741425
30
0
10
2.2182809002697468
20
5.4229192435741425
30
0
10
2.2694406099617481
20
5.3894950449466705
30
0
0
SPLINE
5
176
100
AcDbEntity
8
0
100
AcDbSpline
70
0
71
2
72
6
73
3
74
0
42
0.000000001
43
0.0000000001
44
0.0000000001
40
0
40
0
40
0
40
1
40
1
40
1
10
2.2694406099617481
20
5.3894950449466705
30
0
10
2.3212823458015919
20
5.3560706973075867
30
0
10
2.3424282856285572
20
5.2960433065891266
30
0
0
SPLINE
5
177
100
AcDbEntity
8
0
100
AcDbSpline
70
0
71
2
72
6
73
3
74
0
42
0.000000001
43
0.0000000001
44
0.0000000001
40
0
40
0
40
0
40
1
40
1
40
1
10
2.3424282856285572
20
5.2960433065891266
30
0
10
2.4283763952553272
20
5.4229192435741425
30
0
10
2.566166240721941
20
5.4229192435741425
30
0
0
SPLINE
5
178
100
AcDbEntity
8
0
100
AcDbSpline
70
0
71
2
72
6
73
3
74
0
42
0.000000001
43
0.0000000001
44
0.0000000001
40
0
40
0
40
0
40
1
40
1
40
1
10
2.566166240721941
20
5.4229192435741425
30
0
10
2.6739424653351307
20
5.4229192435741425
30
0
10
2.7319234795868397
20
5.3628920018672943
30
0
0
SPLINE
5
179
100
AcDbEntity
8
0
100
AcDbSpline
70
0
71
2
72
6
73
3
74
0
42
0.000000001
43
0.0000000001
44
0.0000000001
40
0
40
0
40
0
40
1
40
1
40
1
10
2.7319234795868397
20
5.3628920018672943
30
0
10
2.7899044938385487
20
5.3035467863082886
30
0
10
2.7899044938385487
20
5.1793994009494781
30
0
0
LINE
5
180
100
AcDbEntity
8
0
100
AcDbLine
10
2.7899044938385487
20
5.1793994009494781
30
0
11
2.7899044938385487
21
4.682127982378006
31
0
0
LINE
5
181
100
AcDbEntity
8
0
100
AcDbLine
10
2.7899044938385487
20
4.682127982378006
30
0
11
2.6678034849464893
21
4.682127982378006
31
0
0
LINE
5
182
100
AcDbEntity
8
0
100
AcDbLine
10
2.6678034849464893
20
4.682127982378006
30
0
11
2.6678034849464893
21
5.1384717226028442
31
0
0
SPLINE
5
183
100
AcDbEntity
8
0
100
AcDbSpline
70
0
71
2
72
6
73
3
74
0
42
0.000000001
43
0.0000000001
44
0.0000000001
40
0
40
0
40
0
40
1
40
1
40
1
10
2.6678034849464893
20
5.1384717226028442
30
0
10
2.6678034849464893
20
5.2121415734291077
30
0
10
2.6555252261459827
20
5.2442015707492828
30
0
0
SPLINE
5
184
100
AcDbEntity
8
0
100
AcDbSpline
70
0
71
2
72
6
73
3
74
0
42
0.000000001
43
0.0000000001
44
0.0000000001
40
0
40
0
40
0
40
1
40
1
40
1
10
2.6555252261459827
20
5.2442015707492828
30
0
10
2.6439288444817066
20
5.2769437432289124
30
0
10
2.6125508733093739
20
5.2967254817485809
30
0
0
SPLINE
5
185
100
AcDbEntity
8
0
100
AcDbSpline
70
0
71
2
72
6
73
3
74
0
42
0.000000001
43
0.0000000001
44
0.0000000001
40
0
40
0
40
0
40
1
40
1
40
1
10
2.6125508733093739
20
5.2967254817485809
30
0
10
2.581173200160265
20
5.3165072202682495
30
0
10
2.5388813205063343
20
5.3165072202682495
30
0
0
SPLINE
5
186
100
AcDbEntity
8
0
100
AcDbSpline
70
0
71
2
72
6
73
3
74
0
42
0.000000001
43
0.0000000001
44
0.0000000001
40
0
40
0
40
0
40
1
40
1
40
1
10
2.5388813205063343
20
5.3165072202682495
30
0
10
2.4624827690422535
20
5.3165072202682495
30
0
10
2.4120053835213184
20
5.2653476595878601
30
0
0
SPLINE
5
187
100
AcDbEntity
8
0
100
AcDbSpline
70
0
71
2
72
6
73
3
74
0
42
0.000000001
43
0.0000000001
44
0.0000000001
40
0
40
0
40
0
40
1
40
1
40
1
10
2.4120053835213184
20
5.2653476595878601
30
0
10
2.3615278489887714
20
5.2148701250553131
30
0
10
2.3615278489887714
20
5.1030011475086212
30
0
0
LINE
5
188
100
AcDbEntity
8
0
100
AcDbLine
10
2.3615278489887714
20
5.1030011475086212
30
0
11
2.3615278489887714
21
4.682127982378006
31
0
0
LINE
5
189
100
AcDbEntity
8
0
100
AcDbLine
10
2.3615278489887714
20
4.682127982378006
30
0
11
2.2387448139488697
21
4.682127982378006
31
0
0
LINE
5
190
100
AcDbEntity
8
0
100
AcDbLine
10
2.2387448139488697
20
4.682127982378006
30
0
11
2.2387448139488697
21
5.1527965068817139
31
0
0
SPLINE
5
191
100
AcDbEntity
8
0
100
AcDbSpline
70
0
71
2
72
6
73
3
74
0
42
0.000000001
43
0.0000000001
44
0.0000000001
40
0
40
0
40
0
40
1
40
1
40
1
10
2.2387448139488697
20
5.1527965068817139
30
0
10
2.2387448139488697
20
5.2346518635749817
30
0
10
2.2087311930954456
20
5.2755795419216156
30
0
0
SPLINE
5
192
100
AcDbEntity
8
0
100
AcDbSpline
70
0
71
2
72
6
73
3
74
0
42
0.000000001
43
0.0000000001
44
0.0000000001
40
0
40
0
40
0
40
1
40
1
40
1
10
2.2087311930954456
20
5.2755795419216156
30
0
10
2.1787175722420216
20
5.3165072202682495
30
0
10
2.1105046756565571
20
5.3165072202682495
30
0
0
SPLINE
5
193
100
AcDbEntity
8
0
100
AcDbSpline
70
0
71
2
72
6
73
3
74
0
42
0.000000001
43
0.0000000001
44
0.0000000001
40
0
40
0
40
0
40
1
40
1
40
1
10
2.1105046756565571
20
5.3165072202682495
30
0
10
2.0586629398167133
20
5.3165072202682495
30
0
10
2.0143245346844196
20
5.2892221510410309
30
0
0
SPLINE
5
194
100
AcDbEntity
8
0
100
AcDbSpline
70
0
71
2
72
6
73
3
74
0
42
0.000000001
43
0.0000000001
44
0.0000000001
40
0
40
0
40
0
40
1
40
1
40
1
10
2.0143245346844196
20
5.2892221510410309
30
0
10
1.9706684537231922
20
5.2619369328022003
30
0
10
1.9508867152035236
20
5.2094130218029022
30
0
0
SPLINE
5
195
100
AcDbEntity
8
0
100
AcDbSpline
70
0
71
2
72
6
73
3
74
0
42
0.000000001
43
0.0000000001
44
0.0000000001
40
0
40
0
40
0
40
1
40
1
40
1
10
1.9508867152035236
20
5.2094130218029022
30
0
10
1.9311049766838551
20
5.1568892598152161
30
0
10
1.9311049766838551
20
5.0579805672168732
30
0
0
LINE
5
196
100
AcDbEntity
8
0
100
AcDbLine
10
1.9311049766838551
20
5.0579805672168732
30
0
11
1.9311049766838551
21
4.682127982378006
31
0
0
LINE
5
197
100
AcDbEntity
8
0
100
AcDbLine
10
1.9311049766838551
20
4.682127982378006
30
0
11
1.8083217926323414
21
4.682127982378006
31
0
0
LINE
5
198
100
AcDbEntity
8
0
100
AcDbLine
10
3.4679398126900196
20
4.9154157936573029
30
0
11
3.5948157496750355
21
4.8997269570827484
31
0
0
SPLINE
5
199
100
AcDbEntity
8
0
100
AcDbSpline
70
0
71
2
72
6
73
3
74
0
42
0.000000001
43
0.0000000001
44
0.0000000001
40
0
40
0
40
0
40
1
40
1
40
1
10
3.5948157496750355
20
4.8997269570827484
30
0
10
3.5648021288216114
20
4.7885400056838989
30
0
10
3.4836286492645741
20
4.7271484136581421
30
0
0
SPLINE
5
200
100
AcDbEntity
8
0
100
AcDbSpline
70
0
71
2
72
6
73
3
74
0
42
0.000000001
43
0.0000000001
44
0.0000000001
40
0
40
0
40
0
40
1
40
1
40
1
10
3.4836286492645741
20
4.7271484136581421
30
0
10
3.4024554677307606
20
4.6657569706439972
30
0
10
3.2762617059051991
20
4.6657569706439972
30
0
0
SPLINE
5
201
100
AcDbEntity
8
0
100
AcDbSpline
70
0
71
2
72
6
73
3
74
0
42
0.000000001
43
0.0000000001
44
0.0000000001
40
0
40
0
40
0
40
1
40
1
40
1
10
3.2762617059051991
20
4.6657569706439972
30
0
10
3.1173259206116199
20
4.6657569706439972
30
0
10
3.0238744802772999
20
4.7633011639118195
30
0
0
SPLINE
5
202
100
AcDbEntity
8
0
100
AcDbSpline
70
0
71
2
72
6
73
3
74
0
42
0.000000001
43
0.0000000001
44
0.0000000001
40
0
40
0
40
0
40
1
40
1
40
1
10
3.0238744802772999
20
4.7633011639118195
30
0
10
2.9311049170792103
20
4.861527681350708
30
0
10
2.9311049170792103
20
5.0381989777088165
30
0
0
SPLINE
5
203
100
AcDbEntity
8
0
100
AcDbSpline
70
0
71
2
72
6
73
3
74
0
42
0.000000001
43
0.0000000001
44
0.0000000001
40
0
40
0
40
0
40
1
40
1
40
1
10
2.9311049170792103
20
5.0381989777088165
30
0
10
2.9311049170792103
20
5.2210092544555664
30
0
10
3.0252385325729847
20
5.3219641745090485
30
0
0
SPLINE
5
204
100
AcDbEntity
8
0
100
AcDbSpline
70
0
71
2
72
6
73
3
74
0
42
0.000000001
43
0.0000000001
44
0.0000000001
40
0
40
0
40
0
40
1
40
1
40
1
10
3.0252385325729847
20
5.3219641745090485
30
0
10
3.1193721480667591
20
5.4229192435741425
30
0
10
3.2694405503571033
20
5.4229192435741425
30
0
0
SPLINE
5
205
100
AcDbEntity
8
0
100
AcDbSpline
70
0
71
2
72
6
73
3
74
0
42
0.000000001
43
0.0000000001
44
0.0000000001
40
0
40
0
40
0
40
1
40
1
40
1
10
3.2694405503571033
20
5.4229192435741425
30
0
10
3.4147337265312672
20
5.4229192435741425
30
0
10
3.5068211145699024
20
5.3240106999874115
30
0
0
SPLINE
5
206
100
AcDbEntity
8
0
100
AcDbSpline
70
0
71
2
72
6
73
3
74
0
42
0.000000001
43
0.0000000001
44
0.0000000001
40
0
40
0
40
0
40
1
40
1
40
1
10
3.5068211145699024
20
5.3240106999874115
30
0
10
3.5989085026085377
20
5.2251020073890686
30
0
10
3.5989085026085377
20
5.0457023084163666
30
0
0
SPLINE
5
207
100
AcDbEntity
8
0
100
AcDbSpline
70
0
71
2
72
6
73
3
74
0
42
0.000000001
43
0.0000000001
44
0.0000000001
40
0
40
0
40
0
40
1
40
1
40
1
10
3.5989085026085377
20
5.0457023084163666
30
0
10
3.5989085026085377
20
5.0347882509231567
30
0
10
3.5982263274490833
20
5.0129601359367371
30
0
0
LINE
5
208
100
AcDbEntity
8
0
100
AcDbLine
10
3.5982263274490833
20
5.0129601359367371
30
0
11
3.0579808540642262
21
5.0129601359367371
31
0
0
SPLINE
5
209
100
AcDbEntity
8
0
100
AcDbSpline
70
0
71
2
72
6
73
3
74
0
42
0.000000001
43
0.0000000001
44
0.0000000001
40
0
40
0
40
0
40
1
40
1
40
1
10
3.0579808540642262
20
5.0129601359367371
30
0
10
3.0648020096123219
20
4.8935876786708832
30
0
10
3.1255114264786243
20
4.8301498591899872
30
0
0
SPLINE
5
210
100
AcDbEntity
8
0
100
AcDbSpline
70
0
71
2
72
6
73
3
74
0
42
0.000000001
43
0.0000000001
44
0.0000000001
40
0
40
0
40
0
40
1
40
1
40
1
10
3.1255114264786243
20
4.8301498591899872
30
0
10
3.1862208433449268
20
4.7667118906974792
30
0
10
3.2769438810646534
20
4.7667118906974792
30
0
0
SPLINE
5
211
100
AcDbEntity
8
0
100
AcDbSpline
70
0
71
2
72
6
73
3
74
0
42
0.000000001
43
0.0000000001
44
0.0000000001
40
0
40
0
40
0
40
1
40
1
40
1
10
3.2769438810646534
20
4.7667118906974792
30
0
10
3.3444744534790516
20
4.7667118906974792
30
0
10
3.392223734408617
20
4.8021826148033142
30
0
0
SPLINE
5
212
100
AcDbEntity
8
0
100
AcDbSpline
70
0
71
2
72
6
73
3
74
0
42
0.000000001
43
0.0000000001
44
0.0000000001
40
0
40
0
40
0
40
1
40
1
40
1
10
3.392223734408617
20
4.8021826148033142
30
0
10
3.4399724192917347
20
4.8376531898975372
30
0
10
3.4679398126900196
20
4.9154157936573029
30
0
0
LINE
5
213
100
AcDbEntity
8
0
100
AcDbLine
10
3.0648020096123219
20
5.1139150559902191
30
0
11
3.4693041630089283
21
5.1139150559902191
31
0
0
SPLINE
5
214
100
AcDbEntity
8
0
100
AcDbSpline
70
0
71
2
72
6
73
3
74
0
42
0.000000001
43
0.0000000001
44
0.0000000001
40
0
40
0
40
0
40
1
40
1
40
1
10
3.4693041630089283
20
5.1139150559902191
30
0
10
3.4611186571419239
20
5.2053202688694
30
0
10
3.4229192323982716
20
5.2510228753089905
30
0
0
SPLINE
5
215
100
AcDbEntity
8
0
100
AcDbSpline
70
0
71
2
72
6
73
3
74
0
42
0.000000001
43
0.0000000001
44
0.0000000001
40
0
40
0
40
0
40
1
40
1
40
1
10
3.4229192323982716
20
5.2510228753089905
30
0
10
3.3642563410103321
20
5.3219641745090485
30
0
10
3.270804900676012
20
5.3219641745090485
30
0
0
SPLINE
5
216
100
AcDbEntity
8
0
100
AcDbSpline
70
0
71
2
72
6
73
3
74
0
42
0.000000001
43
0.0000000001
44
0.0000000001
40
0
40
0
40
0
40
1
40
1
40
1
10
3.270804900676012
20
5.3219641745090485
30
0
10
3.1862208433449268
20
5.3219641745090485
30
0
10
3.1282398290932178
20
5.2653475105762482
30
0
0
SPLINE
5
217
100
AcDbEntity
8
0
100
AcDbSpline
70
0
71
2
72
6
73
3
74
0
42
0.000000001
43
0.0000000001
44
0.0000000001
40
0
40
0
40
0
40
1
40
1
40
1
10
3.1282398290932178
20
5.2653475105762482
30
0
10
3.0709412880241871
20
5.2087309956550598
30
0
10
3.0648020096123219
20
5.1139150559902191
30
0
0
LINE
5
218
100
AcDbEntity
8
0
100
AcDbLine
10
3.7476128526031971
20
4.682127982378006
30
0
11
3.7476128526031971
21
5.4065482318401337
31
0
0
LINE
5
219
100
AcDbEntity
8
0
100
AcDbLine
10
3.7476128526031971
20
5.4065482318401337
30
0
11
3.8581174798309803
21
5.4065482318401337
31
0
0
LINE
5
220
100
AcDbEntity
8
0
100
AcDbLine
10
3.8581174798309803
20
5.4065482318401337
30
0
11
3.8581174798309803
21
5.2967254817485809
31
0
0
SPLINE
5
221
100
AcDbEntity
8
0
100
AcDbSpline
70
0
71
2
72
6
73
3
74
0
42
0.000000001
43
0.0000000001
44
0.0000000001
40
0
40
0
40
0
40
1
40
1
40
1
10
3.8581174798309803
20
5.2967254817485809
30
0
10
3.900409359484911
20
5.3738059103488922
30
0
10
3.9358800835907459
20
5.3983627259731293
30
0
0
SPLINE
5
222
100
AcDbEntity
8
0
100
AcDbSpline
70
0
71
2
72
6
73
3
74
0
42
0.000000001
43
0.0000000001
44
0.0000000001
40
0
40
0
40
0
40
1
40
1
40
1
10
3.9358800835907459
20
5.3983627259731293
30
0
10
3.9720329828560352
20
5.4229192435741425
30
0
10
4.0150070376694202
20
5.4229192435741425
30
0
0
SPLINE
5
223
100
AcDbEntity
8
0
100
AcDbSpline
70
0
71
2
72
6
73
3
74
0
42
0.000000001
43
0.0000000001
44
0.0000000001
40
0
40
0
40
0
40
1
40
1
40
1
10
4.0150070376694202
20
5.4229192435741425
30
0
10
4.0770805068314075
20
5.4229192435741425
30
0
10
4.1412007994949818
20
5.3833557665348053
30
0
0
LINE
5
224
100
AcDbEntity
8
0
100
AcDbLine
10
4.1412007994949818
20
5.3833557665348053
30
0
11
4.0989089198410511
21
5.2694404125213623
31
0
0
SPLINE
5
225
100
AcDbEntity
8
0
100
AcDbSpline
70
0
71
2
72
6
73
3
74
0
42
0.000000001
43
0.0000000001
44
0.0000000001
40
0
40
0
40
0
40
1
40
1
40
1
10
4.0989089198410511
20
5.2694404125213623
30
0
10
4.0538883395493031
20
5.2960433065891266
30
0
10
4.008867759257555
20
5.2960433065891266
30
0
0
SPLINE
5
226
100
AcDbEntity
8
0
100
AcDbSpline
70
0
71
2
72
6
73
3
74
0
42
0.000000001
43
0.0000000001
44
0.0000000001
40
0
40
0
40
0
40
1
40
1
40
1
10
4.008867759257555
20
5.2960433065891266
30
0
10
3.9686224050819874
20
5.2960433065891266
30
0
10
3.9365622587502003
20
5.2714867889881134
30
0
0
SPLINE
5
227
100
AcDbEntity
8
0
100
AcDbSpline
70
0
71
2
72
6
73
3
74
0
42
0.000000001
43
0.0000000001
44
0.0000000001
40
0
40
0
40
0
40
1
40
1
40
1
10
3.9365622587502003
20
5.2714867889881134
30
0
10
3.9045021124184132
20
5.2476122975349426
30
0
10
3.8908595032989979
20
5.2046382427215576
30
0
0
SPLINE
5
228
100
AcDbEntity
8
0
100
AcDbSpline
70
0
71
2
72
6
73
3
74
0
42
0.000000001
43
0.0000000001
44
0.0000000001
40
0
40
0
40
0
40
1
40
1
40
1
10
3.8908595032989979
20
5.2046382427215576
30
0
10
3.8703957386314869
20
5.1391538977622986
30
0
10
3.8703957386314869
20
5.061391294002533
30
0
0
LINE
5
229
100
AcDbEntity
8
0
100
AcDbLine
10
3.8703957386314869
20
5.061391294002533
30
0
11
3.8703957386314869
21
4.682127982378006
31
0
0
LINE
5
230
100
AcDbEntity
8
0
100
AcDbLine
10
3.8703957386314869
20
4.682127982378006
30
0
11
3.7476128526031971
21
4.682127982378006
31
0
0
SPLINE
5
231
100
AcDbEntity
8
0
100
AcDbSpline
70
0
71
2
72
6
73
3
74
0
42
0.000000001
43
0.0000000001
44
0.0000000001
40
0
40
0
40
0
40
1
40
1
40
1
10
4.6869027800858021
20
4.7714868187904358
30
0
10
4.6186900325119495
20
4.7135059535503387
30
0
10
4.5552522130310535
20
4.689631462097168
30
0
0
SPLINE
5
232
100
AcDbEntity
8
0
100
AcDbSpline
70
0
71
2
72
6
73
3
74
0
42
0.000000001
43
0.0000000001
44
0.0000000001
40
0
40
0
40
0
40
1
40
1
40
1
10
4.5552522130310535
20
4.689631462097168
30
0
10
4.492496270686388
20
4.6657569706439972
30
0
10
4.4201907701790333
20
4.6657569706439972
30
0
0
SPLINE
5
233
100
AcDbEntity
8
0
100
AcDbSpline
70
0
71
2
72
6
73
3
74
0
42
0.000000001
43
0.0000000001
44
0.0000000001
40
0
40
0
40
0
40
1
40
1
40
1
10
4.4201907701790333
20
4.6657569706439972
30
0
10
4.3008181639015675
20
4.6657569706439972
30
0
10
4.2366981692612171
20
4.7237378358840942
30
0
0
SPLINE
5
234
100
AcDbEntity
8
0
100
AcDbSpline
70
0
71
2
72
6
73
3
74
0
42
0.000000001
43
0.0000000001
44
0.0000000001
40
0
40
0
40
0
40
1
40
1
40
1
10
4.2366981692612171
20
4.7237378358840942
30
0
10
4.1725781746208668
20
4.7824008762836456
30
0
10
4.1725781746208668
20
4.8731239140033722
30
0
0
SPLINE
5
235
100
AcDbEntity
8
0
100
AcDbSpline
70
0
71
2
72
6
73
3
74
0
42
0.000000001
43
0.0000000001
44
0.0000000001
40
0
40
0
40
0
40
1
40
1
40
1
10
4.1725781746208668
20
4.8731239140033722
30
0
10
4.1725781746208668
20
4.9263298511505127
30
0
10
4.1964525170624256
20
4.9699860811233521
30
0
0
SPLINE
5
236
100
AcDbEntity
8
0
100
AcDbSpline
70
0
71
2
72
6
73
3
74
0
42
0.000000001
43
0.0000000001
44
0.0000000001
40
0
40
0
40
0
40
1
40
1
40
1
10
4.1964525170624256
20
4.9699860811233521
30
0
10
4.2210093326866627
20
5.0143243372440338
30
0
10
4.2598906345665455
20
5.04092738032341
30
0
0
SPLINE
5
237
100
AcDbEntity
8
0
100
AcDbSpline
70
0
71
2
72
6
73
3
74
0
42
0.000000001
43
0.0000000001
44
0.0000000001
40
0
40
0
40
0
40
1
40
1
40
1
10
4.2598906345665455
20
5.04092738032341
30
0
10
4.2994541116058826
20
5.0675304234027863
30
0
10
4.348567146807909
20
5.0811730325222015
30
0
0
SPLINE
5
238
100
AcDbEntity
8
0
100
AcDbSpline
70
0
71
2
72
6
73
3
74
0
42
0.000000001
43
0.0000000001
44
0.0000000001
40
0
40
0
40
0
40
1
40
1
40
1
10
4.348567146807909
20
5.0811730325222015
30
0
10
4.3847200460731983
20
5.0907227396965027
30
0
10
4.4577077217400074
20
5.0995904207229614
30
0
0
SPLINE
5
239
100
AcDbEntity
8
0
100
AcDbSpline
70
0
71
2
72
6
73
3
74
0
42
0.000000001
43
0.0000000001
44
0.0000000001
40
0
40
0
40
0
40
1
40
1
40
1
10
4.4577077217400074
20
5.0995904207229614
30
0
10
4.6064117737114429
20
5.1173257827758789
30
0
10
4.6766710467636585
20
5.141882449388504
30
0
0
SPLINE
5
240
100
AcDbEntity
8
0
100
AcDbSpline
70
0
71
2
72
6
73
3
74
0
42
0.000000001
43
0.0000000001
44
0.0000000001
40
0
40
0
40
0
40
1
40
1
40
1
10
4.6766710467636585
20
5.141882449388504
30
0
10
4.677352923899889
20
5.1671211421489716
30
0
10
4.677352923899889
20
5.1739424467086792
30
0
0
SPLINE
5
241
100
AcDbEntity
8
0
100
AcDbSpline
70
0
71
2
72
6
73
3
74
0
42
0.000000001
43
0.0000000001
44
0.0000000001
40
0
40
0
40
0
40
1
40
1
40
1
10
4.677352923899889
20
5.1739424467086792
30
0
10
4.677352923899889
20
5.2489764988422394
30
0
10
4.6425643749535084
20
5.2796722948551178
30
0
0
SPLINE
5
242
100
AcDbEntity
8
0
100
AcDbSpline
70
0
71
2
72
6
73
3
74
0
42
0.000000001
43
0.0000000001
44
0.0000000001
40
0
40
0
40
0
40
1
40
1
40
1
10
4.6425643749535084
20
5.2796722948551178
30
0
10
4.5954975672066212
20
5.3212821483612061
30
0
10
4.5027283020317554
20
5.3212821483612061
30
0
0
SPLINE
5
243
100
AcDbEntity
8
0
100
AcDbSpline
70
0
71
2
72
6
73
3
74
0
42
0.000000001
43
0.0000000001
44
0.0000000001
40
0
40
0
40
0
40
1
40
1
40
1
10
4.5027283020317554
20
5.3212821483612061
30
0
10
4.4160980172455311
20
5.3212821483612061
30
0
10
4.3744880147278309
20
5.2905863523483276
30
0
0
SPLINE
5
244
100
AcDbEntity
8
0
100
AcDbSpline
70
0
71
2
72
6
73
3
74
0
42
0.000000001
43
0.0000000001
44
0.0000000001
40
0
40
0
40
0
40
1
40
1
40
1
10
4.3744880147278309
20
5.2905863523483276
30
0
10
4.3335604853928089
20
5.2605727314949036
30
0
10
4.3137785978615284
20
5.1834921538829803
30
0
0
LINE
5
245
100
AcDbEntity
8
0
100
AcDbLine
10
4.3137785978615284
20
5.1834921538829803
30
0
11
4.1937241144478321
21
5.1998633146286011
31
0
0
SPLINE
5
246
100
AcDbEntity
8
0
100
AcDbSpline
70
0
71
2
72
6
73
3
74
0
42
0.000000001
43
0.0000000001
44
0.0000000001
40
0
40
0
40
0
40
1
40
1
40
1
10
4.1937241144478321
20
5.1998633146286011
30
0
10
4.2100951261818409
20
5.2769437432289124
30
0
10
4.2476123757660389
20
5.3240106999874115
30
0
0
SPLINE
5
247
100
AcDbEntity
8
0
100
AcDbSpline
70
0
71
2
72
6
73
3
74
0
42
0.000000001
43
0.0000000001
44
0.0000000001
40
0
40
0
40
0
40
1
40
1
40
1
10
4.2476123757660389
20
5.3240106999874115
30
0
10
4.285129327327013
20
5.3717596828937531
30
0
10
4.3560707755386829
20
5.3969983756542206
30
0
0
SPLINE
5
248
100
AcDbEntity
8
0
100
AcDbSpline
70
0
71
2
72
6
73
3
74
0
42
0.000000001
43
0.0000000001
44
0.0000000001
40
0
40
0
40
0
40
1
40
1
40
1
10
4.3560707755386829
20
5.3969983756542206
30
0
10
4.427011925727129
20
5.4229192435741425
30
0
10
4.5204636640846729
20
5.4229192435741425
30
0
0
SPLINE
5
249
100
AcDbEntity
8
0
100
AcDbSpline
70
0
71
2
72
6
73
3
74
0
42
0.000000001
43
0.0000000001
44
0.0000000001
40
0
40
0
40
0
40
1
40
1
40
1
10
4.5204636640846729
20
5.4229192435741425
30
0
10
4.6132329292595387
20
5.4229192435741425
30
0
10
4.6712139435112476
20
5.4010911285877228
30
0
0
SPLINE
5
250
100
AcDbEntity
8
0
100
AcDbSpline
70
0
71
2
72
6
73
3
74
0
42
0.000000001
43
0.0000000001
44
0.0000000001
40
0
40
0
40
0
40
1
40
1
40
1
10
4.6712139435112476
20
5.4010911285877228
30
0
10
4.7291946597397327
20
5.3792630136013031
30
0
10
4.7564798779785633
20
5.3458388149738312
30
0
0
SPLINE
5
251
100
AcDbEntity
8
0
100
AcDbSpline
70
0
71
2
72
6
73
3
74
0
42
0.000000001
43
0.0000000001
44
0.0000000001
40
0
40
0
40
0
40
1
40
1
40
1
10
4.7564798779785633
20
5.3458388149738312
30
0
10
4.7837650962173939
20
5.3130966424942017
30
0
10
4.7946790046989918
20
5.2626191079616547
30
0
0
SPLINE
5
252
100
AcDbEntity
8
0
100
AcDbSpline
70
0
71
2
72
6
73
3
74
0
42
0.000000001
43
0.0000000001
44
0.0000000001
40
0
40
0
40
0
40
1
40
1
40
1
10
4.7946790046989918
20
5.2626191079616547
30
0
10
4.800818283110857
20
5.2312411367893219
30
0
10
4.800818283110857
20
5.1493857800960541
30
0
0
LINE
5
253
100
AcDbEntity
8
0
100
AcDbLine
10
4.800818283110857
20
5.1493857800960541
30
0
11
4.800818283110857
21
4.9856750667095184
31
0
0
SPLINE
5
254
100
AcDbEntity
8
0
100
AcDbSpline
70
0
71
2
72
6
73
3
74
0
42
0.000000001
43
0.0000000001
44
0.0000000001
40
0
40
0
40
0
40
1
40
1
40
1
10
4.800818283110857
20
4.9856750667095184
30
0
10
4.800818283110857
20
4.8144608736038208
30
0
10
4.8083216138184071
20
4.7687582671642303
30
0
0
SPLINE
5
255
100
AcDbEntity
8
0
100
AcDbSpline
70
0
71
2
72
6
73
3
74
0
42
0.000000001
43
0.0000000001
44
0.0000000001
40
0
40
0
40
0
40
1
40
1
40
1
10
4.8083216138184071
20
4.7687582671642303
30
0
10
4.8165071196854115
20
4.7237378358840942
30
0
10
4.8396995849907398
20
4.682127982378006
30
0
0
LINE
5
256
100
AcDbEntity
8
0
100
AcDbLine
10
4.8396995849907398
20
4.682127982378006
30
0
11
4.7114592976868153
21
4.682127982378006
31
0
0
SPLINE
5
257
100
AcDbEntity
8
0
100
AcDbSpline
70
0
71
2
72
6
73
3
74
0
42
0.000000001
43
0.0000000001
44
0.0000000001
40
0
40
0
40
0
40
1
40
1
40
1
10
4.7114592976868153
20
4.682127982378006
30
0
10
4.692359883338213
20
4.7203271090984344
30
0
10
4.6869027800858021
20
4.7714868187904358
30
0
0
SPLINE
5
258
100
AcDbEntity
8
0
100
AcDbSpline
70
0
71
2
72
6
73
3
74
0
42
0.000000001
43
0.0000000001
44
0.0000000001
40
0
40
0
40
0
40
1
40
1
40
1
10
4.6766710467636585
20
5.0457023084163666
30
0
10
4.6098223514854908
20
5.018417090177536
30
0
10
4.4761252589523792
20
4.9993176758289337
30
0
0
SPLINE
5
259
100
AcDbEntity
8
0
100
AcDbSpline
70
0
71
2
72
6
73
3
74
0
42
0.000000001
43
0.0000000001
44
0.0000000001
40
0
40
0
40
0
40
1
40
1
40
1
10
4.4761252589523792
20
4.9993176758289337
30
0
10
4.4004088826477528
20
4.9884036183357239
30
0
10
4.3690312094986439
20
4.9747610092163086
30
0
0
SPLINE
5
260
100
AcDbEntity
8
0
100
AcDbSpline
70
0
71
2
72
6
73
3
74
0
42
0.000000001
43
0.0000000001
44
0.0000000001
40
0
40
0
40
0
40
1
40
1
40
1
10
4.3690312094986439
20
4.9747610092163086
30
0
10
4.3376532383263111
20
4.9611184000968933
30
0
10
4.320600051432848
20
4.934515506029129
30
0
0
SPLINE
5
261
100
AcDbEntity
8
0
100
AcDbSpline
70
0
71
2
72
6
73
3
74
0
42
0.000000001
43
0.0000000001
44
0.0000000001
40
0
40
0
40
0
40
1
40
1
40
1
10
4.320600051432848
20
4.934515506029129
30
0
10
4.3035468645393848
20
4.9085946381092072
30
0
10
4.3035468645393848
20
4.87653449177742
30
0
0
SPLINE
5
262
100
AcDbEntity
8
0
100
AcDbSpline
70
0
71
2
72
6
73
3
74
0
42
0.000000001
43
0.0000000001
44
0.0000000001
40
0
40
0
40
0
40
1
40
1
40
1
10
4.3035468645393848
20
4.87653449177742
30
0
10
4.3035468645393848
20
4.8274213075637817
30
0
10
4.3403816409409046
20
4.7946791350841522
30
0
0
SPLINE
5
263
100
AcDbEntity
8
0
100
AcDbSpline
70
0
71
2
72
6
73
3
74
0
42
0.000000001
43
0.0000000001
44
0.0000000001
40
0
40
0
40
0
40
1
40
1
40
1
10
4.3403816409409046
20
4.7946791350841522
30
0
10
4.3778985925018787
20
4.7619369626045227
30
0
10
4.449522215873003
20
4.7619369626045227
30
0
0
SPLINE
5
264
100
AcDbEntity
8
0
100
AcDbSpline
70
0
71
2
72
6
73
3
74
0
42
0.000000001
43
0.0000000001
44
0.0000000001
40
0
40
0
40
0
40
1
40
1
40
1
10
4.449522215873003
20
4.7619369626045227
30
0
10
4.5204636640846729
20
4.7619369626045227
30
0
10
4.5757159776985645
20
4.7926327586174011
30
0
0
SPLINE
5
265
100
AcDbEntity
8
0
100
AcDbSpline
70
0
71
2
72
6
73
3
74
0
42
0.000000001
43
0.0000000001
44
0.0000000001
40
0
40
0
40
0
40
1
40
1
40
1
10
4.5757159776985645
20
4.7926327586174011
30
0
10
4.6309682913124561
20
4.8240105807781219
30
0
10
4.656889159232378
20
4.8778988420963287
30
0
0
SPLINE
5
266
100
AcDbEntity
8
0
100
AcDbSpline
70
0
71
2
72
6
73
3
74
0
42
0.000000001
43
0.0000000001
44
0.0000000001
40
0
40
0
40
0
40
1
40
1
40
1
10
4.656889159232378
20
4.8778988420963287
30
0
10
4.6766710467636585
20
4.9195085465908051
30
0
10
4.6766710467636585
20
5.0006818771362305
30
0
0
LINE
5
267
100
AcDbEntity
8
0
100
AcDbLine
10
4.6766710467636585
20
5.0006818771362305
30
0
11
4.6766710467636585
21
5.0457023084163666
31
0
0
SPLINE
5
268
100
AcDbEntity
8
0
100
AcDbSpline
70
0
71
2
72
6
73
3
74
0
42
0.000000001
43
0.0000000001
44
0.0000000001
40
0
40
0
40
0
40
1
40
1
40
1
10
5.8519780822098255
20
4.7714868187904358
30
0
10
5.7837647385895252
20
4.7135059535503387
30
0
10
5.7203269191086292
20
4.689631462097168
30
0
0
SPLINE
5
269
100
AcDbEntity
8
0
100
AcDbSpline
70
0
71
2
72
6
73
3
74
0
42
0.000000001
43
0.0000000001
44
0.0000000001
40
0
40
0
40
0
40
1
40
1
40
1
10
5.7203269191086292
20
4.689631462097168
30
0
10
5.6575709767639637
20
4.6657569706439972
30
0
10
5.5852657742798328
20
4.6657569706439972
30
0
0
SPLINE
5
270
100
AcDbEntity
8
0
100
AcDbSpline
70
0
71
2
72
6
73
3
74
0
42
0.000000001
43
0.0000000001
44
0.0000000001
40
0
40
0
40
0
40
1
40
1
40
1
10
5.5852657742798328
20
4.6657569706439972
30
0
10
5.465893168002367
20
4.6657569706439972
30
0
10
5.4017734713852406
20
4.7237378358840942
30
0
0
SPLINE
5
271
100
AcDbEntity
8
0
100
AcDbSpline
70
0
71
2
72
6
73
3
74
0
42
0.000000001
43
0.0000000001
44
0.0000000001
40
0
40
0
40
0
40
1
40
1
40
1
10
5.4017734713852406
20
4.7237378358840942
30
0
10
5.3376531787216663
20
4.7824008762836456
30
0
10
5.3376531787216663
20
4.8731239140033722
30
0
0
SPLINE
5
272
100
AcDbEntity
8
0
100
AcDbSpline
70
0
71
2
72
6
73
3
74
0
42
0.000000001
43
0.0000000001
44
0.0000000001
40
0
40
0
40
0
40
1
40
1
40
1
10
5.3376531787216663
20
4.8731239140033722
30
0
10
5.3376531787216663
20
4.9263298511505127
30
0
10
5.3615278191864491
20
4.9699860811233521
30
0
0
SPLINE
5
273
100
AcDbEntity
8
0
100
AcDbSpline
70
0
71
2
72
6
73
3
74
0
42
0.000000001
43
0.0000000001
44
0.0000000001
40
0
40
0
40
0
40
1
40
1
40
1
10
5.3615278191864491
20
4.9699860811233521
30
0
10
5.3860843367874622
20
5.0143243372440338
30
0
10
5.424965638667345
20
5.04092738032341
30
0
0
SPLINE
5
274
100
AcDbEntity
8
0
100
AcDbSpline
70
0
71
2
72
6
73
3
74
0
42
0.000000001
43
0.0000000001
44
0.0000000001
40
0
40
0
40
0
40
1
40
1
40
1
10
5.424965638667345
20
5.04092738032341
30
0
10
5.4645288176834583
20
5.0675304234027863
30
0
10
5.5136424489319324
20
5.0811730325222015
30
0
0
SPLINE
5
275
100
AcDbEntity
8
0
100
AcDbSpline
70
0
71
2
72
6
73
3
74
0
42
0.000000001
43
0.0000000001
44
0.0000000001
40
0
40
0
40
0
40
1
40
1
40
1
10
5.5136424489319324
20
5.0811730325222015
30
0
10
5.5497950501739979
20
5.0907227396965027
30
0
10
5.622782725840807
20
5.0995904207229614
30
0
0
SPLINE
5
276
100
AcDbEntity
8
0
100
AcDbSpline
70
0
71
2
72
6
73
3
74
0
42
0.000000001
43
0.0000000001
44
0.0000000001
40
0
40
0
40
0
40
1
40
1
40
1
10
5.622782725840807
20
5.0995904207229614
30
0
10
5.7714867778122425
20
5.1173257827758789
30
0
10
5.8417457528412342
20
5.141882449388504
30
0
0
SPLINE
5
277
100
AcDbEntity
8
0
100
AcDbSpline
70
0
71
2
72
6
73
3
74
0
42
0.000000001
43
0.0000000001
44
0.0000000001
40
0
40
0
40
0
40
1
40
1
40
1
10
5.8417457528412342
20
5.141882449388504
30
0
10
5.8424282260239124
20
5.1671211421489716
30
0
10
5.8424282260239124
20
5.1739424467086792
30
0
0
SPLINE
5
278
100
AcDbEntity
8
0
100
AcDbSpline
70
0
71
2
72
6
73
3
74
0
42
0.000000001
43
0.0000000001
44
0.0000000001
40
0
40
0
40
0
40
1
40
1
40
1
10
5.8424282260239124
20
5.1739424467086792
30
0
10
5.8424282260239124
20
5.2489764988422394
30
0
10
5.8076393790543079
20
5.2796722948551178
30
0
0
SPLINE
5
279
100
AcDbEntity
8
0
100
AcDbSpline
70
0
71
2
72
6
73
3
74
0
42
0.000000001
43
0.0000000001
44
0.0000000001
40
0
40
0
40
0
40
1
40
1
40
1
10
5.8076393790543079
20
5.2796722948551178
30
0
10
5.7605725713074207
20
5.3212821483612061
30
0
10
5.667803306132555
20
5.3212821483612061
30
0
0
SPLINE
5
280
100
AcDbEntity
8
0
100
AcDbSpline
70
0
71
2
72
6
73
3
74
0
42
0.000000001
43
0.0000000001
44
0.0000000001
40
0
40
0
40
0
40
1
40
1
40
1
10
5.667803306132555
20
5.3212821483612061
30
0
10
5.5811727233231068
20
5.3212821483612061
30
0
10
5.5395633168518543
20
5.2905863523483276
30
0
0
SPLINE
5
281
100
AcDbEntity
8
0
100
AcDbSpline
70
0
71
2
72
6
73
3
74
0
42
0.000000001
43
0.0000000001
44
0.0000000001
40
0
40
0
40
0
40
1
40
1
40
1
10
5.5395633168518543
20
5.2905863523483276
30
0
10
5.4986351914703846
20
5.2605727314949036
30
0
10
5.478853601962328
20
5.1834921538829803
30
0
0
LINE
5
282
100
AcDbEntity
8
0
100
AcDbLine
10
5.478853601962328
20
5.1834921538829803
30
0
11
5.3587991185486317
21
5.1998633146286011
31
0
0
SPLINE
5
283
100
AcDbEntity
8
0
100
AcDbSpline
70
0
71
2
72
6
73
3
74
0
42
0.000000001
43
0.0000000001
44
0.0000000001
40
0
40
0
40
0
40
1
40
1
40
1
10
5.3587991185486317
20
5.1998633146286011
30
0
10
5.3751701302826405
20
5.2769437432289124
30
0
10
5.4126870818436146
20
5.3240106999874115
30
0
0
SPLINE
5
284
100
AcDbEntity
8
0
100
AcDbSpline
70
0
71
2
72
6
73
3
74
0
42
0.000000001
43
0.0000000001
44
0.0000000001
40
0
40
0
40
0
40
1
40
1
40
1
10
5.4126870818436146
20
5.3240106999874115
30
0
10
5.4502040334045887
20
5.3717596828937531
30
0
10
5.5211454816162586
20
5.3969983756542206
30
0
0
SPLINE
5
285
100
AcDbEntity
8
0
100
AcDbSpline
70
0
71
2
72
6
73
3
74
0
42
0.000000001
43
0.0000000001
44
0.0000000001
40
0
40
0
40
0
40
1
40
1
40
1
10
5.5211454816162586
20
5.3969983756542206
30
0
10
5.5920869298279285
20
5.4229192435741425
30
0
10
5.6855386681854725
20
5.4229192435741425
30
0
0
SPLINE
5
286
100
AcDbEntity
8
0
100
AcDbSpline
70
0
71
2
72
6
73
3
74
0
42
0.000000001
43
0.0000000001
44
0.0000000001
40
0
40
0
40
0
40
1
40
1
40
1
10
5.6855386681854725
20
5.4229192435741425
30
0
10
5.7783079333603382
20
5.4229192435741425
30
0
10
5.8362889476120472
20
5.4010911285877228
30
0
0
SPLINE
5
287
100
AcDbEntity
8
0
100
AcDbSpline
70
0
71
2
72
6
73
3
74
0
42
0.000000001
43
0.0000000001
44
0.0000000001
40
0
40
0
40
0
40
1
40
1
40
1
10
5.8362889476120472
20
5.4010911285877228
30
0
10
5.8942699618637562
20
5.3792630136013031
30
0
10
5.9215551801025867
20
5.3458388149738312
30
0
0
SPLINE
5
288
100
AcDbEntity
8
0
100
AcDbSpline
70
0
71
2
72
6
73
3
74
0
42
0.000000001
43
0.0000000001
44
0.0000000001
40
0
40
0
40
0
40
1
40
1
40
1
10
5.9215551801025867
20
5.3458388149738312
30
0
10
5.9488398022949696
20
5.3130966424942017
30
0
10
5.9597540087997913
20
5.2626191079616547
30
0
0
SPLINE
5
289
100
AcDbEntity
8
0
100
AcDbSpline
70
0
71
2
72
6
73
3
74
0
42
0.000000001
43
0.0000000001
44
0.0000000001
40
0
40
0
40
0
40
1
40
1
40
1
10
5.9597540087997913
20
5.2626191079616547
30
0
10
5.9658932872116566
20
5.2312411367893219
30
0
10
5.9658932872116566
20
5.1493857800960541
30
0
0
LINE
5
290
100
AcDbEntity
8
0
100
AcDbLine
10
5.9658932872116566
20
5.1493857800960541
30
0
11
5.9658932872116566
21
4.9856750667095184
31
0
0
SPLINE
5
291
100
AcDbEntity
8
0
100
AcDbSpline
70
0
71
2
72
6
73
3
74
0
42
0.000000001
43
0.0000000001
44
0.0000000001
40
0
40
0
40
0
40
1
40
1
40
1
10
5.9658932872116566
20
4.9856750667095184
30
0
10
5.9658932872116566
20
4.8144608736038208
30
0
10
5.9733969159424305
20
4.7687582671642303
30
0
0
SPLINE
5
292
100
AcDbEntity
8
0
100
AcDbSpline
70
0
71
2
72
6
73
3
74
0
42
0.000000001
43
0.0000000001
44
0.0000000001
40
0
40
0
40
0
40
1
40
1
40
1
10
5.9733969159424305
20
4.7687582671642303
30
0
10
5.9815824218094349
20
4.7237378358840942
30
0
10
6.0047745890915394
20
4.682127982378006
30
0
0
LINE
5
293
100
AcDbEntity
8
0
100
AcDbLine
10
6.0047745890915394
20
4.682127982378006
30
0
11
5.8765345998108387
21
4.682127982378006
31
0
0
SPLINE
5
294
100
AcDbEntity
8
0
100
AcDbSpline
70
0
71
2
72
6
73
3
74
0
42
0.000000001
43
0.0000000001
44
0.0000000001
40
0
40
0
40
0
40
1
40
1
40
1
10
5.8765345998108387
20
4.682127982378006
30
0
10
5.8574348874390125
20
4.7203271090984344
30
0
10
5.8519780822098255
20
4.7714868187904358
30
0
0
SPLINE
5
295
100
AcDbEntity
8
0
100
AcDbSpline
70
0
71
2
72
6
73
3
74
0
42
0.000000001
43
0.0000000001
44
0.0000000001
40
0
40
0
40
0
40
1
40
1
40
1
10
5.8417457528412342
20
5.0457023084163666
30
0
10
5.7748973555862904
20
5.018417090177536
30
0
10
5.6411999650299549
20
4.9993176758289337
30
0
0
SPLINE
5
296
100
AcDbEntity
8
0
100
AcDbSpline
70
0
71
2
72
6
73
3
74
0
42
0.000000001
43
0.0000000001
44
0.0000000001
40
0
40
0
40
0
40
1
40
1
40
1
10
5.6411999650299549
20
4.9993176758289337
30
0
10
5.5654841847717762
20
4.9884036183357239
30
0
10
5.5341059155762196
20
4.9747610092163086
30
0
0
SPLINE
5
297
100
AcDbEntity
8
0
100
AcDbSpline
70
0
71
2
72
6
73
3
74
0
42
0.000000001
43
0.0000000001
44
0.0000000001
40
0
40
0
40
0
40
1
40
1
40
1
10
5.5341059155762196
20
4.9747610092163086
30
0
10
5.5027282424271107
20
4.9611184000968933
30
0
10
5.4856747575104237
20
4.934515506029129
30
0
0
SPLINE
5
298
100
AcDbEntity
8
0
100
AcDbSpline
70
0
71
2
72
6
73
3
74
0
42
0.000000001
43
0.0000000001
44
0.0000000001
40
0
40
0
40
0
40
1
40
1
40
1
10
5.4856747575104237
20
4.934515506029129
30
0
10
5.4686218686401844
20
4.9085946381092072
30
0
10
5.4686218686401844
20
4.87653449177742
30
0
0
SPLINE
5
299
100
AcDbEntity
8
0
100
AcDbSpline
70
0
71
2
72
6
73
3
74
0
42
0.000000001
43
0.0000000001
44
0.0000000001
40
0
40
0
40
0
40
1
40
1
40
1
10
5.4686218686401844
20
4.87653449177742
30
0
10
5.4686218686401844
20
4.8274213075637817
30
0
10
5.5054569430649281
20
4.7946791350841522
30
0
0
SPLINE
5
300
100
AcDbEntity
8
0
100
AcDbSpline
70
0
71
2
72
6
73
3
74
0
42
0.000000001
43
0.0000000001
44
0.0000000001
40
0
40
0
40
0
40
1
40
1
40
1
10
5.5054569430649281
20
4.7946791350841522
30
0
10
5.5429738946259022
20
4.7619369626045227
30
0
10
5.6145972199738026
20
4.7619369626045227
30
0
0
SPLINE
5
301
100
AcDbEntity
8
0
100
AcDbSpline
70
0
71
2
72
6
73
3
74
0
42
0.000000001
43
0.0000000001
44
0.0000000001
40
0
40
0
40
0
40
1
40
1
40
1
10
5.6145972199738026
20
4.7619369626045227
30
0
10
5.6855386681854725
20
4.7619369626045227
30
0
10
5.7407909817993641
20
4.7926327586174011
30
0
0
SPLINE
5
302
100
AcDbEntity
8
0
100
AcDbSpline
70
0
71
2
72
6
73
3
74
0
42
0.000000001
43
0.0000000001
44
0.0000000001
40
0
40
0
40
0
40
1
40
1
40
1
10
5.7407909817993641
20
4.7926327586174011
30
0
10
5.7960432954132557
20
4.8240105807781219
30
0
10
5.8219641633331776
20
4.8778988420963287
30
0
0
SPLINE
5
303
100
AcDbEntity
8
0
100
AcDbSpline
70
0
71
2
72
6
73
3
74
0
42
0.000000001
43
0.0000000001
44
0.0000000001
40
0
40
0
40
0
40
1
40
1
40
1
10
5.8219641633331776
20
4.8778988420963287
30
0
10
5.8417457528412342
20
4.9195085465908051
30
0
10
5.8417457528412342
20
5.0006818771362305
30
0
0
LINE
5
304
100
AcDbEntity
8
0
100
AcDbLine
10
5.8417457528412342
20
5.0006818771362305
30
0
11
5.8417457528412342
21
5.0457023084163666
31
0
0
LINE
5
305
100
AcDbEntity
8
0
100
AcDbLine
10
6.4242839999496937
20
4.7919505834579468
30
0
11
6.4420193620026112
21
4.6834921836853027
31
0
0
SPLINE
5
306
100
AcDbEntity
8
0
100
AcDbSpline
70
0
71
2
72
6
73
3
74
0
42
0.000000001
43
0.0000000001
44
0.0000000001
40
0
40
0
40
0
40
1
40
1
40
1
10
6.4420193620026112
20
4.6834921836853027
30
0
10
6.3901776261627674
20
4.6725781261920929
30
0
10
6.3492495007812977
20
4.6725781261920929
30
0
0
SPLINE
5
307
100
AcDbEntity
8
0
100
AcDbSpline
70
0
71
2
72
6
73
3
74
0
42
0.000000001
43
0.0000000001
44
0.0000000001
40
0
40
0
40
0
40
1
40
1
40
1
10
6.3492495007812977
20
4.6725781261920929
30
0
10
6.2824011035263538
20
4.6725781261920929
30
0
10
6.2455660291016102
20
4.6937242150306702
30
0
0
SPLINE
5
308
100
AcDbEntity
8
0
100
AcDbSpline
70
0
71
2
72
6
73
3
74
0
42
0.000000001
43
0.0000000001
44
0.0000000001
40
0
40
0
40
0
40
1
40
1
40
1
10
6.2455660291016102
20
4.6937242150306702
30
0
10
6.2087315507233143
20
4.7148701548576355
30
0
10
6.1937242932617664
20
4.7489765286445618
30
0
0
SPLINE
5
309
100
AcDbEntity
8
0
100
AcDbSpline
70
0
71
2
72
6
73
3
74
0
42
0.000000001
43
0.0000000001
44
0.0000000001
40
0
40
0
40
0
40
1
40
1
40
1
10
6.1937242932617664
20
4.7489765286445618
30
0
10
6.1787176318466663
20
4.7837650775909424
30
0
10
6.1787176318466663
20
4.8942698538303375
30
0
0
LINE
5
310
100
AcDbEntity
8
0
100
AcDbLine
10
6.1787176318466663
20
4.8942698538303375
30
0
11
6.1787176318466663
21
5.3110502660274506
31
0
0
LINE
5
311
100
AcDbEntity
8
0
100
AcDbLine
10
6.1787176318466663
20
5.3110502660274506
30
0
11
6.0886764712631702
21
5.3110502660274506
31
0
0
LINE
5
312
100
AcDbEntity
8
0
100
AcDbLine
10
6.0886764712631702
20
5.3110502660274506
30
0
11
6.0886764712631702
21
5.4065482318401337
31
0
0
LINE
5
313
100
AcDbEntity
8
0
100
AcDbLine
10
6.0886764712631702
20
5.4065482318401337
30
0
11
6.1787176318466663
21
5.4065482318401337
31
0
0
LINE
5
314
100
AcDbEntity
8
0
100
AcDbLine
10
6.1787176318466663
20
5.4065482318401337
30
0
11
6.1787176318466663
21
5.5859477818012238
31
0
0
LINE
5
315
100
AcDbEntity
8
0
100
AcDbLine
10
6.1787176318466663
20
5.5859477818012238
30
0
11
6.3008183427155018
21
5.6596176326274872
31
0
0
LINE
5
316
100
AcDbEntity
8
0
100
AcDbLine
10
6.3008183427155018
20
5.6596176326274872
30
0
11
6.3008183427155018
21
5.4065482318401337
31
0
0
LINE
5
317
100
AcDbEntity
8
0
100
AcDbLine
10
6.3008183427155018
20
5.4065482318401337
30
0
11
6.4242839999496937
21
5.4065482318401337
31
0
0
LINE
5
318
100
AcDbEntity
8
0
100
AcDbLine
10
6.4242839999496937
20
5.4065482318401337
30
0
11
6.4242839999496937
21
5.3110502660274506
31
0
0
LINE
5
319
100
AcDbEntity
8
0
100
AcDbLine
10
6.4242839999496937
20
5.3110502660274506
30
0
11
6.3008183427155018
21
5.3110502660274506
31
0
0
LINE
5
320
100
AcDbEntity
8
0
100
AcDbLine
10
6.3008183427155018
20
5.3110502660274506
30
0
11
6.3008183427155018
21
4.8874485492706299
31
0
0
SPLINE
5
321
100
AcDbEntity
8
0
100
AcDbSpline
70
0
71
2
72
6
73
3
74
0
42
0.000000001
43
0.0000000001
44
0.0000000001
40
0
40
0
40
0
40
1
40
1
40
1
10
6.3008183427155018
20
4.8874485492706299
30
0
10
6.3008183427155018
20
4.8349246382713318
30
0
10
6.306957621127367
20
4.8199178278446198
30
0
0
SPLINE
5
322
100
AcDbEntity
8
0
100
AcDbSpline
70
0
71
2
72
6
73
3
74
0
42
0.000000001
43
0.0000000001
44
0.0000000001
40
0
40
0
40
0
40
1
40
1
40
1
10
6.306957621127367
20
4.8199178278446198
30
0
10
6.3137787766754627
20
4.8049110174179077
30
0
10
6.3281035609543324
20
4.796043336391449
30
0
0
SPLINE
5
323
100
AcDbEntity
8
0
100
AcDbSpline
70
0
71
2
72
6
73
3
74
0
42
0.000000001
43
0.0000000001
44
0.0000000001
40
0
40
0
40
0
40
1
40
1
40
1
10
6.3281035609543324
20
4.796043336391449
30
0
10
6.3431108184158802
20
4.7871758043766022
30
0
10
6.370395440608263
20
4.7871758043766022
30
0
0
SPLINE
5
324
100
AcDbEntity
8
0
100
AcDbSpline
70
0
71
2
72
6
73
3
74
0
42
0.000000001
43
0.0000000001
44
0.0000000001
40
0
40
0
40
0
40
1
40
1
40
1
10
6.370395440608263
20
4.7871758043766022
30
0
10
6.3908595032989979
20
4.7871758043766022
30
0
10
6.4242839999496937
20
4.7919505834579468
30
0
0
LINE
5
325
100
AcDbEntity
8
0
100
AcDbLine
10
0.75170526280999184
20
3.4720325469970703
30
0
11
0.88403815403580666
21
3.4386082738637924
31
0
0
SPLINE
5
326
100
AcDbEntity
8
0
100
AcDbSpline
70
0
71
2
72
6
73
3
74
0
42
0.000000001
43
0.0000000001
44
0.0000000001
40
0
40
0
40
0
40
1
40
1
40
1
10
0.88403815403580666
20
3.4386082738637924
30
0
10
0.8424283005297184
20
3.2755796331912279
30
0
10
0.73396997526288033
20
3.1896314769983292
30
0
0
SPLINE
5
327
100
AcDbEntity
8
0
100
AcDbSpline
70
0
71
2
72
6
73
3
74
0
42
0.000000001
43
0.0000000001
44
0.0000000001
40
0
40
0
40
0
40
1
40
1
40
1
10
0.73396997526288033
20
3.1896314769983292
30
0
10
0.62619367614388466
20
3.104365449398756
30
0
10
0.46998636797070503
20
3.104365449398756
30
0
0
SPLINE
5
328
100
AcDbEntity
8
0
100
AcDbSpline
70
0
71
2
72
6
73
3
74
0
42
0.000000001
43
0.0000000001
44
0.0000000001
40
0
40
0
40
0
40
1
40
1
40
1
10
0.46998636797070503
20
3.104365449398756
30
0
10
0.30832195654511452
20
3.104365449398756
30
0
10
0.20668484270572662
20
3.1698497571051121
30
0
0
SPLINE
5
329
100
AcDbEntity
8
0
100
AcDbSpline
70
0
71
2
72
6
73
3
74
0
42
0.000000001
43
0.0000000001
44
0.0000000001
40
0
40
0
40
0
40
1
40
1
40
1
10
0.20668484270572662
20
3.1698497571051121
30
0
10
0.10572986677289009
20
3.2360161934047937
30
0
10
0.052523873746395111
20
3.3608456701040268
30
0
0
SPLINE
5
330
100
AcDbEntity
8
0
100
AcDbSpline
70
0
71
2
72
6
73
3
74
0
42
0.000000001
43
0.0000000001
44
0.0000000001
40
0
40
0
40
0
40
1
40
1
40
1
10
0.052523873746395111
20
3.3608456701040268
30
0
10
0
20
3.4856751188635826
30
0
10
0
20
3.6289220303297043
30
0
0
SPLINE
5
331
100
AcDbEntity
8
0
100
AcDbSpline
70
0
71
2
72
6
73
3
74
0
42
0.000000001
43
0.0000000001
44
0.0000000001
40
0
40
0
40
0
40
1
40
1
40
1
10
0
20
3.6289220303297043
30
0
10
0
20
3.7851294130086899
30
0
10
0.05934515967965126
20
3.9010912179946899
30
0
0
SPLINE
5
332
100
AcDbEntity
8
0
100
AcDbSpline
70
0
71
2
72
6
73
3
74
0
42
0.000000001
43
0.0000000001
44
0.0000000001
40
0
40
0
40
0
40
1
40
1
40
1
10
0.05934515967965126
20
3.9010912179946899
30
0
10
0.11937243863940239
20
4.0177351981401443
30
0
10
0.22919507697224617
20
4.0777624398469925
30
0
0
SPLINE
5
333
100
AcDbEntity
8
0
100
AcDbSpline
70
0
71
2
72
6
73
3
74
0
42
0.000000001
43
0.0000000001
44
0.0000000001
40
0
40
0
40
0
40
1
40
1
40
1
10
0.22919507697224617
20
4.0777624398469925
30
0
10
0.33969985321164131
20
4.138471856713295
30
0
10
0.47203274443745613
20
4.138471856713295
30
0
0
SPLINE
5
334
100
AcDbEntity
8
0
100
AcDbSpline
70
0
71
2
72
6
73
3
74
0
42
0.000000001
43
0.0000000001
44
0.0000000001
40
0
40
0
40
0
40
1
40
1
40
1
10
0.47203274443745613
20
4.138471856713295
30
0
10
0.62210092321038246
20
4.138471856713295
30
0
10
0.72442011907696724
20
4.0620735287666321
30
0
0
SPLINE
5
335
100
AcDbEntity
8
0
100
AcDbSpline
70
0
71
2
72
6
73
3
74
0
42
0.000000001
43
0.0000000001
44
0.0000000001
40
0
40
0
40
0
40
1
40
1
40
1
10
0.72442011907696724
20
4.0620735287666321
30
0
10
0.82673938944935799
20
3.9856751263141632
30
0
10
0.86698496714234352
20
3.8472031056880951
30
0
0
LINE
5
336
100
AcDbEntity
8
0
100
AcDbLine
10
0.86698496714234352
20
3.8472031056880951
30
0
11
0.7366984523832798
21
3.8165073096752167
31
0
0
SPLINE
5
337
100
AcDbEntity
8
0
100
AcDbSpline
70
0
71
2
72
6
73
3
74
0
42
0.000000001
43
0.0000000001
44
0.0000000001
40
0
40
0
40
0
40
1
40
1
40
1
10
0.7366984523832798
20
3.8165073096752167
30
0
10
0.70190990343689919
20
3.9256478846073151
30
0
10
0.63574345782399178
20
3.9754432439804077
30
0
0
SPLINE
5
338
100
AcDbEntity
8
0
100
AcDbSpline
70
0
71
2
72
6
73
3
74
0
42
0.000000001
43
0.0000000001
44
0.0000000001
40
0
40
0
40
0
40
1
40
1
40
1
10
0.63574345782399178
20
3.9754432439804077
30
0
10
0.56957701221108437
20
4.0252386033535004
30
0
10
0.46930423006415367
20
4.0252386033535004
30
0
0
SPLINE
5
339
100
AcDbEntity
8
0
100
AcDbSpline
70
0
71
2
72
6
73
3
74
0
42
0.000000001
43
0.0000000001
44
0.0000000001
40
0
40
0
40
0
40
1
40
1
40
1
10
0.46930423006415367
20
4.0252386033535004
30
0
10
0.35402456298470497
20
4.0252386033535004
30
0
10
0.27626195922493935
20
3.9699862152338028
30
0
0
SPLINE
5
340
100
AcDbEntity
8
0
100
AcDbSpline
70
0
71
2
72
6
73
3
74
0
42
0.000000001
43
0.0000000001
44
0.0000000001
40
0
40
0
40
0
40
1
40
1
40
1
10
0.27626195922493935
20
3.9699862152338028
30
0
10
0.19918143749237061
20
3.9147338271141052
30
0
10
0.16780354082584381
20
3.8212822377681732
30
0
0
SPLINE
5
341
100
AcDbEntity
8
0
100
AcDbSpline
70
0
71
2
72
6
73
3
74
0
42
0.000000001
43
0.0000000001
44
0.0000000001
40
0
40
0
40
0
40
1
40
1
40
1
10
0.16780354082584381
20
3.8212822377681732
30
0
10
0.13642564415931702
20
3.7285127490758896
30
0
10
0.13642564415931702
20
3.6296041682362556
30
0
0
SPLINE
5
342
100
AcDbEntity
8
0
100
AcDbSpline
70
0
71
2
72
6
73
3
74
0
42
0.000000001
43
0.0000000001
44
0.0000000001
40
0
40
0
40
0
40
1
40
1
40
1
10
0.13642564415931702
20
3.6296041682362556
30
0
10
0.13642564415931702
20
3.5020462051033974
30
0
10
0.17326056957244873
20
3.4065482579171658
30
0
0
SPLINE
5
343
100
AcDbEntity
8
0
100
AcDbSpline
70
0
71
2
72
6
73
3
74
0
42
0.000000001
43
0.0000000001
44
0.0000000001
40
0
40
0
40
0
40
1
40
1
40
1
10
0.17326056957244873
20
3.4065482579171658
30
0
10
0.21077761426568031
20
3.311732430011034
30
0
10
0.28922239318490028
20
3.2646655756980181
30
0
0
SPLINE
5
344
100
AcDbEntity
8
0
100
AcDbSpline
70
0
71
2
72
6
73
3
74
0
42
0.000000001
43
0.0000000001
44
0.0000000001
40
0
40
0
40
0
40
1
40
1
40
1
10
0.28922239318490028
20
3.2646655756980181
30
0
10
0.36766713485121727
20
3.2175987306982279
30
0
10
0.45907231047749519
20
3.2175987306982279
30
0
0
SPLINE
5
345
100
AcDbEntity
8
0
100
AcDbSpline
70
0
71
2
72
6
73
3
74
0
42
0.000000001
43
0.0000000001
44
0.0000000001
40
0
40
0
40
0
40
1
40
1
40
1
10
0.45907231047749519
20
3.2175987306982279
30
0
10
0.57025918737053871
20
3.2175987306982279
30
0
10
0.64733969047665596
20
3.2817187905311584
30
0
0
SPLINE
5
346
100
AcDbEntity
8
0
100
AcDbSpline
70
0
71
2
72
6
73
3
74
0
42
0.000000001
43
0.0000000001
44
0.0000000001
40
0
40
0
40
0
40
1
40
1
40
1
10
0.64733969047665596
20
3.2817187905311584
30
0
10
0.72442011907696724
20
3.3458388410508633
30
0
10
0.75170526280999184
20
3.4720325469970703
30
0
0
LINE
5
347
100
AcDbEntity
8
0
100
AcDbLine
10
1.527284998446703
20
3.3547065034508705
30
0
11
1.6541609354317188
21
3.3390175551176071
31
0
0
SPLINE
5
348
100
AcDbEntity
8
0
100
AcDbSpline
70
0
71
2
72
6
73
3
74
0
42
0.000000001
43
0.0000000001
44
0.0000000001
40
0
40
0
40
0
40
1
40
1
40
1
10
1.6541609354317188
20
3.3390175551176071
30
0
10
1.6241473145782948
20
3.2278306595981121
30
0
10
1.5429739840328693
20
3.1664391234517097
30
0
0
SPLINE
5
349
100
AcDbEntity
8
0
100
AcDbSpline
70
0
71
2
72
6
73
3
74
0
42
0.000000001
43
0.0000000001
44
0.0000000001
40
0
40
0
40
0
40
1
40
1
40
1
10
1.5429739840328693
20
3.1664391234517097
30
0
10
1.4618008024990559
20
3.1050475686788559
30
0
10
1.3356070406734943
20
3.1050475686788559
30
0
0
SPLINE
5
350
100
AcDbEntity
8
0
100
AcDbSpline
70
0
71
2
72
6
73
3
74
0
42
0.000000001
43
0.0000000001
44
0.0000000001
40
0
40
0
40
0
40
1
40
1
40
1
10
1.3356070406734943
20
3.1050475686788559
30
0
10
1.1766711808741093
20
3.1050475686788559
30
0
10
1.0832195915281773
20
3.2025919109582901
30
0
0
SPLINE
5
351
100
AcDbEntity
8
0
100
AcDbSpline
70
0
71
2
72
6
73
3
74
0
42
0.000000001
43
0.0000000001
44
0.0000000001
40
0
40
0
40
0
40
1
40
1
40
1
10
1.0832195915281773
20
3.2025919109582901
30
0
10
0.9904501773416996
20
3.3008183725178242
30
0
10
0.9904501773416996
20
3.4774895757436752
30
0
0
SPLINE
5
352
100
AcDbEntity
8
0
100
AcDbSpline
70
0
71
2
72
6
73
3
74
0
42
0.000000001
43
0.0000000001
44
0.0000000001
40
0
40
0
40
0
40
1
40
1
40
1
10
0.9904501773416996
20
3.4774895757436752
30
0
10
0.9904501773416996
20
3.6602999269962311
30
0
10
1.08458386734128
20
3.7612549215555191
30
0
0
SPLINE
5
353
100
AcDbEntity
8
0
100
AcDbSpline
70
0
71
2
72
6
73
3
74
0
42
0.000000001
43
0.0000000001
44
0.0000000001
40
0
40
0
40
0
40
1
40
1
40
1
10
1.08458386734128
20
3.7612549215555191
30
0
10
1.1787175573408604
20
3.8622099161148071
30
0
10
1.3287857361137867
20
3.8622099161148071
30
0
0
SPLINE
5
354
100
AcDbEntity
8
0
100
AcDbSpline
70
0
71
2
72
6
73
3
74
0
42
0.000000001
43
0.0000000001
44
0.0000000001
40
0
40
0
40
0
40
1
40
1
40
1
10
1.3287857361137867
20
3.8622099161148071
30
0
10
1.4740790612995625
20
3.8622099161148071
30
0
10
1.5661663003265858
20
3.7633013725280762
30
0
0
SPLINE
5
355
100
AcDbEntity
8
0
100
AcDbSpline
70
0
71
2
72
6
73
3
74
0
42
0.000000001
43
0.0000000001
44
0.0000000001
40
0
40
0
40
0
40
1
40
1
40
1
10
1.5661663003265858
20
3.7633013725280762
30
0
10
1.658253688365221
20
3.6643927171826363
30
0
10
1.658253688365221
20
3.4849929809570312
30
0
0
SPLINE
5
356
100
AcDbEntity
8
0
100
AcDbSpline
70
0
71
2
72
6
73
3
74
0
42
0.000000001
43
0.0000000001
44
0.0000000001
40
0
40
0
40
0
40
1
40
1
40
1
10
1.658253688365221
20
3.4849929809570312
30
0
10
1.658253688365221
20
3.4740789234638214
30
0
10
1.6575715132057667
20
3.4522508457303047
30
0
0
LINE
5
357
100
AcDbEntity
8
0
100
AcDbLine
10
1.6575715132057667
20
3.4522508457303047
30
0
11
1.1173260398209095
21
3.4522508457303047
31
0
0
SPLINE
5
358
100
AcDbEntity
8
0
100
AcDbSpline
70
0
71
2
72
6
73
3
74
0
42
0.000000001
43
0.0000000001
44
0.0000000001
40
0
40
0
40
0
40
1
40
1
40
1
10
1.1173260398209095
20
3.4522508457303047
30
0
10
1.1241472698748112
20
3.3328784070909023
30
0
10
1.1848567612469196
20
3.2694404851645231
30
0
0
SPLINE
5
359
100
AcDbEntity
8
0
100
AcDbSpline
70
0
71
2
72
6
73
3
74
0
42
0.000000001
43
0.0000000001
44
0.0000000001
40
0
40
0
40
0
40
1
40
1
40
1
10
1.1848567612469196
20
3.2694404851645231
30
0
10
1.2455661781132221
20
3.2060025539249182
30
0
10
1.3362892158329487
20
3.2060025539249182
30
0
0
SPLINE
5
360
100
AcDbEntity
8
0
100
AcDbSpline
70
0
71
2
72
6
73
3
74
0
42
0.000000001
43
0.0000000001
44
0.0000000001
40
0
40
0
40
0
40
1
40
1
40
1
10
1.3362892158329487
20
3.2060025539249182
30
0
10
1.4038199372589588
20
3.2060025539249182
30
0
10
1.4515689201653004
20
3.2414732221513987
30
0
0
SPLINE
5
361
100
AcDbEntity
8
0
100
AcDbSpline
70
0
71
2
72
6
73
3
74
0
42
0.000000001
43
0.0000000001
44
0.0000000001
40
0
40
0
40
0
40
1
40
1
40
1
10
1.4515689201653004
20
3.2414732221513987
30
0
10
1.4993179030716419
20
3.2769438903778791
30
0
10
1.527284998446703
20
3.3547065034508705
30
0
0
LINE
5
362
100
AcDbEntity
8
0
100
AcDbLine
10
1.1241472698748112
20
3.5532058030366898
30
0
11
1.5286493487656116
21
3.5532058030366898
31
0
0
SPLINE
5
363
100
AcDbEntity
8
0
100
AcDbSpline
70
0
71
2
72
6
73
3
74
0
42
0.000000001
43
0.0000000001
44
0.0000000001
40
0
40
0
40
0
40
1
40
1
40
1
10
1.5286493487656116
20
3.5532058030366898
30
0
10
1.5204638428986073
20
3.6446109786629677
30
0
10
1.4822645671665668
20
3.6903135851025581
30
0
0
SPLINE
5
364
100
AcDbEntity
8
0
100
AcDbSpline
70
0
71
2
72
6
73
3
74
0
42
0.000000001
43
0.0000000001
44
0.0000000001
40
0
40
0
40
0
40
1
40
1
40
1
10
1.4822645671665668
20
3.6903135851025581
30
0
10
1.4236015267670155
20
3.7612549215555191
30
0
10
1.3301500864326954
20
3.7612549215555191
30
0
0
SPLINE
5
365
100
AcDbEntity
8
0
100
AcDbSpline
70
0
71
2
72
6
73
3
74
0
42
0.000000001
43
0.0000000001
44
0.0000000001
40
0
40
0
40
0
40
1
40
1
40
1
10
1.3301500864326954
20
3.7612549215555191
30
0
10
1.2455661781132221
20
3.7612549215555191
30
0
10
1.1875851638615131
20
3.7046382576227188
30
0
0
SPLINE
5
366
100
AcDbEntity
8
0
100
AcDbSpline
70
0
71
2
72
6
73
3
74
0
42
0.000000001
43
0.0000000001
44
0.0000000001
40
0
40
0
40
0
40
1
40
1
40
1
10
1.1875851638615131
20
3.7046382576227188
30
0
10
1.1302864737808704
20
3.6480216309428215
30
0
10
1.1241472698748112
20
3.5532058030366898
30
0
0
LINE
5
367
100
AcDbEntity
8
0
100
AcDbLine
10
1.8083217926323414
20
3.1214186549186707
30
0
11
1.8083217926323414
21
3.8458388298749924
31
0
0
LINE
5
368
100
AcDbEntity
8
0
100
AcDbLine
10
1.8083217926323414
20
3.8458388298749924
30
0
11
1.9188265688717365
21
3.8458388298749924
31
0
0
LINE
5
369
100
AcDbEntity
8
0
100
AcDbLine
10
1.9188265688717365
20
3.8458388298749924
30
0
11
1.9188265688717365
21
3.7428374588489532
31
0
0
SPLINE
5
370
100
AcDbEntity
8
0
100
AcDbSpline
70
0
71
2
72
6
73
3
74
0
42
0.000000001
43
0.0000000001
44
0.0000000001
40
0
40
0
40
0
40
1
40
1
40
1
10
1.9188265688717365
20
3.7428374588489532
30
0
10
1.9986355490982533
20
3.8622099161148071
30
0
10
2.1493859775364399
20
3.8622099161148071
30
0
0
SPLINE
5
371
100
AcDbEntity
8
0
100
AcDbSpline
70
0
71
2
72
6
73
3
74
0
42
0.000000001
43
0.0000000001
44
0.0000000001
40
0
40
0
40
0
40
1
40
1
40
1
10
2.1493859775364399
20
3.8622099161148071
30
0
10
2.2148703224956989
20
3.8622099161148071
30
0
10
2.2694406099617481
20
3.8383354246616364
30
0
0
SPLINE
5
372
100
AcDbEntity
8
0
100
AcDbSpline
70
0
71
2
72
6
73
3
74
0
42
0.000000001
43
0.0000000001
44
0.0000000001
40
0
40
0
40
0
40
1
40
1
40
1
10
2.2694406099617481
20
3.8383354246616364
30
0
10
2.3246929235756397
20
3.815143033862114
30
0
10
2.3519781418144703
20
3.7769439071416855
30
0
0
SPLINE
5
373
100
AcDbEntity
8
0
100
AcDbSpline
70
0
71
2
72
6
73
3
74
0
42
0.000000001
43
0.0000000001
44
0.0000000001
40
0
40
0
40
0
40
1
40
1
40
1
10
2.3519781418144703
20
3.7769439071416855
30
0
10
2.3792632110416889
20
3.738744705915451
30
0
10
2.3901772685348988
20
3.6862208321690559
30
0
0
SPLINE
5
374
100
AcDbEntity
8
0
100
AcDbSpline
70
0
71
2
72
6
73
3
74
0
42
0.000000001
43
0.0000000001
44
0.0000000001
40
0
40
0
40
0
40
1
40
1
40
1
10
2.3901772685348988
20
3.6862208321690559
30
0
10
2.3969984240829945
20
3.6521144211292267
30
0
10
2.3969984240829945
20
3.5668483749032021
30
0
0
LINE
5
375
100
AcDbEntity
8
0
100
AcDbLine
10
2.3969984240829945
20
3.5668483749032021
30
0
11
2.3969984240829945
21
3.1214186549186707
31
0
0
LINE
5
376
100
AcDbEntity
8
0
100
AcDbLine
10
2.3969984240829945
20
3.1214186549186707
30
0
11
2.2742153890430927
21
3.1214186549186707
31
0
0
LINE
5
377
100
AcDbEntity
8
0
100
AcDbLine
10
2.2742153890430927
20
3.1214186549186707
30
0
11
2.2742153890430927
21
3.5620734840631485
31
0
0
SPLINE
5
378
100
AcDbEntity
8
0
100
AcDbSpline
70
0
71
2
72
6
73
3
74
0
42
0.000000001
43
0.0000000001
44
0.0000000001
40
0
40
0
40
0
40
1
40
1
40
1
10
2.2742153890430927
20
3.5620734840631485
30
0
10
2.2742153890430927
20
3.6371076107025146
30
0
10
2.259890753775835
20
3.6739425361156464
30
0
0
SPLINE
5
379
100
AcDbEntity
8
0
100
AcDbSpline
70
0
71
2
72
6
73
3
74
0
42
0.000000001
43
0.0000000001
44
0.0000000001
40
0
40
0
40
0
40
1
40
1
40
1
10
2.259890753775835
20
3.6739425361156464
30
0
10
2.2455659694969654
20
3.7114595621824265
30
0
10
2.2087311930954456
20
3.7332876771688461
30
0
0
SPLINE
5
380
100
AcDbEntity
8
0
100
AcDbSpline
70
0
71
2
72
6
73
3
74
0
42
0.000000001
43
0.0000000001
44
0.0000000001
40
0
40
0
40
0
40
1
40
1
40
1
10
2.2087311930954456
20
3.7332876771688461
30
0
10
2.1725782938301563
20
3.7557978928089142
30
0
10
2.123465109616518
20
3.7557978928089142
30
0
0
SPLINE
5
381
100
AcDbEntity
8
0
100
AcDbSpline
70
0
71
2
72
6
73
3
74
0
42
0.000000001
43
0.0000000001
44
0.0000000001
40
0
40
0
40
0
40
1
40
1
40
1
10
2.123465109616518
20
3.7557978928089142
30
0
10
2.045020330697298
20
3.7557978928089142
30
0
10
1.9877216406166553
20
3.7060025334358215
30
0
0
SPLINE
5
382
100
AcDbEntity
8
0
100
AcDbSpline
70
0
71
2
72
6
73
3
74
0
42
0.000000001
43
0.0000000001
44
0.0000000001
40
0
40
0
40
0
40
1
40
1
40
1
10
1.9877216406166553
20
3.7060025334358215
30
0
10
1.9311049766838551
20
3.6562071740627289
30
0
10
1.9311049766838551
20
3.5170530155301094
30
0
0
LINE
5
383
100
AcDbEntity
8
0
100
AcDbLine
10
1.9311049766838551
20
3.5170530155301094
30
0
11
1.9311049766838551
21
3.1214186549186707
31
0
0
LINE
5
384
100
AcDbEntity
8
0
100
AcDbLine
10
1.9311049766838551
20
3.1214186549186707
30
0
11
1.8083217926323414
21
3.1214186549186707
31
0
0
LINE
5
385
100
AcDbEntity
8
0
100
AcDbLine
10
2.8533420152962208
20
3.2312413025647402
30
0
11
2.8710773773491383
21
3.1227829121053219
31
0
0
SPLINE
5
386
100
AcDbEntity
8
0
100
AcDbSpline
70
0
71
2
72
6
73
3
74
0
42
0.000000001
43
0.0000000001
44
0.0000000001
40
0
40
0
40
0
40
1
40
1
40
1
10
2.8710773773491383
20
3.1227829121053219
30
0
10
2.8192356415092945
20
3.1118688639253378
30
0
10
2.7783081121742725
20
3.1118688639253378
30
0
0
SPLINE
5
387
100
AcDbEntity
8
0
100
AcDbSpline
70
0
71
2
72
6
73
3
74
0
42
0.000000001
43
0.0000000001
44
0.0000000001
40
0
40
0
40
0
40
1
40
1
40
1
10
2.7783081121742725
20
3.1118688639253378
30
0
10
2.7114594168961048
20
3.1118688639253378
30
0
10
2.674624640494585
20
3.1330148316919804
30
0
0
SPLINE
5
388
100
AcDbEntity
8
0
100
AcDbSpline
70
0
71
2
72
6
73
3
74
0
42
0.000000001
43
0.0000000001
44
0.0000000001
40
0
40
0
40
0
40
1
40
1
40
1
10
2.674624640494585
20
3.1330148316919804
30
0
10
2.6377895660698414
20
3.1541608087718487
30
0
10
2.6227829046547413
20
3.1882672198116779
30
0
0
SPLINE
5
389
100
AcDbEntity
8
0
100
AcDbSpline
70
0
71
2
72
6
73
3
74
0
42
0.000000001
43
0.0000000001
44
0.0000000001
40
0
40
0
40
0
40
1
40
1
40
1
10
2.6227829046547413
20
3.1882672198116779
30
0
10
2.6077759452164173
20
3.2230557594448328
30
0
10
2.6077759452164173
20
3.3335605263710022
30
0
0
LINE
5
390
100
AcDbEntity
8
0
100
AcDbLine
10
2.6077759452164173
20
3.3335605263710022
30
0
11
2.6077759452164173
21
3.7503408640623093
31
0
0
LINE
5
391
100
AcDbEntity
8
0
100
AcDbLine
10
2.6077759452164173
20
3.7503408640623093
30
0
11
2.5177350826561451
21
3.7503408640623093
31
0
0
LINE
5
392
100
AcDbEntity
8
0
100
AcDbLine
10
2.5177350826561451
20
3.7503408640623093
30
0
11
2.5177350826561451
21
3.8458388298749924
31
0
0
LINE
5
393
100
AcDbEntity
8
0
100
AcDbLine
10
2.5177350826561451
20
3.8458388298749924
30
0
11
2.6077759452164173
21
3.8458388298749924
31
0
0
LINE
5
394
100
AcDbEntity
8
0
100
AcDbLine
10
2.6077759452164173
20
3.8458388298749924
30
0
11
2.6077759452164173
21
4.0252385288476944
31
0
0
LINE
5
395
100
AcDbEntity
8
0
100
AcDbLine
10
2.6077759452164173
20
4.0252385288476944
30
0
11
2.7298769541084766
21
4.0989083796739578
31
0
0
LINE
5
396
100
AcDbEntity
8
0
100
AcDbLine
10
2.7298769541084766
20
4.0989083796739578
30
0
11
2.7298769541084766
21
3.8458388298749924
31
0
0
LINE
5
397
100
AcDbEntity
8
0
100
AcDbLine
10
2.7298769541084766
20
3.8458388298749924
30
0
11
2.8533420152962208
21
3.8458388298749924
31
0
0
LINE
5
398
100
AcDbEntity
8
0
100
AcDbLine
10
2.8533420152962208
20
3.8458388298749924
30
0
11
2.8533420152962208
21
3.7503408640623093
31
0
0
LINE
5
399
100
AcDbEntity
8
0
100
AcDbLine
10
2.8533420152962208
20
3.7503408640623093
30
0
11
2.7298769541084766
21
3.7503408640623093
31
0
0
LINE
5
400
100
AcDbEntity
8
0
100
AcDbLine
10
2.7298769541084766
20
3.7503408640623093
30
0
11
2.7298769541084766
21
3.3267392590641975
31
0
0
SPLINE
5
401
100
AcDbEntity
8
0
100
AcDbSpline
70
0
71
2
72
6
73
3
74
0
42
0.000000001
43
0.0000000001
44
0.0000000001
40
0
40
0
40
0
40
1
40
1
40
1
10
2.7298769541084766
20
3.3267392590641975
30
0
10
2.7298769541084766
20
3.2742153760045767
30
0
10
2.736015934497118
20
3.2592085562646389
30
0
0
SPLINE
5
402
100
AcDbEntity
8
0
100
AcDbSpline
70
0
71
2
72
6
73
3
74
0
42
0.000000001
43
0.0000000001
44
0.0000000001
40
0
40
0
40
0
40
1
40
1
40
1
10
2.736015934497118
20
3.2592085562646389
30
0
10
2.7428373880684376
20
3.2442017365247011
30
0
10
2.7571621723473072
20
3.2353340648114681
30
0
0
SPLINE
5
403
100
AcDbEntity
8
0
100
AcDbSpline
70
0
71
2
72
6
73
3
74
0
42
0.000000001
43
0.0000000001
44
0.0000000001
40
0
40
0
40
0
40
1
40
1
40
1
10
2.7571621723473072
20
3.2353340648114681
30
0
10
2.7721688337624073
20
3.2264664024114609
30
0
10
2.7994540520012379
20
3.2264664024114609
30
0
0
SPLINE
5
404
100
AcDbEntity
8
0
100
AcDbSpline
70
0
71
2
72
6
73
3
74
0
42
0.000000001
43
0.0000000001
44
0.0000000001
40
0
40
0
40
0
40
1
40
1
40
1
10
2.7994540520012379
20
3.2264664024114609
30
0
10
2.8199178166687489
20
3.2264664024114609
30
0
10
2.8533420152962208
20
3.2312413025647402
30
0
0
LINE
5
405
100
AcDbEntity
8
0
100
AcDbLine
10
3.4693041630089283
20
3.3547065034508705
30
0
11
3.5961800999939442
21
3.3390175551176071
31
0
0
SPLINE
5
406
100
AcDbEntity
8
0
100
AcDbSpline
70
0
71
2
72
6
73
3
74
0
42
0.000000001
43
0.0000000001
44
0.0000000001
40
0
40
0
40
0
40
1
40
1
40
1
10
3.5961800999939442
20
3.3390175551176071
30
0
10
3.5661664791405201
20
3.2278306595981121
30
0
10
3.4849929995834827
20
3.1664391234517097
30
0
0
SPLINE
5
407
100
AcDbEntity
8
0
100
AcDbSpline
70
0
71
2
72
6
73
3
74
0
42
0.000000001
43
0.0000000001
44
0.0000000001
40
0
40
0
40
0
40
1
40
1
40
1
10
3.4849929995834827
20
3.1664391234517097
30
0
10
3.4038198180496693
20
3.1050475686788559
30
0
10
3.2776260562241077
20
3.1050475686788559
30
0
0
SPLINE
5
408
100
AcDbEntity
8
0
100
AcDbSpline
70
0
71
2
72
6
73
3
74
0
42
0.000000001
43
0.0000000001
44
0.0000000001
40
0
40
0
40
0
40
1
40
1
40
1
10
3.2776260562241077
20
3.1050475686788559
30
0
10
3.1186902709305286
20
3.1050475686788559
30
0
10
3.0252388305962086
20
3.2025919109582901
30
0
0
SPLINE
5
409
100
AcDbEntity
8
0
100
AcDbSpline
70
0
71
2
72
6
73
3
74
0
42
0.000000001
43
0.0000000001
44
0.0000000001
40
0
40
0
40
0
40
1
40
1
40
1
10
3.0252388305962086
20
3.2025919109582901
30
0
10
2.932469267398119
20
3.3008183725178242
30
0
10
2.932469267398119
20
3.4774895757436752
30
0
0
SPLINE
5
410
100
AcDbEntity
8
0
100
AcDbSpline
70
0
71
2
72
6
73
3
74
0
42
0.000000001
43
0.0000000001
44
0.0000000001
40
0
40
0
40
0
40
1
40
1
40
1
10
2.932469267398119
20
3.4774895757436752
30
0
10
2.932469267398119
20
3.6602999269962311
30
0
10
3.0266028828918934
20
3.7612549215555191
30
0
0
SPLINE
5
411
100
AcDbEntity
8
0
100
AcDbSpline
70
0
71
2
72
6
73
3
74
0
42
0.000000001
43
0.0000000001
44
0.0000000001
40
0
40
0
40
0
40
1
40
1
40
1
10
3.0266028828918934
20
3.7612549215555191
30
0
10
3.1207364983856678
20
3.8622099161148071
30
0
10
3.270804900676012
20
3.8622099161148071
30
0
0
SPLINE
5
412
100
AcDbEntity
8
0
100
AcDbSpline
70
0
71
2
72
6
73
3
74
0
42
0.000000001
43
0.0000000001
44
0.0000000001
40
0
40
0
40
0
40
1
40
1
40
1
10
3.270804900676012
20
3.8622099161148071
30
0
10
3.4160980768501759
20
3.8622099161148071
30
0
10
3.5081854648888111
20
3.7633013725280762
30
0
0
SPLINE
5
413
100
AcDbEntity
8
0
100
AcDbSpline
70
0
71
2
72
6
73
3
74
0
42
0.000000001
43
0.0000000001
44
0.0000000001
40
0
40
0
40
0
40
1
40
1
40
1
10
3.5081854648888111
20
3.7633013725280762
30
0
10
3.6002728529274464
20
3.6643927171826363
30
0
10
3.6002728529274464
20
3.4849929809570312
30
0
0
SPLINE
5
414
100
AcDbEntity
8
0
100
AcDbSpline
70
0
71
2
72
6
73
3
74
0
42
0.000000001
43
0.0000000001
44
0.0000000001
40
0
40
0
40
0
40
1
40
1
40
1
10
3.6002728529274464
20
3.4849929809570312
30
0
10
3.6002728529274464
20
3.4740789234638214
30
0
10
3.599590677767992
20
3.4522508457303047
30
0
0
LINE
5
415
100
AcDbEntity
8
0
100
AcDbLine
10
3.599590677767992
20
3.4522508457303047
30
0
11
3.0593452043831348
21
3.4522508457303047
31
0
0
SPLINE
5
416
100
AcDbEntity
8
0
100
AcDbSpline
70
0
71
2
72
6
73
3
74
0
42
0.000000001
43
0.0000000001
44
0.0000000001
40
0
40
0
40
0
40
1
40
1
40
1
10
3.0593452043831348
20
3.4522508457303047
30
0
10
3.0661663599312305
20
3.3328784070909023
30
0
10
3.126875776797533
20
3.2694404851645231
30
0
0
SPLINE
5
417
100
AcDbEntity
8
0
100
AcDbSpline
70
0
71
2
72
6
73
3
74
0
42
0.000000001
43
0.0000000001
44
0.0000000001
40
0
40
0
40
0
40
1
40
1
40
1
10
3.126875776797533
20
3.2694404851645231
30
0
10
3.1875851936638355
20
3.2060025539249182
30
0
10
3.2783082313835621
20
3.2060025539249182
30
0
0
SPLINE
5
418
100
AcDbEntity
8
0
100
AcDbSpline
70
0
71
2
72
6
73
3
74
0
42
0.000000001
43
0.0000000001
44
0.0000000001
40
0
40
0
40
0
40
1
40
1
40
1
10
3.2783082313835621
20
3.2060025539249182
30
0
10
3.3458388037979603
20
3.2060025539249182
30
0
10
3.3935880847275257
20
3.2414732221513987
30
0
0
SPLINE
5
419
100
AcDbEntity
8
0
100
AcDbSpline
70
0
71
2
72
6
73
3
74
0
42
0.000000001
43
0.0000000001
44
0.0000000001
40
0
40
0
40
0
40
1
40
1
40
1
10
3.3935880847275257
20
3.2414732221513987
30
0
10
3.4413367696106434
20
3.2769438903778791
30
0
10
3.4693041630089283
20
3.3547065034508705
30
0
0
LINE
5
420
100
AcDbEntity
8
0
100
AcDbLine
10
3.0661663599312305
20
3.5532058030366898
30
0
11
3.470668513327837
21
3.5532058030366898
31
0
0
SPLINE
5
421
100
AcDbEntity
8
0
100
AcDbSpline
70
0
71
2
72
6
73
3
74
0
42
0.000000001
43
0.0000000001
44
0.0000000001
40
0
40
0
40
0
40
1
40
1
40
1
10
3.470668513327837
20
3.5532058030366898
30
0
10
3.4624830074608326
20
3.6446109786629677
30
0
10
3.4242835827171803
20
3.6903135851025581
30
0
0
SPLINE
5
422
100
AcDbEntity
8
0
100
AcDbSpline
70
0
71
2
72
6
73
3
74
0
42
0.000000001
43
0.0000000001
44
0.0000000001
40
0
40
0
40
0
40
1
40
1
40
1
10
3.4242835827171803
20
3.6903135851025581
30
0
10
3.3656206913292408
20
3.7612549215555191
30
0
10
3.2721692509949207
20
3.7612549215555191
30
0
0
SPLINE
5
423
100
AcDbEntity
8
0
100
AcDbSpline
70
0
71
2
72
6
73
3
74
0
42
0.000000001
43
0.0000000001
44
0.0000000001
40
0
40
0
40
0
40
1
40
1
40
1
10
3.2721692509949207
20
3.7612549215555191
30
0
10
3.1875851936638355
20
3.7612549215555191
30
0
10
3.1296041794121265
20
3.7046382576227188
30
0
0
SPLINE
5
424
100
AcDbEntity
8
0
100
AcDbSpline
70
0
71
2
72
6
73
3
74
0
42
0.000000001
43
0.0000000001
44
0.0000000001
40
0
40
0
40
0
40
1
40
1
40
1
10
3.1296041794121265
20
3.7046382576227188
30
0
10
3.0723056383430958
20
3.6480216309428215
30
0
10
3.0661663599312305
20
3.5532058030366898
30
0
0
LINE
5
425
100
AcDbEntity
8
0
100
AcDbLine
10
3.7489769048988819
20
3.1214186549186707
30
0
11
3.7489769048988819
21
3.8458388298749924
31
0
0
LINE
5
426
100
AcDbEntity
8
0
100
AcDbLine
10
3.7489769048988819
20
3.8458388298749924
30
0
11
3.8594815321266651
21
3.8458388298749924
31
0
0
LINE
5
427
100
AcDbEntity
8
0
100
AcDbLine
10
3.8594815321266651
20
3.8458388298749924
30
0
11
3.8594815321266651
21
3.7360161915421486
31
0
0
SPLINE
5
428
100
AcDbEntity
8
0
100
AcDbSpline
70
0
71
2
72
6
73
3
74
0
42
0.000000001
43
0.0000000001
44
0.0000000001
40
0
40
0
40
0
40
1
40
1
40
1
10
3.8594815321266651
20
3.7360161915421486
30
0
10
3.9017734117805958
20
3.8130966573953629
30
0
10
3.9372441358864307
20
3.837653324007988
30
0
0
SPLINE
5
429
100
AcDbEntity
8
0
100
AcDbSpline
70
0
71
2
72
6
73
3
74
0
42
0.000000001
43
0.0000000001
44
0.0000000001
40
0
40
0
40
0
40
1
40
1
40
1
10
3.9372441358864307
20
3.837653324007988
30
0
10
3.97339703515172
20
3.8622099161148071
30
0
10
4.0163710899651051
20
3.8622099161148071
30
0
0
SPLINE
5
430
100
AcDbEntity
8
0
100
AcDbSpline
70
0
71
2
72
6
73
3
74
0
42
0.000000001
43
0.0000000001
44
0.0000000001
40
0
40
0
40
0
40
1
40
1
40
1
10
4.0163710899651051
20
3.8622099161148071
30
0
10
4.0784448571503162
20
3.8622099161148071
30
0
10
4.1425648517906666
20
3.82264643907547
30
0
0
LINE
5
431
100
AcDbEntity
8
0
100
AcDbLine
10
4.1425648517906666
20
3.82264643907547
30
0
11
4.100272674113512
21
3.708731047809124
31
0
0
SPLINE
5
432
100
AcDbEntity
8
0
100
AcDbSpline
70
0
71
2
72
6
73
3
74
0
42
0.000000001
43
0.0000000001
44
0.0000000001
40
0
40
0
40
0
40
1
40
1
40
1
10
4.100272674113512
20
3.708731047809124
30
0
10
4.0552523918449879
20
3.7353340536355972
30
0
10
4.0102318115532398
20
3.7353340536355972
30
0
0
SPLINE
5
433
100
AcDbEntity
8
0
100
AcDbSpline
70
0
71
2
72
6
73
3
74
0
42
0.000000001
43
0.0000000001
44
0.0000000001
40
0
40
0
40
0
40
1
40
1
40
1
10
4.0102318115532398
20
3.7353340536355972
30
0
10
3.9699864573776722
20
3.7353340536355972
30
0
10
3.9379263110458851
20
3.7107774615287781
30
0
0
SPLINE
5
434
100
AcDbEntity
8
0
100
AcDbSpline
70
0
71
2
72
6
73
3
74
0
42
0.000000001
43
0.0000000001
44
0.0000000001
40
0
40
0
40
0
40
1
40
1
40
1
10
3.9379263110458851
20
3.7107774615287781
30
0
10
3.905866164714098
20
3.6869029700756073
30
0
10
3.8922238536179066
20
3.6439288780093193
30
0
0
SPLINE
5
435
100
AcDbEntity
8
0
100
AcDbSpline
70
0
71
2
72
6
73
3
74
0
42
0.000000001
43
0.0000000001
44
0.0000000001
40
0
40
0
40
0
40
1
40
1
40
1
10
3.8922238536179066
20
3.6439288780093193
30
0
10
3.8717597909271717
20
3.5784445703029633
30
0
10
3.8717597909271717
20
3.5006819665431976
30
0
0
LINE
5
436
100
AcDbEntity
8
0
100
AcDbLine
10
3.8717597909271717
20
3.5006819665431976
30
0
11
3.8717597909271717
21
3.1214186549186707
31
0
0
LINE
5
437
100
AcDbEntity
8
0
100
AcDbLine
10
3.8717597909271717
20
3.1214186549186707
30
0
11
3.7489769048988819
21
3.1214186549186707
31
0
0
SPLINE
5
438
100
AcDbEntity
8
0
100
AcDbSpline
70
0
71
2
72
6
73
3
74
0
42
0.000000001
43
0.0000000001
44
0.0000000001
40
0
40
0
40
0
40
1
40
1
40
1
10
4.838335532695055
20
2.8274213895201683
30
0
10
4.7366982884705067
20
2.9556614905595779
30
0
10
4.666439313441515
20
3.1275578122586012
30
0
0
SPLINE
5
439
100
AcDbEntity
8
0
100
AcDbSpline
70
0
71
2
72
6
73
3
74
0
42
0.000000001
43
0.0000000001
44
0.0000000001
40
0
40
0
40
0
40
1
40
1
40
1
10
4.666439313441515
20
3.1275578122586012
30
0
10
4.5961800403892994
20
3.2994541153311729
30
0
10
4.5961800403892994
20
3.4836287423968315
30
0
0
SPLINE
5
440
100
AcDbEntity
8
0
100
AcDbSpline
70
0
71
2
72
6
73
3
74
0
42
0.000000001
43
0.0000000001
44
0.0000000001
40
0
40
0
40
0
40
1
40
1
40
1
10
4.5961800403892994
20
3.4836287423968315
30
0
10
4.5961800403892994
20
3.6459752917289734
30
0
10
4.6487039513885975
20
3.794679194688797
30
0
0
SPLINE
5
441
100
AcDbEntity
8
0
100
AcDbSpline
70
0
71
2
72
6
73
3
74
0
42
0.000000001
43
0.0000000001
44
0.0000000001
40
0
40
0
40
0
40
1
40
1
40
1
10
4.6487039513885975
20
3.794679194688797
30
0
10
4.7100955434143543
20
3.9672576636075974
30
0
10
4.838335532695055
20
4.138471856713295
30
0
0
LINE
5
442
100
AcDbEntity
8
0
100
AcDbLine
10
4.838335532695055
20
4.138471856713295
30
0
11
4.9263301678001881
21
4.138471856713295
31
0
0
SPLINE
5
443
100
AcDbEntity
8
0
100
AcDbSpline
70
0
71
2
72
6
73
3
74
0
42
0.000000001
43
0.0000000001
44
0.0000000001
40
0
40
0
40
0
40
1
40
1
40
1
10
4.9263301678001881
20
4.138471856713295
30
0
10
4.8437926359474659
20
3.996589183807373
30
0
10
4.8171895928680897
20
3.9358797669410706
30
0
0
SPLINE
5
444
100
AcDbEntity
8
0
100
AcDbSpline
70
0
71
2
72
6
73
3
74
0
42
0.000000001
43
0.0000000001
44
0.0000000001
40
0
40
0
40
0
40
1
40
1
40
1
10
4.8171895928680897
20
3.9358797669410706
30
0
10
4.7755795903503895
20
3.8417460769414902
30
0
10
4.7517052479088306
20
3.7394268438220024
30
0
0
SPLINE
5
445
100
AcDbEntity
8
0
100
AcDbSpline
70
0
71
2
72
6
73
3
74
0
42
0.000000001
43
0.0000000001
44
0.0000000001
40
0
40
0
40
0
40
1
40
1
40
1
10
4.7517052479088306
20
3.7394268438220024
30
0
10
4.7223738022148609
20
3.6118688806891441
30
0
10
4.7223738022148609
20
3.4829466417431831
30
0
0
SPLINE
5
446
100
AcDbEntity
8
0
100
AcDbSpline
70
0
71
2
72
6
73
3
74
0
42
0.000000001
43
0.0000000001
44
0.0000000001
40
0
40
0
40
0
40
1
40
1
40
1
10
4.7223738022148609
20
3.4829466417431831
30
0
10
4.7223738022148609
20
3.1548429373651743
30
0
10
4.9263301678001881
20
2.8274213895201683
30
0
0
LINE
5
447
100
AcDbEntity
8
0
100
AcDbLine
10
4.9263301678001881
20
2.8274213895201683
30
0
11
4.838335532695055
21
2.8274213895201683
31
0
0
LINE
5
448
100
AcDbEntity
8
0
100
AcDbLine
10
5.0845837779343128
20
3.1214186549186707
30
0
11
5.0845837779343128
21
4.1214186698198318
31
0
0
LINE
5
449
100
AcDbEntity
8
0
100
AcDbLine
10
5.0845837779343128
20
4.1214186698198318
30
0
11
5.4618007130920887
21
4.1214186698198318
31
0
0
SPLINE
5
450
100
AcDbEntity
8
0
100
AcDbSpline
70
0
71
2
72
6
73
3
74
0
42
0.000000001
43
0.0000000001
44
0.0000000001
40
0
40
0
40
0
40
1
40
1
40
1
10
5.4618007130920887
20
4.1214186698198318
30
0
10
5.5613917298614979
20
4.1214186698198318
30
0
10
5.6139153428375721
20
4.1118688136339188
30
0
0
SPLINE
5
451
100
AcDbEntity
8
0
100
AcDbSpline
70
0
71
2
72
6
73
3
74
0
42
0.000000001
43
0.0000000001
44
0.0000000001
40
0
40
0
40
0
40
1
40
1
40
1
10
5.6139153428375721
20
4.1118688136339188
30
0
10
5.6875854916870594
20
4.0995905548334122
30
0
10
5.7373804040253162
20
4.0648020058870316
30
0
0
SPLINE
5
452
100
AcDbEntity
8
0
100
AcDbSpline
70
0
71
2
72
6
73
3
74
0
42
0.000000001
43
0.0000000001
44
0.0000000001
40
0
40
0
40
0
40
1
40
1
40
1
10
5.7373804040253162
20
4.0648020058870316
30
0
10
5.7871759124100208
20
4.0306955575942993
30
0
10
5.8171898312866688
20
3.9686219394207001
30
0
0
SPLINE
5
453
100
AcDbEntity
8
0
100
AcDbSpline
70
0
71
2
72
6
73
3
74
0
42
0.000000001
43
0.0000000001
44
0.0000000001
40
0
40
0
40
0
40
1
40
1
40
1
10
5.8171898312866688
20
3.9686219394207001
30
0
10
5.8478856272995472
20
3.9065482467412949
30
0
10
5.8478856272995472
20
3.8321962952613831
30
0
0
SPLINE
5
454
100
AcDbEntity
8
0
100
AcDbSpline
70
0
71
2
72
6
73
3
74
0
42
0.000000001
43
0.0000000001
44
0.0000000001
40
0
40
0
40
0
40
1
40
1
40
1
10
5.8478856272995472
20
3.8321962952613831
30
0
10
5.8478856272995472
20
3.7046382948756218
30
0
10
5.766711849719286
20
3.6159616336226463
30
0
0
SPLINE
5
455
100
AcDbEntity
8
0
100
AcDbSpline
70
0
71
2
72
6
73
3
74
0
42
0.000000001
43
0.0000000001
44
0.0000000001
40
0
40
0
40
0
40
1
40
1
40
1
10
5.766711849719286
20
3.6159616336226463
30
0
10
5.6855386681854725
20
3.5279670730233192
30
0
10
5.4733967967331409
20
3.5279670730233192
30
0
0
LINE
5
456
100
AcDbEntity
8
0
100
AcDbLine
10
5.4733967967331409
20
3.5279670730233192
30
0
11
5.2169168181717396
21
3.5279670730233192
31
0
0
LINE
5
457
100
AcDbEntity
8
0
100
AcDbLine
10
5.2169168181717396
20
3.5279670730233192
30
0
11
5.2169168181717396
21
3.1214186549186707
31
0
0
LINE
5
458
100
AcDbEntity
8
0
100
AcDbLine
10
5.2169168181717396
20
3.1214186549186707
30
0
11
5.0845837779343128
21
3.1214186549186707
31
0
0
LINE
5
459
100
AcDbEntity
8
0
100
AcDbLine
10
5.2169168181717396
20
3.6459752544760704
30
0
11
5.4754436202347279
21
3.6459752544760704
31
0
0
SPLINE
5
460
100
AcDbEntity
8
0
100
AcDbSpline
70
0
71
2
72
6
73
3
74
0
42
0.000000001
43
0.0000000001
44
0.0000000001
40
0
40
0
40
0
40
1
40
1
40
1
10
5.4754436202347279
20
3.6459752544760704
30
0
10
5.6036836095154285
20
3.6459752544760704
30
0
10
5.6575715728104115
20
3.693724237382412
30
0
0
SPLINE
5
461
100
AcDbEntity
8
0
100
AcDbSpline
70
0
71
2
72
6
73
3
74
0
42
0.000000001
43
0.0000000001
44
0.0000000001
40
0
40
0
40
0
40
1
40
1
40
1
10
5.6575715728104115
20
3.693724237382412
30
0
10
5.7114595361053944
20
3.7414732202887535
30
0
10
5.7114595361053944
20
3.8281034678220749
30
0
0
SPLINE
5
462
100
AcDbEntity
8
0
100
AcDbSpline
70
0
71
2
72
6
73
3
74
0
42
0.000000001
43
0.0000000001
44
0.0000000001
40
0
40
0
40
0
40
1
40
1
40
1
10
5.7114595361053944
20
3.8281034678220749
30
0
10
5.7114595361053944
20
3.8908592611551285
30
0
10
5.679399985820055
20
3.9351976662874222
30
0
0
SPLINE
5
463
100
AcDbEntity
8
0
100
AcDbSpline
70
0
71
2
72
6
73
3
74
0
42
0.000000001
43
0.0000000001
44
0.0000000001
40
0
40
0
40
0
40
1
40
1
40
1
10
5.679399985820055
20
3.9351976662874222
30
0
10
5.6480217166244984
20
3.9802180975675583
30
0
10
5.5961799807846546
20
3.9945428073406219
30
0
0
SPLINE
5
464
100
AcDbEntity
8
0
100
AcDbSpline
70
0
71
2
72
6
73
3
74
0
42
0.000000001
43
0.0000000001
44
0.0000000001
40
0
40
0
40
0
40
1
40
1
40
1
10
5.5961799807846546
20
3.9945428073406219
30
0
10
5.5627560801804066
20
4.0034104883670807
30
0
10
5.4727149195969105
20
4.0034104883670807
30
0
0
LINE
5
465
100
AcDbEntity
8
0
100
AcDbLine
10
5.4727149195969105
20
4.0034104883670807
30
0
11
5.2169168181717396
21
4.0034104883670807
31
0
0
LINE
5
466
100
AcDbEntity
8
0
100
AcDbLine
10
5.2169168181717396
20
4.0034104883670807
30
0
11
5.2169168181717396
21
3.6459752544760704
31
0
0
LINE
5
467
100
AcDbEntity
8
0
100
AcDbLine
10
6.0013640113174915
20
3.9802180975675583
30
0
11
6.0013640113174915
21
4.1214186698198318
31
0
0
LINE
5
468
100
AcDbEntity
8
0
100
AcDbLine
10
6.0013640113174915
20
4.1214186698198318
30
0
11
6.1241471953690052
21
4.1214186698198318
31
0
0
LINE
5
469
100
AcDbEntity
8
0
100
AcDbLine
10
6.1241471953690052
20
4.1214186698198318
30
0
11
6.1241471953690052
21
3.9802180975675583
31
0
0
LINE
5
470
100
AcDbEntity
8
0
100
AcDbLine
10
6.1241471953690052
20
3.9802180975675583
30
0
11
6.0013640113174915
21
3.9802180975675583
31
0
0
LINE
5
471
100
AcDbEntity
8
0
100
AcDbLine
10
6.0013640113174915
20
3.1214186549186707
30
0
11
6.0013640113174915
21
3.8458388298749924
31
0
0
LINE
5
472
100
AcDbEntity
8
0
100
AcDbLine
10
6.0013640113174915
20
3.8458388298749924
30
0
11
6.1241471953690052
21
3.8458388298749924
31
0
0
LINE
5
473
100
AcDbEntity
8
0
100
AcDbLine
10
6.1241471953690052
20
3.8458388298749924
30
0
11
6.1241471953690052
21
3.1214186549186707
31
0
0
LINE
5
474
100
AcDbEntity
8
0
100
AcDbLine
10
6.1241471953690052
20
3.1214186549186707
30
0
11
6.0013640113174915
21
3.1214186549186707
31
0
0
LINE
5
475
100
AcDbEntity
8
0
100
AcDbLine
10
6.3110506720840931
20
3.1214186549186707
30
0
11
6.3110506720840931
21
3.8458388298749924
31
0
0
LINE
5
476
100
AcDbEntity
8
0
100
AcDbLine
10
6.3110506720840931
20
3.8458388298749924
30
0
11
6.4215552993118763
21
3.8458388298749924
31
0
0
LINE
5
477
100
AcDbEntity
8
0
100
AcDbLine
10
6.4215552993118763
20
3.8458388298749924
30
0
11
6.4215552993118763
21
3.7428374588489532
31
0
0
SPLINE
5
478
100
AcDbEntity
8
0
100
AcDbSpline
70
0
71
2
72
6
73
3
74
0
42
0.000000001
43
0.0000000001
44
0.0000000001
40
0
40
0
40
0
40
1
40
1
40
1
10
6.4215552993118763
20
3.7428374588489532
30
0
10
6.5013641305267811
20
3.8622099161148071
30
0
10
6.6521150059998035
20
3.8622099161148071
30
0
0
SPLINE
5
479
100
AcDbEntity
8
0
100
AcDbSpline
70
0
71
2
72
6
73
3
74
0
42
0.000000001
43
0.0000000001
44
0.0000000001
40
0
40
0
40
0
40
1
40
1
40
1
10
6.6521150059998035
20
3.8622099161148071
30
0
10
6.7175990529358387
20
3.8622099161148071
30
0
10
6.7721694894134998
20
3.8383354246616364
30
0
0
SPLINE
5
480
100
AcDbEntity
8
0
100
AcDbSpline
70
0
71
2
72
6
73
3
74
0
42
0.000000001
43
0.0000000001
44
0.0000000001
40
0
40
0
40
0
40
1
40
1
40
1
10
6.7721694894134998
20
3.8383354246616364
30
0
10
6.8274218030273914
20
3.815143033862114
30
0
10
6.854707021266222
20
3.7769439071416855
30
0
0
SPLINE
5
481
100
AcDbEntity
8
0
100
AcDbSpline
70
0
71
2
72
6
73
3
74
0
42
0.000000001
43
0.0000000001
44
0.0000000001
40
0
40
0
40
0
40
1
40
1
40
1
10
6.854707021266222
20
3.7769439071416855
30
0
10
6.8819922395050526
20
3.738744705915451
30
0
10
6.8929058499634266
20
3.6862208321690559
30
0
0
SPLINE
5
482
100
AcDbEntity
8
0
100
AcDbSpline
70
0
71
2
72
6
73
3
74
0
42
0.000000001
43
0.0000000001
44
0.0000000001
40
0
40
0
40
0
40
1
40
1
40
1
10
6.8929058499634266
20
3.6862208321690559
30
0
10
6.8997270055115223
20
3.6521144211292267
30
0
10
6.8997270055115223
20
3.5668483749032021
30
0
0
LINE
5
483
100
AcDbEntity
8
0
100
AcDbLine
10
6.8997270055115223
20
3.5668483749032021
30
0
11
6.8997270055115223
21
3.1214186549186707
31
0
0
LINE
5
484
100
AcDbEntity
8
0
100
AcDbLine
10
6.8997270055115223
20
3.1214186549186707
30
0
11
6.7769444175064564
21
3.1214186549186707
31
0
0
LINE
5
485
100
AcDbEntity
8
0
100
AcDbLine
10
6.7769444175064564
20
3.1214186549186707
30
0
11
6.7769444175064564
21
3.5620734840631485
31
0
0
SPLINE
5
486
100
AcDbEntity
8
0
100
AcDbSpline
70
0
71
2
72
6
73
3
74
0
42
0.000000001
43
0.0000000001
44
0.0000000001
40
0
40
0
40
0
40
1
40
1
40
1
10
6.7769444175064564
20
3.5620734840631485
30
0
10
6.7769444175064564
20
3.6371076107025146
30
0
10
6.7626196332275867
20
3.6739425361156464
30
0
0
SPLINE
5
487
100
AcDbEntity
8
0
100
AcDbSpline
70
0
71
2
72
6
73
3
74
0
42
0.000000001
43
0.0000000001
44
0.0000000001
40
0
40
0
40
0
40
1
40
1
40
1
10
6.7626196332275867
20
3.6739425361156464
30
0
10
6.7482948489487171
20
3.7114595621824265
30
0
10
6.7114597745239735
20
3.7332876771688461
30
0
0
SPLINE
5
488
100
AcDbEntity
8
0
100
AcDbSpline
70
0
71
2
72
6
73
3
74
0
42
0.000000001
43
0.0000000001
44
0.0000000001
40
0
40
0
40
0
40
1
40
1
40
1
10
6.7114597745239735
20
3.7332876771688461
30
0
10
6.675307173281908
20
3.7557978928089142
30
0
10
6.6261941380798817
20
3.7557978928089142
30
0
0
SPLINE
5
489
100
AcDbEntity
8
0
100
AcDbSpline
70
0
71
2
72
6
73
3
74
0
42
0.000000001
43
0.0000000001
44
0.0000000001
40
0
40
0
40
0
40
1
40
1
40
1
10
6.6261941380798817
20
3.7557978928089142
30
0
10
6.5477490611374378
20
3.7557978928089142
30
0
10
6.4904505200684071
20
3.7060025334358215
30
0
0
SPLINE
5
490
100
AcDbEntity
8
0
100
AcDbSpline
70
0
71
2
72
6
73
3
74
0
42
0.000000001
43
0.0000000001
44
0.0000000001
40
0
40
0
40
0
40
1
40
1
40
1
10
6.4904505200684071
20
3.7060025334358215
30
0
10
6.4338338561356068
20
3.6562071740627289
30
0
10
6.4338338561356068
20
3.5170530155301094
30
0
0
LINE
5
491
100
AcDbEntity
8
0
100
AcDbLine
10
6.4338338561356068
20
3.5170530155301094
30
0
11
6.4338338561356068
21
3.1214186549186707
31
0
0
LINE
5
492
100
AcDbEntity
8
0
100
AcDbLine
10
6.4338338561356068
20
3.1214186549186707
30
0
11
6.3110506720840931
21
3.1214186549186707
31
0
0
LINE
5
493
100
AcDbEntity
8
0
100
AcDbLine
10
7.0388812012970448
20
3.3376532979309559
30
0
11
7.1603000350296497
21
3.3567528985440731
31
0
0
SPLINE
5
494
100
AcDbEntity
8
0
100
AcDbSpline
70
0
71
2
72
6
73
3
74
0
42
0.000000001
43
0.0000000001
44
0.0000000001
40
0
40
0
40
0
40
1
40
1
40
1
10
7.1603000350296497
20
3.3567528985440731
30
0
10
7.1705317683517933
20
3.2837651669979095
30
0
10
7.21691669896245
20
3.2448838651180267
30
0
0
SPLINE
5
495
100
AcDbEntity
8
0
100
AcDbSpline
70
0
71
2
72
6
73
3
74
0
42
0.000000001
43
0.0000000001
44
0.0000000001
40
0
40
0
40
0
40
1
40
1
40
1
10
7.21691669896245
20
3.2448838651180267
30
0
10
7.2639835067093372
20
3.2060025539249182
30
0
10
7.3478853888809681
20
3.2060025539249182
30
0
0
SPLINE
5
496
100
AcDbEntity
8
0
100
AcDbSpline
70
0
71
2
72
6
73
3
74
0
42
0.000000001
43
0.0000000001
44
0.0000000001
40
0
40
0
40
0
40
1
40
1
40
1
10
7.3478853888809681
20
3.2060025539249182
30
0
10
7.4324691481888294
20
3.2060025539249182
30
0
10
7.4733966775238514
20
3.2401089649647474
30
0
0
SPLINE
5
497
100
AcDbEntity
8
0
100
AcDbSpline
70
0
71
2
72
6
73
3
74
0
42
0.000000001
43
0.0000000001
44
0.0000000001
40
0
40
0
40
0
40
1
40
1
40
1
10
7.4733966775238514
20
3.2401089649647474
30
0
10
7.5143248029053211
20
3.2748975045979023
30
0
10
7.5143248029053211
20
3.3212822303175926
30
0
0
SPLINE
5
498
100
AcDbEntity
8
0
100
AcDbSpline
70
0
71
2
72
6
73
3
74
0
42
0.000000001
43
0.0000000001
44
0.0000000001
40
0
40
0
40
0
40
1
40
1
40
1
10
7.5143248029053211
20
3.3212822303175926
30
0
10
7.5143248029053211
20
3.3628920465707779
30
0
10
7.4781716056168079
20
3.3867665380239487
30
0
0
SPLINE
5
499
100
AcDbEntity
8
0
100
AcDbSpline
70
0
71
2
72
6
73
3
74
0
42
0.000000001
43
0.0000000001
44
0.0000000001
40
0
40
0
40
0
40
1
40
1
40
1
10
7.4781716056168079
20
3.3867665380239487
30
0
10
7.4529332108795643
20
3.4031376056373119
30
0
10
7.3526603169739246
20
3.4283763542771339
30
0
0
SPLINE
5
500
100
AcDbEntity
8
0
100
AcDbSpline
70
0
71
2
72
6
73
3
74
0
42
0.000000001
43
0.0000000001
44
0.0000000001
40
0
40
0
40
0
40
1
40
1
40
1
10
7.3526603169739246
20
3.4283763542771339
30
0
10
7.2175985760986805
20
3.4624827653169632
30
0
10
7.1650749631226063
20
3.4870393574237823
30
0
0
SPLINE
5
501
100
AcDbEntity
8
0
100
AcDbSpline
70
0
71
2
72
6
73
3
74
0
42
0.000000001
43
0.0000000001
44
0.0000000001
40
0
40
0
40
0
40
1
40
1
40
1
10
7.1650749631226063
20
3.4870393574237823
30
0
10
7.1132332272827625
20
3.5122781246900558
30
0
10
7.085948009043932
20
3.5559343174099922
30
0
0
SPLINE
5
502
100
AcDbEntity
8
0
100
AcDbSpline
70
0
71
2
72
6
73
3
74
0
42
0.000000001
43
0.0000000001
44
0.0000000001
40
0
40
0
40
0
40
1
40
1
40
1
10
7.085948009043932
20
3.5559343174099922
30
0
10
7.0593452639877796
20
3.6002726480364799
30
0
10
7.0593452639877796
20
3.6534786596894264
30
0
0
SPLINE
5
503
100
AcDbEntity
8
0
100
AcDbSpline
70
0
71
2
72
6
73
3
74
0
42
0.000000001
43
0.0000000001
44
0.0000000001
40
0
40
0
40
0
40
1
40
1
40
1
10
7.0593452639877796
20
3.6534786596894264
30
0
10
7.0593452639877796
20
3.7019097432494164
30
0
10
7.0811730809509754
20
3.7428374588489532
30
0
0
SPLINE
5
504
100
AcDbEntity
8
0
100
AcDbSpline
70
0
71
2
72
6
73
3
74
0
42
0.000000001
43
0.0000000001
44
0.0000000001
40
0
40
0
40
0
40
1
40
1
40
1
10
7.0811730809509754
20
3.7428374588489532
30
0
10
7.1036833710968494
20
3.7844473123550415
30
0
10
7.1418827958405018
20
3.8117324560880661
30
0
0
SPLINE
5
505
100
AcDbEntity
8
0
100
AcDbSpline
70
0
71
2
72
6
73
3
74
0
42
0.000000001
43
0.0000000001
44
0.0000000001
40
0
40
0
40
0
40
1
40
1
40
1
10
7.1418827958405018
20
3.8117324560880661
30
0
10
7.1705317683517933
20
3.8328783959150314
30
0
10
7.2196453996002674
20
3.8472031056880951
30
0
0
SPLINE
5
506
100
AcDbEntity
8
0
100
AcDbSpline
70
0
71
2
72
6
73
3
74
0
42
0.000000001
43
0.0000000001
44
0.0000000001
40
0
40
0
40
0
40
1
40
1
40
1
10
7.2196453996002674
20
3.8472031056880951
30
0
10
7.2694403119385242
20
3.8622099161148071
30
0
10
7.3260569758713245
20
3.8622099161148071
30
0
0
SPLINE
5
507
100
AcDbEntity
8
0
100
AcDbSpline
70
0
71
2
72
6
73
3
74
0
42
0.000000001
43
0.0000000001
44
0.0000000001
40
0
40
0
40
0
40
1
40
1
40
1
10
7.3260569758713245
20
3.8622099161148071
30
0
10
7.4113232083618641
20
3.8622099161148071
30
0
10
7.4754435010254383
20
3.837653324007988
30
0
0
SPLINE
5
508
100
AcDbEntity
8
0
100
AcDbSpline
70
0
71
2
72
6
73
3
74
0
42
0.000000001
43
0.0000000001
44
0.0000000001
40
0
40
0
40
0
40
1
40
1
40
1
10
7.4754435010254383
20
3.837653324007988
30
0
10
7.540245670825243
20
3.8130967319011688
30
0
10
7.5709414668381214
20
3.7708047777414322
30
0
0
SPLINE
5
509
100
AcDbEntity
8
0
100
AcDbSpline
70
0
71
2
72
6
73
3
74
0
42
0.000000001
43
0.0000000001
44
0.0000000001
40
0
40
0
40
0
40
1
40
1
40
1
10
7.5709414668381214
20
3.7708047777414322
30
0
10
7.6016372628509998
20
3.7291948869824409
30
0
10
7.6132333464920521
20
3.6589356884360313
30
0
0
LINE
5
510
100
AcDbEntity
8
0
100
AcDbLine
10
7.6132333464920521
20
3.6589356884360313
30
0
11
7.4931788630783558
21
3.6425646021962166
31
0
0
SPLINE
5
511
100
AcDbEntity
8
0
100
AcDbSpline
70
0
71
2
72
6
73
3
74
0
42
0.000000001
43
0.0000000001
44
0.0000000001
40
0
40
0
40
0
40
1
40
1
40
1
10
7.4931788630783558
20
3.6425646021962166
30
0
10
7.4849933572113514
20
3.6984991282224655
30
0
10
7.4454295821487904
20
3.7298770248889923
30
0
0
SPLINE
5
512
100
AcDbEntity
8
0
100
AcDbSpline
70
0
71
2
72
6
73
3
74
0
42
0.000000001
43
0.0000000001
44
0.0000000001
40
0
40
0
40
0
40
1
40
1
40
1
10
7.4454295821487904
20
3.7298770248889923
30
0
10
7.4065482802689075
20
3.7612549215555191
30
0
10
7.3349249549210072
20
3.7612549215555191
30
0
0
SPLINE
5
513
100
AcDbEntity
8
0
100
AcDbSpline
70
0
71
2
72
6
73
3
74
0
42
0.000000001
43
0.0000000001
44
0.0000000001
40
0
40
0
40
0
40
1
40
1
40
1
10
7.3349249549210072
20
3.7612549215555191
30
0
10
7.2503411956131458
20
3.7612549215555191
30
0
10
7.2141879983246326
20
3.7332876771688461
30
0
0
SPLINE
5
514
100
AcDbEntity
8
0
100
AcDbSpline
70
0
71
2
72
6
73
3
74
0
42
0.000000001
43
0.0000000001
44
0.0000000001
40
0
40
0
40
0
40
1
40
1
40
1
10
7.2141879983246326
20
3.7332876771688461
30
0
10
7.1780353970825672
20
3.7053203955292702
30
0
10
7.1780353970825672
20
3.6678033322095871
30
0
0
SPLINE
5
515
100
AcDbEntity
8
0
100
AcDbSpline
70
0
71
2
72
6
73
3
74
0
42
0.000000001
43
0.0000000001
44
0.0000000001
40
0
40
0
40
0
40
1
40
1
40
1
10
7.1780353970825672
20
3.6678033322095871
30
0
10
7.1780353970825672
20
3.6439288780093193
30
0
10
7.1930420584976673
20
3.6248292773962021
30
0
0
SPLINE
5
516
100
AcDbEntity
8
0
100
AcDbSpline
70
0
71
2
72
6
73
3
74
0
42
0.000000001
43
0.0000000001
44
0.0000000001
40
0
40
0
40
0
40
1
40
1
40
1
10
7.1930420584976673
20
3.6248292773962021
30
0
10
7.2080487199127674
20
3.6050475388765335
30
0
10
7.2401088662445545
20
3.5920871049165726
30
0
0
SPLINE
5
517
100
AcDbEntity
8
0
100
AcDbSpline
70
0
71
2
72
6
73
3
74
0
42
0.000000001
43
0.0000000001
44
0.0000000001
40
0
40
0
40
0
40
1
40
1
40
1
10
7.2401088662445545
20
3.5920871049165726
30
0
10
7.2585267014801502
20
3.5852658376097679
30
0
10
7.3485672660171986
20
3.5607092082500458
30
0
0
SPLINE
5
518
100
AcDbEntity
8
0
100
AcDbSpline
70
0
71
2
72
6
73
3
74
0
42
0.000000001
43
0.0000000001
44
0.0000000001
40
0
40
0
40
0
40
1
40
1
40
1
10
7.3485672660171986
20
3.5607092082500458
30
0
10
7.4788540787994862
20
3.5259206593036652
30
0
10
7.5300133414566517
20
3.5034104436635971
30
0
0
SPLINE
5
519
100
AcDbEntity
8
0
100
AcDbSpline
70
0
71
2
72
6
73
3
74
0
42
0.000000001
43
0.0000000001
44
0.0000000001
40
0
40
0
40
0
40
1
40
1
40
1
10
7.5300133414566517
20
3.5034104436635971
30
0
10
7.5818550772964954
20
3.4815823286771774
30
0
10
7.6111865229904652
20
3.4392903745174408
30
0
0
SPLINE
5
520
100
AcDbEntity
8
0
100
AcDbSpline
70
0
71
2
72
6
73
3
74
0
42
0.000000001
43
0.0000000001
44
0.0000000001
40
0
40
0
40
0
40
1
40
1
40
1
10
7.6111865229904652
20
3.4392903745174408
30
0
10
7.6405185647308826
20
3.3969984576106071
30
0
10
7.6405185647308826
20
3.3342426642775536
30
0
0
SPLINE
5
521
100
AcDbEntity
8
0
100
AcDbSpline
70
0
71
2
72
6
73
3
74
0
42
0.000000001
43
0.0000000001
44
0.0000000001
40
0
40
0
40
0
40
1
40
1
40
1
10
7.6405185647308826
20
3.3342426642775536
30
0
10
7.6405185647308826
20
3.2728511188179255
30
0
10
7.6043653674423695
20
3.2182808686047792
30
0
0
SPLINE
5
522
100
AcDbEntity
8
0
100
AcDbSpline
70
0
71
2
72
6
73
3
74
0
42
0.000000001
43
0.0000000001
44
0.0000000001
40
0
40
0
40
0
40
1
40
1
40
1
10
7.6043653674423695
20
3.2182808686047792
30
0
10
7.5688946433365345
20
3.1643927283585072
30
0
10
7.5013643689453602
20
3.1343790888786316
30
0
0
SPLINE
5
523
100
AcDbEntity
8
0
100
AcDbSpline
70
0
71
2
72
6
73
3
74
0
42
0.000000001
43
0.0000000001
44
0.0000000001
40
0
40
0
40
0
40
1
40
1
40
1
10
7.5013643689453602
20
3.1343790888786316
30
0
10
7.4338334985077381
20
3.1050475686788559
30
0
10
7.3485672660171986
20
3.1050475686788559
30
0
0
SPLINE
5
524
100
AcDbEntity
8
0
100
AcDbSpline
70
0
71
2
72
6
73
3
74
0
42
0.000000001
43
0.0000000001
44
0.0000000001
40
0
40
0
40
0
40
1
40
1
40
1
10
7.3485672660171986
20
3.1050475686788559
30
0
10
7.2073668427765369
20
3.1050475686788559
30
0
10
7.1330148167908192
20
3.1637106090784073
30
0
0
SPLINE
5
525
100
AcDbEntity
8
0
100
AcDbSpline
70
0
71
2
72
6
73
3
74
0
42
0.000000001
43
0.0000000001
44
0.0000000001
40
0
40
0
40
0
40
1
40
1
40
1
10
7.1330148167908192
20
3.1637106090784073
30
0
10
7.0593452639877796
20
3.2223736308515072
30
0
10
7.0388812012970448
20
3.3376532979309559
30
0
0
LINE
5
526
100
AcDbEntity
8
0
100
AcDbLine
10
0.060709407553076744
20
1.5607093274593353
30
0
11
0.060709407553076744
21
2.5607093423604965
31
0
0
LINE
5
527
100
AcDbEntity
8
0
100
AcDbLine
10
0.060709407553076744
20
2.5607093423604965
30
0
11
0.19304228946566582
21
2.5607093423604965
31
0
0
LINE
5
528
100
AcDbEntity
8
0
100
AcDbLine
10
0.19304228946566582
20
2.5607093423604965
30
0
11
0.19304228946566582
21
1.5607093274593353
31
0
0
LINE
5
529
100
AcDbEntity
8
0
100
AcDbLine
10
0.19304228946566582
20
1.5607093274593353
30
0
11
0.060709407553076744
21
1.5607093274593353
31
0
0
SPLINE
5
530
100
AcDbEntity
8
0
100
AcDbSpline
70
0
71
2
72
6
73
3
74
0
42
0.000000001
43
0.0000000001
44
0.0000000001
40
0
40
0
40
0
40
1
40
1
40
1
10
0.38608456030488014
20
2.047748863697052
30
0
10
0.38608456030488014
20
2.2967257350683212
30
0
10
0.5197816900908947
20
2.4372441321611404
30
0
0
SPLINE
5
531
100
AcDbEntity
8
0
100
AcDbSpline
70
0
71
2
72
6
73
3
74
0
42
0.000000001
43
0.0000000001
44
0.0000000001
40
0
40
0
40
0
40
1
40
1
40
1
10
0.5197816900908947
20
2.4372441321611404
30
0
10
0.65347881987690926
20
2.578444704413414
30
0
10
0.86493859067559242
20
2.578444704413414
30
0
0
SPLINE
5
532
100
AcDbEntity
8
0
100
AcDbSpline
70
0
71
2
72
6
73
3
74
0
42
0.000000001
43
0.0000000001
44
0.0000000001
40
0
40
0
40
0
40
1
40
1
40
1
10
0.86493859067559242
20
2.578444704413414
30
0
10
1.0034105367958546
20
2.578444704413414
30
0
10
1.1145974881947041
20
2.5122782588005066
30
0
0
SPLINE
5
533
100
AcDbEntity
8
0
100
AcDbSpline
70
0
71
2
72
6
73
3
74
0
42
0.000000001
43
0.0000000001
44
0.0000000001
40
0
40
0
40
0
40
1
40
1
40
1
10
1.1145974881947041
20
2.5122782588005066
30
0
10
1.2257844395935535
20
2.4461118131875992
30
0
10
1.2837653048336506
20
2.3274214565753937
30
0
0
SPLINE
5
534
100
AcDbEntity
8
0
100
AcDbSpline
70
0
71
2
72
6
73
3
74
0
42
0.000000001
43
0.0000000001
44
0.0000000001
40
0
40
0
40
0
40
1
40
1
40
1
10
1.2837653048336506
20
2.3274214565753937
30
0
10
1.342428345233202
20
2.2094132751226425
30
0
10
1.342428345233202
20
2.0593450963497162
30
0
0
SPLINE
5
535
100
AcDbEntity
8
0
100
AcDbSpline
70
0
71
2
72
6
73
3
74
0
42
0.000000001
43
0.0000000001
44
0.0000000001
40
0
40
0
40
0
40
1
40
1
40
1
10
1.342428345233202
20
2.0593450963497162
30
0
10
1.342428345233202
20
1.9072304666042328
30
0
10
1.2810367532074451
20
1.7871759831905365
30
0
0
SPLINE
5
536
100
AcDbEntity
8
0
100
AcDbSpline
70
0
71
2
72
6
73
3
74
0
42
0.000000001
43
0.0000000001
44
0.0000000001
40
0
40
0
40
0
40
1
40
1
40
1
10
1.2810367532074451
20
1.7871759831905365
30
0
10
1.2196453101933002
20
1.6671213507652283
30
0
10
1.107094157487154
20
1.605047732591629
30
0
0
SPLINE
5
537
100
AcDbEntity
8
0
100
AcDbSpline
70
0
71
2
72
6
73
3
74
0
42
0.000000001
43
0.0000000001
44
0.0000000001
40
0
40
0
40
0
40
1
40
1
40
1
10
1.107094157487154
20
1.605047732591629
30
0
10
0.99454300478100777
20
1.5436561405658722
30
0
10
0.86425649002194405
20
1.5436561405658722
30
0
0
SPLINE
5
538
100
AcDbEntity
8
0
100
AcDbSpline
70
0
71
2
72
6
73
3
74
0
42
0.000000001
43
0.0000000001
44
0.0000000001
40
0
40
0
40
0
40
1
40
1
40
1
10
0.86425649002194405
20
1.5436561405658722
30
0
10
0.72305591776967049
20
1.5436561405658722
30
0
10
0.611868966370821
20
1.6118688881397247
30
0
0
SPLINE
5
539
100
AcDbEntity
8
0
100
AcDbSpline
70
0
71
2
72
6
73
3
74
0
42
0.000000001
43
0.0000000001
44
0.0000000001
40
0
40
0
40
0
40
1
40
1
40
1
10
0.611868966370821
20
1.6118688881397247
30
0
10
0.50068208947777748
20
1.6800817847251892
30
0
10
0.44338332489132881
20
1.7980898916721344
30
0
0
SPLINE
5
540
100
AcDbEntity
8
0
100
AcDbSpline
70
0
71
2
72
6
73
3
74
0
42
0.000000001
43
0.0000000001
44
0.0000000001
40
0
40
0
40
0
40
1
40
1
40
1
10
0.44338332489132881
20
1.7980898916721344
30
0
10
0.38608456030488014
20
1.9160981476306915
30
0
10
0.38608456030488014
20
2.047748863697052
30
0
0
SPLINE
5
541
100
AcDbEntity
8
0
100
AcDbSpline
70
0
71
2
72
6
73
3
74
0
42
0.000000001
43
0.0000000001
44
0.0000000001
40
0
40
0
40
0
40
1
40
1
40
1
10
0.52251020446419716
20
2.0457024872303009
30
0
10
0.52251020446419716
20
1.8649385869503021
30
0
10
0.61937244608998299
20
1.7605729401111603
30
0
0
SPLINE
5
542
100
AcDbEntity
8
0
100
AcDbSpline
70
0
71
2
72
6
73
3
74
0
42
0.000000001
43
0.0000000001
44
0.0000000001
40
0
40
0
40
0
40
1
40
1
40
1
10
0.61937244608998299
20
1.7605729401111603
30
0
10
0.71691678836941719
20
1.6568894684314728
30
0
10
0.8635743148624897
20
1.6568894684314728
30
0
0
SPLINE
5
543
100
AcDbEntity
8
0
100
AcDbSpline
70
0
71
2
72
6
73
3
74
0
42
0.000000001
43
0.0000000001
44
0.0000000001
40
0
40
0
40
0
40
1
40
1
40
1
10
0.8635743148624897
20
1.6568894684314728
30
0
10
1.0129603929817677
20
1.6568894684314728
30
0
10
1.1091405339539051
20
1.761937141418457
30
0
0
SPLINE
5
544
100
AcDbEntity
8
0
100
AcDbSpline
70
0
71
2
72
6
73
3
74
0
42
0.000000001
43
0.0000000001
44
0.0000000001
40
0
40
0
40
0
40
1
40
1
40
1
10
1.1091405339539051
20
1.761937141418457
30
0
10
1.206002701073885
20
1.8669849634170532
30
0
10
1.206002701073885
20
2.0600271224975586
30
0
0
SPLINE
5
545
100
AcDbEntity
8
0
100
AcDbSpline
70
0
71
2
72
6
73
3
74
0
42
0.000000001
43
0.0000000001
44
0.0000000001
40
0
40
0
40
0
40
1
40
1
40
1
10
1.206002701073885
20
2.0600271224975586
30
0
10
1.206002701073885
20
2.1821281313896179
30
0
10
1.1643928475677967
20
2.2728512436151505
30
0
0
SPLINE
5
546
100
AcDbEntity
8
0
100
AcDbSpline
70
0
71
2
72
6
73
3
74
0
42
0.000000001
43
0.0000000001
44
0.0000000001
40
0
40
0
40
0
40
1
40
1
40
1
10
1.1643928475677967
20
2.2728512436151505
30
0
10
1.1234651692211628
20
2.3642563819885254
30
0
10
1.0436561889946461
20
2.414051741361618
30
0
0
SPLINE
5
547
100
AcDbEntity
8
0
100
AcDbSpline
70
0
71
2
72
6
73
3
74
0
42
0.000000001
43
0.0000000001
44
0.0000000001
40
0
40
0
40
0
40
1
40
1
40
1
10
1.0436561889946461
20
2.414051741361618
30
0
10
0.96452923491597176
20
2.464529275894165
30
0
10
0.8656206913292408
20
2.464529275894165
30
0
0
SPLINE
5
548
100
AcDbEntity
8
0
100
AcDbSpline
70
0
71
2
72
6
73
3
74
0
42
0.000000001
43
0.0000000001
44
0.0000000001
40
0
40
0
40
0
40
1
40
1
40
1
10
0.8656206913292408
20
2.464529275894165
30
0
10
0.72510229423642159
20
2.464529275894165
30
0
10
0.62346519902348518
20
2.3676670342683792
30
0
0
SPLINE
5
549
100
AcDbEntity
8
0
100
AcDbSpline
70
0
71
2
72
6
73
3
74
0
42
0.000000001
43
0.0000000001
44
0.0000000001
40
0
40
0
40
0
40
1
40
1
40
1
10
0.62346519902348518
20
2.3676670342683792
30
0
10
0.52251020446419716
20
2.2714869678020477
30
0
10
0.52251020446419716
20
2.0457024872303009
30
0
0
LINE
5
550
100
AcDbEntity
8
0
100
AcDbLine
10
1.9256478734314442
20
1.5607093274593353
30
0
11
1.8028648383915424
21
1.5607093274593353
31
0
0
LINE
5
551
100
AcDbEntity
8
0
100
AcDbLine
10
1.8028648383915424
20
1.5607093274593353
30
0
11
1.8028648383915424
21
2.3431104421615601
31
0
0
SPLINE
5
552
100
AcDbEntity
8
0
100
AcDbSpline
70
0
71
2
72
6
73
3
74
0
42
0.000000001
43
0.0000000001
44
0.0000000001
40
0
40
0
40
0
40
1
40
1
40
1
10
1.8028648383915424
20
2.3431104421615601
30
0
10
1.7585265822708607
20
2.3008184880018234
30
0
10
1.686220932751894
20
2.2585265338420868
30
0
0
SPLINE
5
553
100
AcDbEntity
8
0
100
AcDbSpline
70
0
71
2
72
6
73
3
74
0
42
0.000000001
43
0.0000000001
44
0.0000000001
40
0
40
0
40
0
40
1
40
1
40
1
10
1.686220932751894
20
2.2585265338420868
30
0
10
1.6145974583923817
20
2.2162345796823502
30
0
10
1.557298619300127
20
2.1950885653495789
30
0
0
LINE
5
554
100
AcDbEntity
8
0
100
AcDbLine
10
1.557298619300127
20
2.1950885653495789
30
0
11
1.557298619300127
21
2.3137789219617844
31
0
0
SPLINE
5
555
100
AcDbEntity
8
0
100
AcDbSpline
70
0
71
2
72
6
73
3
74
0
42
0.000000001
43
0.0000000001
44
0.0000000001
40
0
40
0
40
0
40
1
40
1
40
1
10
1.557298619300127
20
2.3137789219617844
30
0
10
1.6603000648319721
20
2.3622100055217743
30
0
10
1.7373804934322834
20
2.4311049282550812
30
0
0
SPLINE
5
556
100
AcDbEntity
8
0
100
AcDbSpline
70
0
71
2
72
6
73
3
74
0
42
0.000000001
43
0.0000000001
44
0.0000000001
40
0
40
0
40
0
40
1
40
1
40
1
10
1.7373804934322834
20
2.4311049282550812
30
0
10
1.8144610710442066
20
2.499999925494194
30
0
10
1.8465210683643818
20
2.5648020952939987
30
0
0
LINE
5
557
100
AcDbEntity
8
0
100
AcDbLine
10
1.8465210683643818
20
2.5648020952939987
30
0
11
1.9256478734314442
21
2.5648020952939987
31
0
0
LINE
5
558
100
AcDbEntity
8
0
100
AcDbLine
10
1.9256478734314442
20
2.5648020952939987
30
0
11
1.9256478734314442
21
1.5607093274593353
31
0
0
LINE
5
559
100
AcDbEntity
8
0
100
AcDbLine
10
2.8854024596512318
20
1.6787175834178925
30
0
11
2.8854024596512318
21
1.5607093274593353
31
0
0
LINE
5
560
100
AcDbEntity
8
0
100
AcDbLine
10
2.8854024596512318
20
1.5607093274593353
30
0
11
2.224420178681612
21
1.5607093274593353
31
0
0
SPLINE
5
561
100
AcDbEntity
8
0
100
AcDbSpline
70
0
71
2
72
6
73
3
74
0
42
0.000000001
43
0.0000000001
44
0.0000000001
40
0
40
0
40
0
40
1
40
1
40
1
10
2.224420178681612
20
1.5607093274593353
30
0
10
2.2230559773743153
20
1.605047732591629
30
0
10
2.2387448139488697
20
1.6459754109382629
30
0
0
SPLINE
5
562
100
AcDbEntity
8
0
100
AcDbSpline
70
0
71
2
72
6
73
3
74
0
42
0.000000001
43
0.0000000001
44
0.0000000001
40
0
40
0
40
0
40
1
40
1
40
1
10
2.2387448139488697
20
1.6459754109382629
30
0
10
2.2639836557209492
20
1.7135059833526611
30
0
10
2.3192359693348408
20
1.7789903283119202
30
0
0
SPLINE
5
563
100
AcDbEntity
8
0
100
AcDbSpline
70
0
71
2
72
6
73
3
74
0
42
0.000000001
43
0.0000000001
44
0.0000000001
40
0
40
0
40
0
40
1
40
1
40
1
10
2.3192359693348408
20
1.7789903283119202
30
0
10
2.3751704581081867
20
1.8444746732711792
30
0
10
2.480218131095171
20
1.9304227828979492
30
0
0
SPLINE
5
564
100
AcDbEntity
8
0
100
AcDbSpline
70
0
71
2
72
6
73
3
74
0
42
0.000000001
43
0.0000000001
44
0.0000000001
40
0
40
0
40
0
40
1
40
1
40
1
10
2.480218131095171
20
1.9304227828979492
30
0
10
2.6432469673454762
20
2.0641199499368668
30
0
10
2.7005458064377308
20
2.1418826282024384
30
0
0
SPLINE
5
565
100
AcDbEntity
8
0
100
AcDbSpline
70
0
71
2
72
6
73
3
74
0
42
0.000000001
43
0.0000000001
44
0.0000000001
40
0
40
0
40
0
40
1
40
1
40
1
10
2.7005458064377308
20
2.1418826282024384
30
0
10
2.7578443475067616
20
2.2203273326158524
30
0
10
2.7578443475067616
20
2.2899044305086136
30
0
0
SPLINE
5
566
100
AcDbEntity
8
0
100
AcDbSpline
70
0
71
2
72
6
73
3
74
0
42
0.000000001
43
0.0000000001
44
0.0000000001
40
0
40
0
40
0
40
1
40
1
40
1
10
2.7578443475067616
20
2.2899044305086136
30
0
10
2.7578443475067616
20
2.3628921061754227
30
0
10
2.7053204365074635
20
2.4126874655485153
30
0
0
SPLINE
5
567
100
AcDbEntity
8
0
100
AcDbSpline
70
0
71
2
72
6
73
3
74
0
42
0.000000001
43
0.0000000001
44
0.0000000001
40
0
40
0
40
0
40
1
40
1
40
1
10
2.7053204365074635
20
2.4126874655485153
30
0
10
2.6534787006676197
20
2.4631650000810623
30
0
10
2.5695771165192127
20
2.4631650000810623
30
0
0
SPLINE
5
568
100
AcDbEntity
8
0
100
AcDbSpline
70
0
71
2
72
6
73
3
74
0
42
0.000000001
43
0.0000000001
44
0.0000000001
40
0
40
0
40
0
40
1
40
1
40
1
10
2.5695771165192127
20
2.4631650000810623
30
0
10
2.4809003062546253
20
2.4631650000810623
30
0
10
2.4276943691074848
20
2.4099589884281158
30
0
0
SPLINE
5
569
100
AcDbEntity
8
0
100
AcDbSpline
70
0
71
2
72
6
73
3
74
0
42
0.000000001
43
0.0000000001
44
0.0000000001
40
0
40
0
40
0
40
1
40
1
40
1
10
2.4276943691074848
20
2.4099589884281158
30
0
10
2.3744884319603443
20
2.3567529767751694
30
0
10
2.37380625680089
20
2.262619286775589
30
0
0
LINE
5
570
100
AcDbEntity
8
0
100
AcDbLine
10
2.37380625680089
20
2.262619286775589
30
0
11
2.2476124949753284
21
2.2755797207355499
31
0
0
SPLINE
5
571
100
AcDbEntity
8
0
100
AcDbSpline
70
0
71
2
72
6
73
3
74
0
42
0.000000001
43
0.0000000001
44
0.0000000001
40
0
40
0
40
0
40
1
40
1
40
1
10
2.2476124949753284
20
2.2755797207355499
30
0
10
2.2605729289352894
20
2.4167802184820175
30
0
10
2.3451568372547626
20
2.4904500693082809
30
0
0
SPLINE
5
572
100
AcDbEntity
8
0
100
AcDbSpline
70
0
71
2
72
6
73
3
74
0
42
0.000000001
43
0.0000000001
44
0.0000000001
40
0
40
0
40
0
40
1
40
1
40
1
10
2.3451568372547626
20
2.4904500693082809
30
0
10
2.4297407455742359
20
2.5648020952939987
30
0
10
2.5723055191338062
20
2.5648020952939987
30
0
0
SPLINE
5
573
100
AcDbEntity
8
0
100
AcDbSpline
70
0
71
2
72
6
73
3
74
0
42
0.000000001
43
0.0000000001
44
0.0000000001
40
0
40
0
40
0
40
1
40
1
40
1
10
2.5723055191338062
20
2.5648020952939987
30
0
10
2.7162346430122852
20
2.5648020952939987
30
0
10
2.8001362271606922
20
2.484993115067482
30
0
0
SPLINE
5
574
100
AcDbEntity
8
0
100
AcDbSpline
70
0
71
2
72
6
73
3
74
0
42
0.000000001
43
0.0000000001
44
0.0000000001
40
0
40
0
40
0
40
1
40
1
40
1
10
2.8001362271606922
20
2.484993115067482
30
0
10
2.8840381093323231
20
2.4051840603351593
30
0
10
2.8840381093323231
20
2.2871758788824081
30
0
0
SPLINE
5
575
100
AcDbEntity
8
0
100
AcDbSpline
70
0
71
2
72
6
73
3
74
0
42
0.000000001
43
0.0000000001
44
0.0000000001
40
0
40
0
40
0
40
1
40
1
40
1
10
2.8840381093323231
20
2.2871758788824081
30
0
10
2.8840381093323231
20
2.22714863717556
30
0
10
2.8594815917313099
20
2.169167697429657
30
0
0
SPLINE
5
576
100
AcDbEntity
8
0
100
AcDbSpline
70
0
71
2
72
6
73
3
74
0
42
0.000000001
43
0.0000000001
44
0.0000000001
40
0
40
0
40
0
40
1
40
1
40
1
10
2.8594815917313099
20
2.169167697429657
30
0
10
2.8349250741302967
20
2.1111868321895599
30
0
10
2.7776262350380421
20
2.0470667630434036
30
0
0
SPLINE
5
577
100
AcDbEntity
8
0
100
AcDbSpline
70
0
71
2
72
6
73
3
74
0
42
0.000000001
43
0.0000000001
44
0.0000000001
40
0
40
0
40
0
40
1
40
1
40
1
10
2.7776262350380421
20
2.0470667630434036
30
0
10
2.7210095711052418
20
1.9829466938972473
30
0
10
2.588676530867815
20
1.8710777163505554
30
0
0
SPLINE
5
578
100
AcDbEntity
8
0
100
AcDbSpline
70
0
71
2
72
6
73
3
74
0
42
0.000000001
43
0.0000000001
44
0.0000000001
40
0
40
0
40
0
40
1
40
1
40
1
10
2.588676530867815
20
1.8710777163505554
30
0
10
2.4781719036400318
20
1.7783083021640778
30
0
10
2.4467939324676991
20
1.7448839545249939
30
0
0
SPLINE
5
579
100
AcDbEntity
8
0
100
AcDbSpline
70
0
71
2
72
6
73
3
74
0
42
0.000000001
43
0.0000000001
44
0.0000000001
40
0
40
0
40
0
40
1
40
1
40
1
10
2.4467939324676991
20
1.7448839545249939
30
0
10
2.4154161103069782
20
1.7121417820453644
30
0
10
2.3949521966278553
20
1.6787175834178925
30
0
0
LINE
5
580
100
AcDbEntity
8
0
100
AcDbLine
10
2.3949521966278553
20
1.6787175834178925
30
0
11
2.8854024596512318
21
1.6787175834178925
31
0
0
LINE
5
581
100
AcDbEntity
8
0
100
AcDbLine
10
3.0832198448479176
20
1.5607093274593353
30
0
11
3.0832198448479176
21
1.7005455493927002
31
0
0
LINE
5
582
100
AcDbEntity
8
0
100
AcDbLine
10
3.0832198448479176
20
1.7005455493927002
30
0
11
3.2230559177696705
21
1.7005455493927002
31
0
0
LINE
5
583
100
AcDbEntity
8
0
100
AcDbLine
10
3.2230559177696705
20
1.7005455493927002
30
0
11
3.2230559177696705
21
1.5607093274593353
31
0
0
SPLINE
5
584
100
AcDbEntity
8
0
100
AcDbSpline
70
0
71
2
72
6
73
3
74
0
42
0.000000001
43
0.0000000001
44
0.0000000001
40
0
40
0
40
0
40
1
40
1
40
1
10
3.2230559177696705
20
1.5607093274593353
30
0
10
3.2230559177696705
20
1.483628898859024
30
0
10
3.1957709975540638
20
1.4365619421005249
30
0
0
SPLINE
5
585
100
AcDbEntity
8
0
100
AcDbSpline
70
0
71
2
72
6
73
3
74
0
42
0.000000001
43
0.0000000001
44
0.0000000001
40
0
40
0
40
0
40
1
40
1
40
1
10
3.1957709975540638
20
1.4365619421005249
30
0
10
3.1684857793152332
20
1.3888129591941833
30
0
10
3.1091407127678394
20
1.3628920912742615
30
0
0
LINE
5
586
100
AcDbEntity
8
0
100
AcDbLine
10
3.1091407127678394
20
1.3628920912742615
30
0
11
3.0750340409576893
21
1.4154160022735596
31
0
0
SPLINE
5
587
100
AcDbEntity
8
0
100
AcDbSpline
70
0
71
2
72
6
73
3
74
0
42
0.000000001
43
0.0000000001
44
0.0000000001
40
0
40
0
40
0
40
1
40
1
40
1
10
3.0750340409576893
20
1.4154160022735596
30
0
10
3.113915640860796
20
1.4324691891670227
30
0
10
3.1323328800499439
20
1.4658935368061066
30
0
0
SPLINE
5
588
100
AcDbEntity
8
0
100
AcDbSpline
70
0
71
2
72
6
73
3
74
0
42
0.000000001
43
0.0000000001
44
0.0000000001
40
0
40
0
40
0
40
1
40
1
40
1
10
3.1323328800499439
20
1.4658935368061066
30
0
10
3.1507504172623158
20
1.4986357092857361
30
0
10
3.1527969427406788
20
1.5607093274593353
30
0
0
LINE
5
589
100
AcDbEntity
8
0
100
AcDbLine
10
3.1527969427406788
20
1.5607093274593353
30
0
11
3.0832198448479176
21
1.5607093274593353
31
0
0
LINE
5
590
100
AcDbEntity
8
0
100
AcDbLine
10
3.4774896688759327
20
1.5607093274593353
30
0
11
3.4774896688759327
21
2.5607093423604965
31
0
0
LINE
5
591
100
AcDbEntity
8
0
100
AcDbLine
10
3.4774896688759327
20
2.5607093423604965
30
0
11
3.6098227091133595
21
2.5607093423604965
31
0
0
LINE
5
592
100
AcDbEntity
8
0
100
AcDbLine
10
3.6098227091133595
20
2.5607093423604965
30
0
11
3.6098227091133595
21
1.5607093274593353
31
0
0
LINE
5
593
100
AcDbEntity
8
0
100
AcDbLine
10
3.6098227091133595
20
1.5607093274593353
30
0
11
3.4774896688759327
21
1.5607093274593353
31
0
0
SPLINE
5
594
100
AcDbEntity
8
0
100
AcDbSpline
70
0
71
2
72
6
73
3
74
0
42
0.000000001
43
0.0000000001
44
0.0000000001
40
0
40
0
40
0
40
1
40
1
40
1
10
3.8028651662170887
20
2.047748863697052
30
0
10
3.8028651662170887
20
2.2967257350683212
30
0
10
3.9365622587502003
20
2.4372441321611404
30
0
0
SPLINE
5
595
100
AcDbEntity
8
0
100
AcDbSpline
70
0
71
2
72
6
73
3
74
0
42
0.000000001
43
0.0000000001
44
0.0000000001
40
0
40
0
40
0
40
1
40
1
40
1
10
3.9365622587502003
20
2.4372441321611404
30
0
10
4.0702593512833118
20
2.578444704413414
30
0
10
4.281719047576189
20
2.578444704413414
30
0
0
SPLINE
5
596
100
AcDbEntity
8
0
100
AcDbSpline
70
0
71
2
72
6
73
3
74
0
42
0.000000001
43
0.0000000001
44
0.0000000001
40
0
40
0
40
0
40
1
40
1
40
1
10
4.281719047576189
20
2.578444704413414
30
0
10
4.4201910682022572
20
2.578444704413414
30
0
10
4.5313781686127186
20
2.5122782588005066
30
0
0
SPLINE
5
597
100
AcDbEntity
8
0
100
AcDbSpline
70
0
71
2
72
6
73
3
74
0
42
0.000000001
43
0.0000000001
44
0.0000000001
40
0
40
0
40
0
40
1
40
1
40
1
10
4.5313781686127186
20
2.5122782588005066
30
0
10
4.6425649709999561
20
2.4461118131875992
30
0
10
4.7005459852516651
20
2.3274214565753937
30
0
0
SPLINE
5
598
100
AcDbEntity
8
0
100
AcDbSpline
70
0
71
2
72
6
73
3
74
0
42
0.000000001
43
0.0000000001
44
0.0000000001
40
0
40
0
40
0
40
1
40
1
40
1
10
4.7005459852516651
20
2.3274214565753937
30
0
10
4.7592088766396046
20
2.2094132751226425
30
0
10
4.7592088766396046
20
2.0593450963497162
30
0
0
SPLINE
5
599
100
AcDbEntity
8
0
100
AcDbSpline
70
0
71
2
72
6
73
3
74
0
42
0.000000001
43
0.0000000001
44
0.0000000001
40
0
40
0
40
0
40
1
40
1
40
1
10
4.7592088766396046
20
2.0593450963497162
30
0
10
4.7592088766396046
20
1.9072304666042328
30
0
10
4.6978172846138477
20
1.7871759831905365
30
0
0
SPLINE
5
600
100
AcDbEntity
8
0
100
AcDbSpline
70
0
71
2
72
6
73
3
74
0
42
0.000000001
43
0.0000000001
44
0.0000000001
40
0
40
0
40
0
40
1
40
1
40
1
10
4.6978172846138477
20
1.7871759831905365
30
0
10
4.6364259906113148
20
1.6671213507652283
30
0
10
4.5238745398819447
20
1.605047732591629
30
0
0
SPLINE
5
601
100
AcDbEntity
8
0
100
AcDbSpline
70
0
71
2
72
6
73
3
74
0
42
0.000000001
43
0.0000000001
44
0.0000000001
40
0
40
0
40
0
40
1
40
1
40
1
10
4.5238745398819447
20
1.605047732591629
30
0
10
4.4113236851990223
20
1.5436561405658722
30
0
10
4.2810368724167347
20
1.5436561405658722
30
0
0
SPLINE
5
602
100
AcDbEntity
8
0
100
AcDbSpline
70
0
71
2
72
6
73
3
74
0
42
0.000000001
43
0.0000000001
44
0.0000000001
40
0
40
0
40
0
40
1
40
1
40
1
10
4.2810368724167347
20
1.5436561405658722
30
0
10
4.1398364491760731
20
1.5436561405658722
30
0
10
4.0286496467888355
20
1.6118688881397247
30
0
0
SPLINE
5
603
100
AcDbEntity
8
0
100
AcDbSpline
70
0
71
2
72
6
73
3
74
0
42
0.000000001
43
0.0000000001
44
0.0000000001
40
0
40
0
40
0
40
1
40
1
40
1
10
4.0286496467888355
20
1.6118688881397247
30
0
10
3.9174625463783741
20
1.6800817847251892
30
0
10
3.8601640053093433
20
1.7980898916721344
30
0
0
SPLINE
5
604
100
AcDbEntity
8
0
100
AcDbSpline
70
0
71
2
72
6
73
3
74
0
42
0.000000001
43
0.0000000001
44
0.0000000001
40
0
40
0
40
0
40
1
40
1
40
1
10
3.8601640053093433
20
1.7980898916721344
30
0
10
3.8028651662170887
20
1.9160981476306915
30
0
10
3.8028651662170887
20
2.047748863697052
30
0
0
SPLINE
5
605
100
AcDbEntity
8
0
100
AcDbSpline
70
0
71
2
72
6
73
3
74
0
42
0.000000001
43
0.0000000001
44
0.0000000001
40
0
40
0
40
0
40
1
40
1
40
1
10
3.9392906613647938
20
2.0457024872303009
30
0
10
3.9392906613647938
20
1.8649385869503021
30
0
10
4.0361529774963856
20
1.7605729401111603
30
0
0
SPLINE
5
606
100
AcDbEntity
8
0
100
AcDbSpline
70
0
71
2
72
6
73
3
74
0
42
0.000000001
43
0.0000000001
44
0.0000000001
40
0
40
0
40
0
40
1
40
1
40
1
10
4.0361529774963856
20
1.7605729401111603
30
0
10
4.1336971707642078
20
1.6568894684314728
30
0
10
4.2803549952805042
20
1.6568894684314728
30
0
0
SPLINE
5
607
100
AcDbEntity
8
0
100
AcDbSpline
70
0
71
2
72
6
73
3
74
0
42
0.000000001
43
0.0000000001
44
0.0000000001
40
0
40
0
40
0
40
1
40
1
40
1
10
4.2803549952805042
20
1.6568894684314728
30
0
10
4.4297409243881702
20
1.6568894684314728
30
0
10
4.5259210653603077
20
1.761937141418457
30
0
0
SPLINE
5
608
100
AcDbEntity
8
0
100
AcDbSpline
70
0
71
2
72
6
73
3
74
0
42
0.000000001
43
0.0000000001
44
0.0000000001
40
0
40
0
40
0
40
1
40
1
40
1
10
4.5259210653603077
20
1.761937141418457
30
0
10
4.6227830834686756
20
1.8669849634170532
30
0
10
4.6227830834686756
20
2.0600271224975586
30
0
0
SPLINE
5
609
100
AcDbEntity
8
0
100
AcDbSpline
70
0
71
2
72
6
73
3
74
0
42
0.000000001
43
0.0000000001
44
0.0000000001
40
0
40
0
40
0
40
1
40
1
40
1
10
4.6227830834686756
20
2.0600271224975586
30
0
10
4.6227830834686756
20
2.1821281313896179
30
0
10
4.5811733789741993
20
2.2728512436151505
30
0
0
SPLINE
5
610
100
AcDbEntity
8
0
100
AcDbSpline
70
0
71
2
72
6
73
3
74
0
42
0.000000001
43
0.0000000001
44
0.0000000001
40
0
40
0
40
0
40
1
40
1
40
1
10
4.5811733789741993
20
2.2728512436151505
30
0
10
4.5402458496391773
20
2.3642563819885254
30
0
10
4.4604367204010487
20
2.414051741361618
30
0
0
SPLINE
5
611
100
AcDbEntity
8
0
100
AcDbSpline
70
0
71
2
72
6
73
3
74
0
42
0.000000001
43
0.0000000001
44
0.0000000001
40
0
40
0
40
0
40
1
40
1
40
1
10
4.4604367204010487
20
2.414051741361618
30
0
10
4.3813097663223743
20
2.464529275894165
30
0
10
4.2824012227356434
20
2.464529275894165
30
0
0
SPLINE
5
612
100
AcDbEntity
8
0
100
AcDbSpline
70
0
71
2
72
6
73
3
74
0
42
0.000000001
43
0.0000000001
44
0.0000000001
40
0
40
0
40
0
40
1
40
1
40
1
10
4.2824012227356434
20
2.464529275894165
30
0
10
4.1418829746544361
20
2.464529275894165
30
0
10
4.0402457304298878
20
2.3676670342683792
30
0
0
SPLINE
5
613
100
AcDbEntity
8
0
100
AcDbSpline
70
0
71
2
72
6
73
3
74
0
42
0.000000001
43
0.0000000001
44
0.0000000001
40
0
40
0
40
0
40
1
40
1
40
1
10
4.0402457304298878
20
2.3676670342683792
30
0
10
3.9392906613647938
20
2.2714869678020477
30
0
10
3.9392906613647938
20
2.0457024872303009
30
0
0
SPLINE
5
614
100
AcDbEntity
8
0
100
AcDbSpline
70
0
71
2
72
6
73
3
74
0
42
0.000000001
43
0.0000000001
44
0.0000000001
40
0
40
0
40
0
40
1
40
1
40
1
10
4.8799455352127552
20
2.0538879930973053
30
0
10
4.8799455352127552
20
2.2312413901090622
30
0
10
4.9160981364548206
20
2.3390176892280579
30
0
0
SPLINE
5
615
100
AcDbEntity
8
0
100
AcDbSpline
70
0
71
2
72
6
73
3
74
0
42
0.000000001
43
0.0000000001
44
0.0000000001
40
0
40
0
40
0
40
1
40
1
40
1
10
4.9160981364548206
20
2.3390176892280579
30
0
10
4.9529332108795643
20
2.4474760144948959
30
0
10
5.0245565362274647
20
2.5061390548944473
30
0
0
SPLINE
5
616
100
AcDbEntity
8
0
100
AcDbSpline
70
0
71
2
72
6
73
3
74
0
42
0.000000001
43
0.0000000001
44
0.0000000001
40
0
40
0
40
0
40
1
40
1
40
1
10
5.0245565362274647
20
2.5061390548944473
30
0
10
5.0968623347580433
20
2.5648020952939987
30
0
10
5.2060026116669178
20
2.5648020952939987
30
0
0
SPLINE
5
617
100
AcDbEntity
8
0
100
AcDbSpline
70
0
71
2
72
6
73
3
74
0
42
0.000000001
43
0.0000000001
44
0.0000000001
40
0
40
0
40
0
40
1
40
1
40
1
10
5.2060026116669178
20
2.5648020952939987
30
0
10
5.2864939160645008
20
2.5648020952939987
30
0
10
5.3472030349075794
20
2.5320599228143692
30
0
0
SPLINE
5
618
100
AcDbEntity
8
0
100
AcDbSpline
70
0
71
2
72
6
73
3
74
0
42
0.000000001
43
0.0000000001
44
0.0000000001
40
0
40
0
40
0
40
1
40
1
40
1
10
5.3472030349075794
20
2.5320599228143692
30
0
10
5.4079127497971058
20
2.499999925494194
30
0
10
5.4474759288132191
20
2.4386084079742432
30
0
0
SPLINE
5
619
100
AcDbEntity
8
0
100
AcDbSpline
70
0
71
2
72
6
73
3
74
0
42
0.000000001
43
0.0000000001
44
0.0000000001
40
0
40
0
40
0
40
1
40
1
40
1
10
5.4474759288132191
20
2.4386084079742432
30
0
10
5.4870397038757801
20
2.3778989911079407
30
0
10
5.5095499940216541
20
2.2899044305086136
30
0
0
SPLINE
5
620
100
AcDbEntity
8
0
100
AcDbSpline
70
0
71
2
72
6
73
3
74
0
42
0.000000001
43
0.0000000001
44
0.0000000001
40
0
40
0
40
0
40
1
40
1
40
1
10
5.5095499940216541
20
2.2899044305086136
30
0
10
5.5320602841675282
20
2.2025920450687408
30
0
10
5.5320602841675282
20
2.0538879930973053
30
0
0
SPLINE
5
621
100
AcDbEntity
8
0
100
AcDbSpline
70
0
71
2
72
6
73
3
74
0
42
0.000000001
43
0.0000000001
44
0.0000000001
40
0
40
0
40
0
40
1
40
1
40
1
10
5.5320602841675282
20
2.0538879930973053
30
0
10
5.5320602841675282
20
1.8778990209102631
30
0
10
5.495907086879015
20
1.769440621137619
30
0
0
SPLINE
5
622
100
AcDbEntity
8
0
100
AcDbSpline
70
0
71
2
72
6
73
3
74
0
42
0.000000001
43
0.0000000001
44
0.0000000001
40
0
40
0
40
0
40
1
40
1
40
1
10
5.495907086879015
20
1.769440621137619
30
0
10
5.4597544856369495
20
1.6616642475128174
30
0
10
5.3874486871063709
20
1.6023191809654236
30
0
0
SPLINE
5
623
100
AcDbEntity
8
0
100
AcDbSpline
70
0
71
2
72
6
73
3
74
0
42
0.000000001
43
0.0000000001
44
0.0000000001
40
0
40
0
40
0
40
1
40
1
40
1
10
5.3874486871063709
20
1.6023191809654236
30
0
10
5.3158253617584705
20
1.5436561405658722
30
0
10
5.2060026116669178
20
1.5436561405658722
30
0
0
SPLINE
5
624
100
AcDbEntity
8
0
100
AcDbSpline
70
0
71
2
72
6
73
3
74
0
42
0.000000001
43
0.0000000001
44
0.0000000001
40
0
40
0
40
0
40
1
40
1
40
1
10
5.2060026116669178
20
1.5436561405658722
30
0
10
5.0613916106522083
20
1.5436561405658722
30
0
10
4.9788540787994862
20
1.6473396122455597
30
0
0
SPLINE
5
625
100
AcDbEntity
8
0
100
AcDbSpline
70
0
71
2
72
6
73
3
74
0
42
0.000000001
43
0.0000000001
44
0.0000000001
40
0
40
0
40
0
40
1
40
1
40
1
10
4.9788540787994862
20
1.6473396122455597
30
0
10
4.8799455352127552
20
1.7721690237522125
30
0
10
4.8799455352127552
20
2.0538879930973053
30
0
0
SPLINE
5
626
100
AcDbEntity
8
0
100
AcDbSpline
70
0
71
2
72
6
73
3
74
0
42
0.000000001
43
0.0000000001
44
0.0000000001
40
0
40
0
40
0
40
1
40
1
40
1
10
5.0061392970383167
20
2.0538879930973053
30
0
10
5.0061392970383167
20
1.8076397478580475
30
0
10
5.0634378381073475
20
1.7257843911647797
30
0
0
SPLINE
5
627
100
AcDbEntity
8
0
100
AcDbSpline
70
0
71
2
72
6
73
3
74
0
42
0.000000001
43
0.0000000001
44
0.0000000001
40
0
40
0
40
0
40
1
40
1
40
1
10
5.0634378381073475
20
1.7257843911647797
30
0
10
5.1214188523590565
20
1.6446110606193542
30
0
10
5.2060026116669178
20
1.6446110606193542
30
0
0
SPLINE
5
628
100
AcDbEntity
8
0
100
AcDbSpline
70
0
71
2
72
6
73
3
74
0
42
0.000000001
43
0.0000000001
44
0.0000000001
40
0
40
0
40
0
40
1
40
1
40
1
10
5.2060026116669178
20
1.6446110606193542
30
0
10
5.2905863709747791
20
1.6446110606193542
30
0
10
5.3478855080902576
20
1.726466566324234
30
0
0
SPLINE
5
629
100
AcDbEntity
8
0
100
AcDbSpline
70
0
71
2
72
6
73
3
74
0
42
0.000000001
43
0.0000000001
44
0.0000000001
40
0
40
0
40
0
40
1
40
1
40
1
10
5.3478855080902576
20
1.726466566324234
30
0
10
5.4058665223419666
20
1.8083219230175018
30
0
10
5.4058665223419666
20
2.0538879930973053
30
0
0
SPLINE
5
630
100
AcDbEntity
8
0
100
AcDbSpline
70
0
71
2
72
6
73
3
74
0
42
0.000000001
43
0.0000000001
44
0.0000000001
40
0
40
0
40
0
40
1
40
1
40
1
10
5.4058665223419666
20
2.0538879930973053
30
0
10
5.4058665223419666
20
2.3008184880018234
30
0
10
5.3478855080902576
20
2.3819917440414429
30
0
0
SPLINE
5
631
100
AcDbEntity
8
0
100
AcDbSpline
70
0
71
2
72
6
73
3
74
0
42
0.000000001
43
0.0000000001
44
0.0000000001
40
0
40
0
40
0
40
1
40
1
40
1
10
5.3478855080902576
20
2.3819917440414429
30
0
10
5.2905863709747791
20
2.4631650000810623
30
0
10
5.2046382613480091
20
2.4631650000810623
30
0
0
SPLINE
5
632
100
AcDbEntity
8
0
100
AcDbSpline
70
0
71
2
72
6
73
3
74
0
42
0.000000001
43
0.0000000001
44
0.0000000001
40
0
40
0
40
0
40
1
40
1
40
1
10
5.2046382613480091
20
2.4631650000810623
30
0
10
5.1200545020401478
20
2.4631650000810623
30
0
10
5.0695771165192127
20
2.39154152572155
30
0
0
SPLINE
5
633
100
AcDbEntity
8
0
100
AcDbSpline
70
0
71
2
72
6
73
3
74
0
42
0.000000001
43
0.0000000001
44
0.0000000001
40
0
40
0
40
0
40
1
40
1
40
1
10
5.0695771165192127
20
2.39154152572155
30
0
10
5.0061392970383167
20
2.300136387348175
30
0
10
5.0061392970383167
20
2.0538879930973053
30
0
0
SPLINE
5
634
100
AcDbEntity
8
0
100
AcDbSpline
70
0
71
2
72
6
73
3
74
0
42
0.000000001
43
0.0000000001
44
0.0000000001
40
0
40
0
40
0
40
1
40
1
40
1
10
6.5518415160477161
20
1.6500681638717651
30
0
10
6.4836281724274158
20
1.5920872986316681
30
0
10
6.4201903529465199
20
1.5682128071784973
30
0
0
SPLINE
5
635
100
AcDbEntity
8
0
100
AcDbSpline
70
0
71
2
72
6
73
3
74
0
42
0.000000001
43
0.0000000001
44
0.0000000001
40
0
40
0
40
0
40
1
40
1
40
1
10
6.4201903529465199
20
1.5682128071784973
30
0
10
6.3574344106018543
20
1.5443383157253265
30
0
10
6.2851292081177235
20
1.5443383157253265
30
0
0
SPLINE
5
636
100
AcDbEntity
8
0
100
AcDbSpline
70
0
71
2
72
6
73
3
74
0
42
0.000000001
43
0.0000000001
44
0.0000000001
40
0
40
0
40
0
40
1
40
1
40
1
10
6.2851292081177235
20
1.5443383157253265
30
0
10
6.1657566018402576
20
1.5443383157253265
30
0
10
6.1016369052231312
20
1.6023191809654236
30
0
0
SPLINE
5
637
100
AcDbEntity
8
0
100
AcDbSpline
70
0
71
2
72
6
73
3
74
0
42
0.000000001
43
0.0000000001
44
0.0000000001
40
0
40
0
40
0
40
1
40
1
40
1
10
6.1016369052231312
20
1.6023191809654236
30
0
10
6.037516612559557
20
1.660982221364975
30
0
10
6.037516612559557
20
1.7517052590847015
30
0
0
SPLINE
5
638
100
AcDbEntity
8
0
100
AcDbSpline
70
0
71
2
72
6
73
3
74
0
42
0.000000001
43
0.0000000001
44
0.0000000001
40
0
40
0
40
0
40
1
40
1
40
1
10
6.037516612559557
20
1.7517052590847015
30
0
10
6.037516612559557
20
1.804911196231842
30
0
10
6.0613912530243397
20
1.8485674262046814
30
0
0
SPLINE
5
639
100
AcDbEntity
8
0
100
AcDbSpline
70
0
71
2
72
6
73
3
74
0
42
0.000000001
43
0.0000000001
44
0.0000000001
40
0
40
0
40
0
40
1
40
1
40
1
10
6.0613912530243397
20
1.8485674262046814
30
0
10
6.0859477706253529
20
1.8929056823253632
30
0
10
6.1248290725052357
20
1.9195087254047394
30
0
0
SPLINE
5
640
100
AcDbEntity
8
0
100
AcDbSpline
70
0
71
2
72
6
73
3
74
0
42
0.000000001
43
0.0000000001
44
0.0000000001
40
0
40
0
40
0
40
1
40
1
40
1
10
6.1248290725052357
20
1.9195087254047394
30
0
10
6.164392251521349
20
1.9461117684841156
30
0
10
6.2135058827698231
20
1.9597543776035309
30
0
0
SPLINE
5
641
100
AcDbEntity
8
0
100
AcDbSpline
70
0
71
2
72
6
73
3
74
0
42
0.000000001
43
0.0000000001
44
0.0000000001
40
0
40
0
40
0
40
1
40
1
40
1
10
6.2135058827698231
20
1.9597543776035309
30
0
10
6.2496584840118885
20
1.969304084777832
30
0
10
6.3226461596786976
20
1.9781717658042908
30
0
0
SPLINE
5
642
100
AcDbEntity
8
0
100
AcDbSpline
70
0
71
2
72
6
73
3
74
0
42
0.000000001
43
0.0000000001
44
0.0000000001
40
0
40
0
40
0
40
1
40
1
40
1
10
6.3226461596786976
20
1.9781717658042908
30
0
10
6.4713502116501331
20
1.9959071278572083
30
0
10
6.5416091866791248
20
2.0204637199640274
30
0
0
SPLINE
5
643
100
AcDbEntity
8
0
100
AcDbSpline
70
0
71
2
72
6
73
3
74
0
42
0.000000001
43
0.0000000001
44
0.0000000001
40
0
40
0
40
0
40
1
40
1
40
1
10
6.5416091866791248
20
2.0204637199640274
30
0
10
6.5422916598618031
20
2.0457024872303009
30
0
10
6.5422916598618031
20
2.0525237917900085
30
0
0
SPLINE
5
644
100
AcDbEntity
8
0
100
AcDbSpline
70
0
71
2
72
6
73
3
74
0
42
0.000000001
43
0.0000000001
44
0.0000000001
40
0
40
0
40
0
40
1
40
1
40
1
10
6.5422916598618031
20
2.0525237917900085
30
0
10
6.5422916598618031
20
2.1275578439235687
30
0
10
6.5075028128921986
20
2.1582536399364471
30
0
0
SPLINE
5
645
100
AcDbEntity
8
0
100
AcDbSpline
70
0
71
2
72
6
73
3
74
0
42
0.000000001
43
0.0000000001
44
0.0000000001
40
0
40
0
40
0
40
1
40
1
40
1
10
6.5075028128921986
20
2.1582536399364471
30
0
10
6.4604360051453114
20
2.1998634934425354
30
0
10
6.3676667399704456
20
2.1998634934425354
30
0
0
SPLINE
5
646
100
AcDbEntity
8
0
100
AcDbSpline
70
0
71
2
72
6
73
3
74
0
42
0.000000001
43
0.0000000001
44
0.0000000001
40
0
40
0
40
0
40
1
40
1
40
1
10
6.3676667399704456
20
2.1998634934425354
30
0
10
6.2810361571609974
20
2.1998634934425354
30
0
10
6.2394267506897449
20
2.169167697429657
30
0
0
SPLINE
5
647
100
AcDbEntity
8
0
100
AcDbSpline
70
0
71
2
72
6
73
3
74
0
42
0.000000001
43
0.0000000001
44
0.0000000001
40
0
40
0
40
0
40
1
40
1
40
1
10
6.2394267506897449
20
2.169167697429657
30
0
10
6.1984986253082752
20
2.1391540765762329
30
0
10
6.1787170358002186
20
2.0620735734701157
30
0
0
LINE
5
648
100
AcDbEntity
8
0
100
AcDbLine
10
6.1787170358002186
20
2.0620735734701157
30
0
11
6.0586625523865223
21
2.0784446597099304
31
0
0
SPLINE
5
649
100
AcDbEntity
8
0
100
AcDbSpline
70
0
71
2
72
6
73
3
74
0
42
0.000000001
43
0.0000000001
44
0.0000000001
40
0
40
0
40
0
40
1
40
1
40
1
10
6.0586625523865223
20
2.0784446597099304
30
0
10
6.0750335641205311
20
2.1555250883102417
30
0
10
6.1125505156815052
20
2.2025920450687408
30
0
0
SPLINE
5
650
100
AcDbEntity
8
0
100
AcDbSpline
70
0
71
2
72
6
73
3
74
0
42
0.000000001
43
0.0000000001
44
0.0000000001
40
0
40
0
40
0
40
1
40
1
40
1
10
6.1125505156815052
20
2.2025920450687408
30
0
10
6.1500674672424793
20
2.2503409534692764
30
0
10
6.2210089154541492
20
2.2755797207355499
30
0
0
SPLINE
5
651
100
AcDbEntity
8
0
100
AcDbSpline
70
0
71
2
72
6
73
3
74
0
42
0.000000001
43
0.0000000001
44
0.0000000001
40
0
40
0
40
0
40
1
40
1
40
1
10
6.2210089154541492
20
2.2755797207355499
30
0
10
6.2919503636658192
20
2.3015005886554718
30
0
10
6.3854021020233631
20
2.3015005886554718
30
0
0
SPLINE
5
652
100
AcDbEntity
8
0
100
AcDbSpline
70
0
71
2
72
6
73
3
74
0
42
0.000000001
43
0.0000000001
44
0.0000000001
40
0
40
0
40
0
40
1
40
1
40
1
10
6.3854021020233631
20
2.3015005886554718
30
0
10
6.4781713671982288
20
2.3015005886554718
30
0
10
6.5361523814499378
20
2.2796724736690521
30
0
0
SPLINE
5
653
100
AcDbEntity
8
0
100
AcDbSpline
70
0
71
2
72
6
73
3
74
0
42
0.000000001
43
0.0000000001
44
0.0000000001
40
0
40
0
40
0
40
1
40
1
40
1
10
6.5361523814499378
20
2.2796724736690521
30
0
10
6.5941333957016468
20
2.2578444331884384
30
0
10
6.6214186139404774
20
2.2244200855493546
30
0
0
SPLINE
5
654
100
AcDbEntity
8
0
100
AcDbSpline
70
0
71
2
72
6
73
3
74
0
42
0.000000001
43
0.0000000001
44
0.0000000001
40
0
40
0
40
0
40
1
40
1
40
1
10
6.6214186139404774
20
2.2244200855493546
30
0
10
6.6487032361328602
20
2.191677987575531
30
0
10
6.659617442637682
20
2.141200453042984
30
0
0
SPLINE
5
655
100
AcDbEntity
8
0
100
AcDbSpline
70
0
71
2
72
6
73
3
74
0
42
0.000000001
43
0.0000000001
44
0.0000000001
40
0
40
0
40
0
40
1
40
1
40
1
10
6.659617442637682
20
2.141200453042984
30
0
10
6.6657567210495472
20
2.1098224818706512
30
0
10
6.6657567210495472
20
2.0279671251773834
30
0
0
LINE
5
656
100
AcDbEntity
8
0
100
AcDbLine
10
6.6657567210495472
20
2.0279671251773834
30
0
11
6.6657567210495472
21
1.8642564117908478
31
0
0
SPLINE
5
657
100
AcDbEntity
8
0
100
AcDbSpline
70
0
71
2
72
6
73
3
74
0
42
0.000000001
43
0.0000000001
44
0.0000000001
40
0
40
0
40
0
40
1
40
1
40
1
10
6.6657567210495472
20
1.8642564117908478
30
0
10
6.6657567210495472
20
1.6930422186851501
30
0
10
6.6732603497803211
20
1.6473396122455597
30
0
0
SPLINE
5
658
100
AcDbEntity
8
0
100
AcDbSpline
70
0
71
2
72
6
73
3
74
0
42
0.000000001
43
0.0000000001
44
0.0000000001
40
0
40
0
40
0
40
1
40
1
40
1
10
6.6732603497803211
20
1.6473396122455597
30
0
10
6.6814458556473255
20
1.6023191809654236
30
0
10
6.70463802292943
20
1.5607093274593353
30
0
0
LINE
5
659
100
AcDbEntity
8
0
100
AcDbLine
10
6.70463802292943
20
1.5607093274593353
30
0
11
6.5763980336487293
21
1.5607093274593353
31
0
0
SPLINE
5
660
100
AcDbEntity
8
0
100
AcDbSpline
70
0
71
2
72
6
73
3
74
0
42
0.000000001
43
0.0000000001
44
0.0000000001
40
0
40
0
40
0
40
1
40
1
40
1
10
6.5763980336487293
20
1.5607093274593353
30
0
10
6.5572983212769032
20
1.5989084541797638
30
0
10
6.5518415160477161
20
1.6500681638717651
30
0
0
SPLINE
5
661
100
AcDbEntity
8
0
100
AcDbSpline
70
0
71
2
72
6
73
3
74
0
42
0.000000001
43
0.0000000001
44
0.0000000001
40
0
40
0
40
0
40
1
40
1
40
1
10
6.5416091866791248
20
1.9242836534976959
30
0
10
6.474760789424181
20
1.8969984352588654
30
0
10
6.3410633988678455
20
1.8778990209102631
30
0
0
SPLINE
5
662
100
AcDbEntity
8
0
100
AcDbSpline
70
0
71
2
72
6
73
3
74
0
42
0.000000001
43
0.0000000001
44
0.0000000001
40
0
40
0
40
0
40
1
40
1
40
1
10
6.3410633988678455
20
1.8778990209102631
30
0
10
6.2653476186096668
20
1.8669849634170532
30
0
10
6.2339693494141102
20
1.8533423542976379
30
0
0
SPLINE
5
663
100
AcDbEntity
8
0
100
AcDbSpline
70
0
71
2
72
6
73
3
74
0
42
0.000000001
43
0.0000000001
44
0.0000000001
40
0
40
0
40
0
40
1
40
1
40
1
10
6.2339693494141102
20
1.8533423542976379
30
0
10
6.2025916762650013
20
1.8396997451782227
30
0
10
6.1855381913483143
20
1.8130968511104584
30
0
0
SPLINE
5
664
100
AcDbEntity
8
0
100
AcDbSpline
70
0
71
2
72
6
73
3
74
0
42
0.000000001
43
0.0000000001
44
0.0000000001
40
0
40
0
40
0
40
1
40
1
40
1
10
6.1855381913483143
20
1.8130968511104584
30
0
10
6.168485302478075
20
1.7871759831905365
30
0
10
6.168485302478075
20
1.7551158368587494
30
0
0
SPLINE
5
665
100
AcDbEntity
8
0
100
AcDbSpline
70
0
71
2
72
6
73
3
74
0
42
0.000000001
43
0.0000000001
44
0.0000000001
40
0
40
0
40
0
40
1
40
1
40
1
10
6.168485302478075
20
1.7551158368587494
30
0
10
6.168485302478075
20
1.7060026526451111
30
0
10
6.2053203769028187
20
1.6732604801654816
30
0
0
SPLINE
5
666
100
AcDbEntity
8
0
100
AcDbSpline
70
0
71
2
72
6
73
3
74
0
42
0.000000001
43
0.0000000001
44
0.0000000001
40
0
40
0
40
0
40
1
40
1
40
1
10
6.2053203769028187
20
1.6732604801654816
30
0
10
6.2428373284637928
20
1.6405183076858521
30
0
10
6.3144606538116932
20
1.6405183076858521
30
0
0
SPLINE
5
667
100
AcDbEntity
8
0
100
AcDbSpline
70
0
71
2
72
6
73
3
74
0
42
0.000000001
43
0.0000000001
44
0.0000000001
40
0
40
0
40
0
40
1
40
1
40
1
10
6.3144606538116932
20
1.6405183076858521
30
0
10
6.3854021020233631
20
1.6405183076858521
30
0
10
6.4406544156372547
20
1.6712141036987305
30
0
0
SPLINE
5
668
100
AcDbEntity
8
0
100
AcDbSpline
70
0
71
2
72
6
73
3
74
0
42
0.000000001
43
0.0000000001
44
0.0000000001
40
0
40
0
40
0
40
1
40
1
40
1
10
6.4406544156372547
20
1.6712141036987305
30
0
10
6.4959067292511463
20
1.7025919258594513
30
0
10
6.5218275971710682
20
1.7564801871776581
30
0
0
SPLINE
5
669
100
AcDbEntity
8
0
100
AcDbSpline
70
0
71
2
72
6
73
3
74
0
42
0.000000001
43
0.0000000001
44
0.0000000001
40
0
40
0
40
0
40
1
40
1
40
1
10
6.5218275971710682
20
1.7564801871776581
30
0
10
6.5416091866791248
20
1.7980898916721344
30
0
10
6.5416091866791248
20
1.8792632222175598
30
0
0
LINE
5
670
100
AcDbEntity
8
0
100
AcDbLine
10
6.5416091866791248
20
1.8792632222175598
30
0
11
6.5416091866791248
21
1.9242836534976959
31
0
0
LINE
5
671
100
AcDbEntity
8
0
100
AcDbLine
10
6.8533420749008656
20
1.5607093274593353
30
0
11
6.8533420749008656
21
2.5607093423604965
31
0
0
LINE
5
672
100
AcDbEntity
8
0
100
AcDbLine
10
6.8533420749008656
20
2.5607093423604965
30
0
11
6.9761252589523792
21
2.5607093423604965
31
0
0
LINE
5
673
100
AcDbEntity
8
0
100
AcDbLine
10
6.9761252589523792
20
2.5607093423604965
30
0
11
6.9761252589523792
21
1.5607093274593353
31
0
0
LINE
5
674
100
AcDbEntity
8
0
100
AcDbLine
10
6.9761252589523792
20
1.5607093274593353
30
0
11
6.8533420749008656
21
1.5607093274593353
31
0
0
LINE
5
675
100
AcDbEntity
8
0
100
AcDbLine
10
7.1671211905777454
20
2.419508770108223
30
0
11
7.1671211905777454
21
2.5607093423604965
31
0
0
LINE
5
676
100
AcDbEntity
8
0
100
AcDbLine
10
7.1671211905777454
20
2.5607093423604965
30
0
11
7.2899043746292591
21
2.5607093423604965
31
0
0
LINE
5
677
100
AcDbEntity
8
0
100
AcDbLine
10
7.2899043746292591
20
2.5607093423604965
30
0
11
7.2899043746292591
21
2.419508770108223
31
0
0
LINE
5
678
100
AcDbEntity
8
0
100
AcDbLine
10
7.2899043746292591
20
2.419508770108223
30
0
11
7.1671211905777454
21
2.419508770108223
31
0
0
LINE
5
679
100
AcDbEntity
8
0
100
AcDbLine
10
7.1671211905777454
20
1.5607093274593353
30
0
11
7.1671211905777454
21
2.285129502415657
31
0
0
LINE
5
680
100
AcDbEntity
8
0
100
AcDbLine
10
7.1671211905777454
20
2.285129502415657
30
0
11
7.2899043746292591
21
2.285129502415657
31
0
0
LINE
5
681
100
AcDbEntity
8
0
100
AcDbLine
10
7.2899043746292591
20
2.285129502415657
30
0
11
7.2899043746292591
21
1.5607093274593353
31
0
0
LINE
5
682
100
AcDbEntity
8
0
100
AcDbLine
10
7.2899043746292591
20
1.5607093274593353
30
0
11
7.1671211905777454
21
1.5607093274593353
31
0
0
LINE
5
683
100
AcDbEntity
8
0
100
AcDbLine
10
7.454297561198473
20
1.5006820857524872
30
0
11
7.573669571429491
21
1.4829467236995697
31
0
0
SPLINE
5
684
100
AcDbEntity
8
0
100
AcDbSpline
70
0
71
2
72
6
73
3
74
0
42
0.000000001
43
0.0000000001
44
0.0000000001
40
0
40
0
40
0
40
1
40
1
40
1
10
7.573669571429491
20
1.4829467236995697
30
0
10
7.581173200160265
20
1.4276942610740662
30
0
10
7.6152795739471912
20
1.4024555683135986
30
0
0
SPLINE
5
685
100
AcDbEntity
8
0
100
AcDbSpline
70
0
71
2
72
6
73
3
74
0
42
0.000000001
43
0.0000000001
44
0.0000000001
40
0
40
0
40
0
40
1
40
1
40
1
10
7.6152795739471912
20
1.4024555683135986
30
0
10
7.6609820313751698
20
1.3683491945266724
30
0
10
7.7401089854538441
20
1.3683491945266724
30
0
0
SPLINE
5
686
100
AcDbEntity
8
0
100
AcDbSpline
70
0
71
2
72
6
73
3
74
0
42
0.000000001
43
0.0000000001
44
0.0000000001
40
0
40
0
40
0
40
1
40
1
40
1
10
7.7401089854538441
20
1.3683491945266724
30
0
10
7.8253752179443836
20
1.3683491945266724
30
0
10
7.8717601485550404
20
1.4024555683135986
30
0
0
SPLINE
5
687
100
AcDbEntity
8
0
100
AcDbSpline
70
0
71
2
72
6
73
3
74
0
42
0.000000001
43
0.0000000001
44
0.0000000001
40
0
40
0
40
0
40
1
40
1
40
1
10
7.8717601485550404
20
1.4024555683135986
30
0
10
7.9181444831192493
20
1.4365619421005249
30
0
10
7.9345154948532581
20
1.4979535341262817
30
0
0
SPLINE
5
688
100
AcDbEntity
8
0
100
AcDbSpline
70
0
71
2
72
6
73
3
74
0
42
0.000000001
43
0.0000000001
44
0.0000000001
40
0
40
0
40
0
40
1
40
1
40
1
10
7.9345154948532581
20
1.4979535341262817
30
0
10
7.9440653510391712
20
1.5354706346988678
30
0
10
7.9433834739029408
20
1.6555251181125641
30
0
0
SPLINE
5
689
100
AcDbEntity
8
0
100
AcDbSpline
70
0
71
2
72
6
73
3
74
0
42
0.000000001
43
0.0000000001
44
0.0000000001
40
0
40
0
40
0
40
1
40
1
40
1
10
7.9433834739029408
20
1.6555251181125641
30
0
10
7.8628921695053577
20
1.5607093274593353
30
0
10
7.7428376860916615
20
1.5607093274593353
30
0
0
SPLINE
5
690
100
AcDbEntity
8
0
100
AcDbSpline
70
0
71
2
72
6
73
3
74
0
42
0.000000001
43
0.0000000001
44
0.0000000001
40
0
40
0
40
0
40
1
40
1
40
1
10
7.7428376860916615
20
1.5607093274593353
30
0
10
7.5934517569839954
20
1.5607093274593353
30
0
10
7.5115961022675037
20
1.668485552072525
30
0
0
SPLINE
5
691
100
AcDbEntity
8
0
100
AcDbSpline
70
0
71
2
72
6
73
3
74
0
42
0.000000001
43
0.0000000001
44
0.0000000001
40
0
40
0
40
0
40
1
40
1
40
1
10
7.5115961022675037
20
1.668485552072525
30
0
10
7.4297410435974598
20
1.7762617766857147
30
0
10
7.4297410435974598
20
1.9270122051239014
30
0
0
SPLINE
5
692
100
AcDbEntity
8
0
100
AcDbSpline
70
0
71
2
72
6
73
3
74
0
42
0.000000001
43
0.0000000001
44
0.0000000001
40
0
40
0
40
0
40
1
40
1
40
1
10
7.4297410435974598
20
1.9270122051239014
30
0
10
7.4297410435974598
20
2.0306956768035889
30
0
10
7.4672579951584339
20
2.1180081367492676
30
0
0
SPLINE
5
693
100
AcDbEntity
8
0
100
AcDbSpline
70
0
71
2
72
6
73
3
74
0
42
0.000000001
43
0.0000000001
44
0.0000000001
40
0
40
0
40
0
40
1
40
1
40
1
10
7.4672579951584339
20
2.1180081367492676
30
0
10
7.504774946719408
20
2.2060026228427887
30
0
10
7.575716394931078
20
2.2537516057491302
30
0
0
SPLINE
5
694
100
AcDbEntity
8
0
100
AcDbSpline
70
0
71
2
72
6
73
3
74
0
42
0.000000001
43
0.0000000001
44
0.0000000001
40
0
40
0
40
0
40
1
40
1
40
1
10
7.575716394931078
20
2.2537516057491302
30
0
10
7.6473397202789783
20
2.3015005886554718
30
0
10
7.7435195632278919
20
2.3015005886554718
30
0
0
SPLINE
5
695
100
AcDbEntity
8
0
100
AcDbSpline
70
0
71
2
72
6
73
3
74
0
42
0.000000001
43
0.0000000001
44
0.0000000001
40
0
40
0
40
0
40
1
40
1
40
1
10
7.7435195632278919
20
2.3015005886554718
30
0
10
7.8717601485550404
20
2.3015005886554718
30
0
10
7.954979557543993
20
2.1978170424699783
30
0
0
LINE
5
696
100
AcDbEntity
8
0
100
AcDbLine
10
7.954979557543993
20
2.1978170424699783
30
0
11
7.954979557543993
21
2.285129502415657
31
0
0
LINE
5
697
100
AcDbEntity
8
0
100
AcDbLine
10
7.954979557543993
20
2.285129502415657
30
0
11
8.0682128854095936
21
2.285129502415657
31
0
0
LINE
5
698
100
AcDbEntity
8
0
100
AcDbLine
10
8.0682128854095936
20
2.285129502415657
30
0
11
8.0682128854095936
21
1.6589358448982239
31
0
0
SPLINE
5
699
100
AcDbEntity
8
0
100
AcDbSpline
70
0
71
2
72
6
73
3
74
0
42
0.000000001
43
0.0000000001
44
0.0000000001
40
0
40
0
40
0
40
1
40
1
40
1
10
8.0682128854095936
20
1.6589358448982239
30
0
10
8.0682128854095936
20
1.4897680282592773
30
0
10
8.0334240384399891
20
1.4195087552070618
30
0
0
SPLINE
5
700
100
AcDbEntity
8
0
100
AcDbSpline
70
0
71
2
72
6
73
3
74
0
42
0.000000001
43
0.0000000001
44
0.0000000001
40
0
40
0
40
0
40
1
40
1
40
1
10
8.0334240384399891
20
1.4195087552070618
30
0
10
7.9993176646530628
20
1.3485674560070038
30
0
10
7.9242837615311146
20
1.3076397776603699
30
0
0
SPLINE
5
701
100
AcDbEntity
8
0
100
AcDbSpline
70
0
71
2
72
6
73
3
74
0
42
0.000000001
43
0.0000000001
44
0.0000000001
40
0
40
0
40
0
40
1
40
1
40
1
10
7.9242837615311146
20
1.3076397776603699
30
0
10
7.8499317355453968
20
1.266712099313736
30
0
10
7.7407914586365223
20
1.266712099313736
30
0
0
SPLINE
5
702
100
AcDbEntity
8
0
100
AcDbSpline
70
0
71
2
72
6
73
3
74
0
42
0.000000001
43
0.0000000001
44
0.0000000001
40
0
40
0
40
0
40
1
40
1
40
1
10
7.7407914586365223
20
1.266712099313736
30
0
10
7.6111871190369129
20
1.266712099313736
30
0
10
7.5313776917755604
20
1.3253751397132874
30
0
0
SPLINE
5
703
100
AcDbEntity
8
0
100
AcDbSpline
70
0
71
2
72
6
73
3
74
0
42
0.000000001
43
0.0000000001
44
0.0000000001
40
0
40
0
40
0
40
1
40
1
40
1
10
7.5313776917755604
20
1.3253751397132874
30
0
10
7.4515688605606556
20
1.3833560049533844
30
0
10
7.454297561198473
20
1.5006820857524872
30
0
0
SPLINE
5
704
100
AcDbEntity
8
0
100
AcDbSpline
70
0
71
2
72
6
73
3
74
0
42
0.000000001
43
0.0000000001
44
0.0000000001
40
0
40
0
40
0
40
1
40
1
40
1
10
7.5559348054230213
20
1.9358798861503601
30
0
10
7.5559348054230213
20
1.7933151125907898
30
0
10
7.6125514693558216
20
1.7278307676315308
30
0
0
SPLINE
5
705
100
AcDbEntity
8
0
100
AcDbSpline
70
0
71
2
72
6
73
3
74
0
42
0.000000001
43
0.0000000001
44
0.0000000001
40
0
40
0
40
0
40
1
40
1
40
1
10
7.6125514693558216
20
1.7278307676315308
30
0
10
7.6691675372421741
20
1.6623464226722717
30
0
10
7.7544337697327137
20
1.6623464226722717
30
0
0
SPLINE
5
706
100
AcDbEntity
8
0
100
AcDbSpline
70
0
71
2
72
6
73
3
74
0
42
0.000000001
43
0.0000000001
44
0.0000000001
40
0
40
0
40
0
40
1
40
1
40
1
10
7.7544337697327137
20
1.6623464226722717
30
0
10
7.839017529040575
20
1.6623464226722717
30
0
10
7.8963166661560535
20
1.7271485924720764
30
0
0
SPLINE
5
707
100
AcDbEntity
8
0
100
AcDbSpline
70
0
71
2
72
6
73
3
74
0
42
0.000000001
43
0.0000000001
44
0.0000000001
40
0
40
0
40
0
40
1
40
1
40
1
10
7.8963166661560535
20
1.7271485924720764
30
0
10
7.9536152072250843
20
1.7926329374313354
30
0
10
7.9536152072250843
20
1.9317871332168579
30
0
0
SPLINE
5
708
100
AcDbEntity
8
0
100
AcDbSpline
70
0
71
2
72
6
73
3
74
0
42
0.000000001
43
0.0000000001
44
0.0000000001
40
0
40
0
40
0
40
1
40
1
40
1
10
7.9536152072250843
20
1.9317871332168579
30
0
10
7.9536152072250843
20
2.0648020505905151
30
0
10
7.8942698426544666
20
2.1323327720165253
30
0
0
SPLINE
5
709
100
AcDbEntity
8
0
100
AcDbSpline
70
0
71
2
72
6
73
3
74
0
42
0.000000001
43
0.0000000001
44
0.0000000001
40
0
40
0
40
0
40
1
40
1
40
1
10
7.8942698426544666
20
2.1323327720165253
30
0
10
7.8356069512665272
20
2.1998634189367294
30
0
10
7.7523875422775745
20
2.1998634189367294
30
0
0
SPLINE
5
710
100
AcDbEntity
8
0
100
AcDbSpline
70
0
71
2
72
6
73
3
74
0
42
0.000000001
43
0.0000000001
44
0.0000000001
40
0
40
0
40
0
40
1
40
1
40
1
10
7.7523875422775745
20
2.1998634189367294
30
0
10
7.6705318875610828
20
2.1998634189367294
30
0
10
7.6132333464920521
20
2.1330149471759796
30
0
0
SPLINE
5
711
100
AcDbEntity
8
0
100
AcDbSpline
70
0
71
2
72
6
73
3
74
0
42
0.000000001
43
0.0000000001
44
0.0000000001
40
0
40
0
40
0
40
1
40
1
40
1
10
7.6132333464920521
20
2.1330149471759796
30
0
10
7.5559348054230213
20
2.0668485015630722
30
0
10
7.5559348054230213
20
1.9358798861503601
30
0
0
LINE
5
712
100
AcDbEntity
8
0
100
AcDbLine
10
8.253751415759325
20
1.5607093274593353
30
0
11
8.253751415759325
21
2.285129502415657
31
0
0
LINE
5
713
100
AcDbEntity
8
0
100
AcDbLine
10
8.253751415759325
20
2.285129502415657
30
0
11
8.3642560429871082
21
2.285129502415657
31
0
0
LINE
5
714
100
AcDbEntity
8
0
100
AcDbLine
10
8.3642560429871082
20
2.285129502415657
30
0
11
8.3642560429871082
21
2.1821281313896179
31
0
0
SPLINE
5
715
100
AcDbEntity
8
0
100
AcDbSpline
70
0
71
2
72
6
73
3
74
0
42
0.000000001
43
0.0000000001
44
0.0000000001
40
0
40
0
40
0
40
1
40
1
40
1
10
8.3642560429871082
20
2.1821281313896179
30
0
10
8.444064874202013
20
2.3015005886554718
30
0
10
8.5948151536285877
20
2.3015005886554718
30
0
0
SPLINE
5
716
100
AcDbEntity
8
0
100
AcDbSpline
70
0
71
2
72
6
73
3
74
0
42
0.000000001
43
0.0000000001
44
0.0000000001
40
0
40
0
40
0
40
1
40
1
40
1
10
8.5948151536285877
20
2.3015005886554718
30
0
10
8.6602997966110706
20
2.3015005886554718
30
0
10
8.7148702330887318
20
2.277626097202301
30
0
0
SPLINE
5
717
100
AcDbEntity
8
0
100
AcDbSpline
70
0
71
2
72
6
73
3
74
0
42
0.000000001
43
0.0000000001
44
0.0000000001
40
0
40
0
40
0
40
1
40
1
40
1
10
8.7148702330887318
20
2.277626097202301
30
0
10
8.7701225467026234
20
2.2544337064027786
30
0
10
8.7974077649414539
20
2.2162345796823502
30
0
0
SPLINE
5
718
100
AcDbEntity
8
0
100
AcDbSpline
70
0
71
2
72
6
73
3
74
0
42
0.000000001
43
0.0000000001
44
0.0000000001
40
0
40
0
40
0
40
1
40
1
40
1
10
8.7974077649414539
20
2.2162345796823502
30
0
10
8.8246923871338367
20
2.1780353784561157
30
0
10
8.8356065936386585
20
2.1255114674568176
30
0
0
SPLINE
5
719
100
AcDbEntity
8
0
100
AcDbSpline
70
0
71
2
72
6
73
3
74
0
42
0.000000001
43
0.0000000001
44
0.0000000001
40
0
40
0
40
0
40
1
40
1
40
1
10
8.8356065936386585
20
2.1255114674568176
30
0
10
8.8424277491867542
20
2.0914050936698914
30
0
10
8.8424277491867542
20
2.0061390101909637
30
0
0
LINE
5
720
100
AcDbEntity
8
0
100
AcDbLine
10
8.8424277491867542
20
2.0061390101909637
30
0
11
8.8424277491867542
21
1.5607093274593353
31
0
0
LINE
5
721
100
AcDbEntity
8
0
100
AcDbLine
10
8.8424277491867542
20
1.5607093274593353
30
0
11
8.7196451611816883
21
1.5607093274593353
31
0
0
LINE
5
722
100
AcDbEntity
8
0
100
AcDbLine
10
8.7196451611816883
20
1.5607093274593353
30
0
11
8.7196451611816883
21
2.0013640820980072
31
0
0
SPLINE
5
723
100
AcDbEntity
8
0
100
AcDbSpline
70
0
71
2
72
6
73
3
74
0
42
0.000000001
43
0.0000000001
44
0.0000000001
40
0
40
0
40
0
40
1
40
1
40
1
10
8.7196451611816883
20
2.0013640820980072
30
0
10
8.7196451611816883
20
2.0763982832431793
30
0
10
8.7053203769028187
20
2.113233208656311
30
0
0
SPLINE
5
724
100
AcDbEntity
8
0
100
AcDbSpline
70
0
71
2
72
6
73
3
74
0
42
0.000000001
43
0.0000000001
44
0.0000000001
40
0
40
0
40
0
40
1
40
1
40
1
10
8.7053203769028187
20
2.113233208656311
30
0
10
8.6909955926239491
20
2.1507502347230911
30
0
10
8.6541605181992054
20
2.1725783497095108
30
0
0
SPLINE
5
725
100
AcDbEntity
8
0
100
AcDbSpline
70
0
71
2
72
6
73
3
74
0
42
0.000000001
43
0.0000000001
44
0.0000000001
40
0
40
0
40
0
40
1
40
1
40
1
10
8.6541605181992054
20
2.1725783497095108
30
0
10
8.61800791695714
20
2.1950885653495789
30
0
10
8.5688942857086658
20
2.1950885653495789
30
0
0
SPLINE
5
726
100
AcDbEntity
8
0
100
AcDbSpline
70
0
71
2
72
6
73
3
74
0
42
0.000000001
43
0.0000000001
44
0.0000000001
40
0
40
0
40
0
40
1
40
1
40
1
10
8.5688942857086658
20
2.1950885653495789
30
0
10
8.4904498048126698
20
2.1950885653495789
30
0
10
8.433151263743639
20
2.1452932059764862
30
0
0
SPLINE
5
727
100
AcDbEntity
8
0
100
AcDbSpline
70
0
71
2
72
6
73
3
74
0
42
0.000000001
43
0.0000000001
44
0.0000000001
40
0
40
0
40
0
40
1
40
1
40
1
10
8.433151263743639
20
2.1452932059764862
30
0
10
8.3765345998108387
20
2.0954978466033936
30
0
10
8.3765345998108387
20
1.9563436508178711
30
0
0
LINE
5
728
100
AcDbEntity
8
0
100
AcDbLine
10
8.3765345998108387
20
1.9563436508178711
30
0
11
8.3765345998108387
21
1.5607093274593353
31
0
0
LINE
5
729
100
AcDbEntity
8
0
100
AcDbLine
10
8.3765345998108387
20
1.5607093274593353
30
0
11
8.253751415759325
21
1.5607093274593353
31
0
0
LINE
5
730
100
AcDbEntity
8
0
100
AcDbLine
10
0.022510234266519547
20
1.4901161193847656e-07
30
0
11
0.022510234266519547
21
1.0000000894069672
31
0
0
LINE
5
731
100
AcDbEntity
8
0
100
AcDbLine
10
0.022510234266519547
20
1.0000000894069672
30
0
11
0.14529330655932426
21
1.0000000894069672
31
0
0
LINE
5
732
100
AcDbEntity
8
0
100
AcDbLine
10
0.14529330655932426
20
1.0000000894069672
30
0
11
0.14529330655932426
21
0.64120069146156311
31
0
0
SPLINE
5
733
100
AcDbEntity
8
0
100
AcDbSpline
70
0
71
2
72
6
73
3
74
0
42
0.000000001
43
0.0000000001
44
0.0000000001
40
0
40
0
40
0
40
1
40
1
40
1
10
0.14529330655932426
20
0.64120069146156311
30
0
10
0.23124145343899727
20
0.74079141020774841
30
0
10
0.36221006885170937
20
0.74079141020774841
30
0
0
SPLINE
5
734
100
AcDbEntity
8
0
100
AcDbSpline
70
0
71
2
72
6
73
3
74
0
42
0.000000001
43
0.0000000001
44
0.0000000001
40
0
40
0
40
0
40
1
40
1
40
1
10
0.36221006885170937
20
0.74079141020774841
30
0
10
0.44270122423768044
20
0.74079141020774841
30
0
10
0.5020463652908802
20
0.70873156189918518
30
0
0
SPLINE
5
735
100
AcDbEntity
8
0
100
AcDbSpline
70
0
71
2
72
6
73
3
74
0
42
0.000000001
43
0.0000000001
44
0.0000000001
40
0
40
0
40
0
40
1
40
1
40
1
10
0.5020463652908802
20
0.70873156189918518
30
0
10
0.56139150634407997
20
0.67735359072685242
30
0
10
0.58663027361035347
20
0.62141910195350647
30
0
0
SPLINE
5
736
100
AcDbEntity
8
0
100
AcDbSpline
70
0
71
2
72
6
73
3
74
0
42
0.000000001
43
0.0000000001
44
0.0000000001
40
0
40
0
40
0
40
1
40
1
40
1
10
0.58663027361035347
20
0.62141910195350647
30
0
10
0.61255114153027534
20
0.56548431515693665
30
0
10
0.61255114153027534
20
0.45907244086265564
30
0
0
LINE
5
737
100
AcDbEntity
8
0
100
AcDbLine
10
0.61255114153027534
20
0.45907244086265564
30
0
11
0.61255114153027534
21
1.4901161193847656e-07
31
0
0
LINE
5
738
100
AcDbEntity
8
0
100
AcDbLine
10
0.61255114153027534
20
1.4901161193847656e-07
30
0
11
0.48976806923747063
21
1.4901161193847656e-07
31
0
0
LINE
5
739
100
AcDbEntity
8
0
100
AcDbLine
10
0.48976806923747063
20
1.4901161193847656e-07
30
0
11
0.48976806923747063
21
0.45907244086265564
31
0
0
SPLINE
5
740
100
AcDbEntity
8
0
100
AcDbSpline
70
0
71
2
72
6
73
3
74
0
42
0.000000001
43
0.0000000001
44
0.0000000001
40
0
40
0
40
0
40
1
40
1
40
1
10
0.48976806923747063
20
0.45907244086265564
30
0
10
0.48976806923747063
20
0.55115982890129089
30
0
10
0.44952249154448509
20
0.59276953339576721
30
0
0
SPLINE
5
741
100
AcDbEntity
8
0
100
AcDbSpline
70
0
71
2
72
6
73
3
74
0
42
0.000000001
43
0.0000000001
44
0.0000000001
40
0
40
0
40
0
40
1
40
1
40
1
10
0.44952249154448509
20
0.59276953339576721
30
0
10
0.40995905175805092
20
0.63506141304969788
30
0
10
0.33697133883833885
20
0.63506141304969788
30
0
0
SPLINE
5
742
100
AcDbEntity
8
0
100
AcDbSpline
70
0
71
2
72
6
73
3
74
0
42
0.000000001
43
0.0000000001
44
0.0000000001
40
0
40
0
40
0
40
1
40
1
40
1
10
0.33697133883833885
20
0.63506141304969788
30
0
10
0.28240108862519264
20
0.63506141304969788
30
0
10
0.23396996781229973
20
0.6064121425151825
30
0
0
SPLINE
5
743
100
AcDbEntity
8
0
100
AcDbSpline
70
0
71
2
72
6
73
3
74
0
42
0.000000001
43
0.0000000001
44
0.0000000001
40
0
40
0
40
0
40
1
40
1
40
1
10
0.23396996781229973
20
0.6064121425151825
30
0
10
0.18622100353240967
20
0.57844474911689758
30
0
10
0.16575714573264122
20
0.53001388907432556
30
0
0
SPLINE
5
744
100
AcDbEntity
8
0
100
AcDbSpline
70
0
71
2
72
6
73
3
74
0
42
0.000000001
43
0.0000000001
44
0.0000000001
40
0
40
0
40
0
40
1
40
1
40
1
10
0.16575714573264122
20
0.53001388907432556
30
0
10
0.14529330655932426
20
0.48158273100852966
30
0
10
0.14529330655932426
20
0.39631679654121399
30
0
0
LINE
5
745
100
AcDbEntity
8
0
100
AcDbLine
10
0.14529330655932426
20
0.39631679654121399
30
0
11
0.14529330655932426
21
1.4901161193847656e-07
31
0
0
LINE
5
746
100
AcDbEntity
8
0
100
AcDbLine
10
0.14529330655932426
20
1.4901161193847656e-07
30
0
11
0.022510234266519547
21
1.4901161193847656e-07
31
0
0
LINE
5
747
100
AcDbEntity
8
0
100
AcDbLine
10
1.2953615374863148
20
0.23328796029090881
30
0
11
1.4222374744713306
21
0.21759912371635437
31
0
0
SPLINE
5
748
100
AcDbEntity
8
0
100
AcDbSpline
70
0
71
2
72
6
73
3
74
0
42
0.000000001
43
0.0000000001
44
0.0000000001
40
0
40
0
40
0
40
1
40
1
40
1
10
1.4222374744713306
20
0.21759912371635437
30
0
10
1.3922238536179066
20
0.10641202330589294
30
0
10
1.3110505230724812
20
0.045020729303359985
30
0
0
SPLINE
5
749
100
AcDbEntity
8
0
100
AcDbSpline
70
0
71
2
72
6
73
3
74
0
42
0.000000001
43
0.0000000001
44
0.0000000001
40
0
40
0
40
0
40
1
40
1
40
1
10
1.3110505230724812
20
0.045020729303359985
30
0
10
1.2298771925270557
20
-0.016370862722396851
30
0
10
1.1036835052073002
20
-0.016370862722396851
30
0
0
SPLINE
5
750
100
AcDbEntity
8
0
100
AcDbSpline
70
0
71
2
72
6
73
3
74
0
42
0.000000001
43
0.0000000001
44
0.0000000001
40
0
40
0
40
0
40
1
40
1
40
1
10
1.1036835052073002
20
-0.016370862722396851
30
0
10
0.94474764540791512
20
-0.016370862722396851
30
0
10
0.85129605606198311
20
0.081173330545425415
30
0
0
SPLINE
5
751
100
AcDbEntity
8
0
100
AcDbSpline
70
0
71
2
72
6
73
3
74
0
42
0.000000001
43
0.0000000001
44
0.0000000001
40
0
40
0
40
0
40
1
40
1
40
1
10
0.85129605606198311
20
0.081173330545425415
30
0
10
0.75852664187550545
20
0.1793999969959259
30
0
10
0.75852664187550545
20
0.35607114434242249
30
0
0
SPLINE
5
752
100
AcDbEntity
8
0
100
AcDbSpline
70
0
71
2
72
6
73
3
74
0
42
0.000000001
43
0.0000000001
44
0.0000000001
40
0
40
0
40
0
40
1
40
1
40
1
10
0.75852664187550545
20
0.35607114434242249
30
0
10
0.75852664187550545
20
0.5388815701007843
30
0
10
0.85266033187508583
20
0.63983634114265442
30
0
0
SPLINE
5
753
100
AcDbEntity
8
0
100
AcDbSpline
70
0
71
2
72
6
73
3
74
0
42
0.000000001
43
0.0000000001
44
0.0000000001
40
0
40
0
40
0
40
1
40
1
40
1
10
0.85266033187508583
20
0.63983634114265442
30
0
10
0.94679402187466621
20
0.74079141020774841
30
0
10
1.0968622751533985
20
0.74079141020774841
30
0
0
SPLINE
5
754
100
AcDbEntity
8
0
100
AcDbSpline
70
0
71
2
72
6
73
3
74
0
42
0.000000001
43
0.0000000001
44
0.0000000001
40
0
40
0
40
0
40
1
40
1
40
1
10
1.0968622751533985
20
0.74079141020774841
30
0
10
1.2421554513275623
20
0.74079141020774841
30
0
10
1.3342428393661976
20
0.64188286662101746
30
0
0
SPLINE
5
755
100
AcDbEntity
8
0
100
AcDbSpline
70
0
71
2
72
6
73
3
74
0
42
0.000000001
43
0.0000000001
44
0.0000000001
40
0
40
0
40
0
40
1
40
1
40
1
10
1.3342428393661976
20
0.64188286662101746
30
0
10
1.4263302274048328
20
0.5429743230342865
30
0
10
1.4263302274048328
20
0.36357447504997253
30
0
0
SPLINE
5
756
100
AcDbEntity
8
0
100
AcDbSpline
70
0
71
2
72
6
73
3
74
0
42
0.000000001
43
0.0000000001
44
0.0000000001
40
0
40
0
40
0
40
1
40
1
40
1
10
1.4263302274048328
20
0.36357447504997253
30
0
10
1.4263302274048328
20
0.35266056656837463
30
0
10
1.4256480522453785
20
0.33083245158195496
30
0
0
LINE
5
757
100
AcDbEntity
8
0
100
AcDbLine
10
1.4256480522453785
20
0.33083245158195496
30
0
11
0.88540250435471535
21
0.33083245158195496
31
0
0
SPLINE
5
758
100
AcDbEntity
8
0
100
AcDbSpline
70
0
71
2
72
6
73
3
74
0
42
0.000000001
43
0.0000000001
44
0.0000000001
40
0
40
0
40
0
40
1
40
1
40
1
10
0.88540250435471535
20
0.33083245158195496
30
0
10
0.89222373440861702
20
0.21145984530448914
30
0
10
0.95293315127491951
20
0.14802202582359314
30
0
0
SPLINE
5
759
100
AcDbEntity
8
0
100
AcDbSpline
70
0
71
2
72
6
73
3
74
0
42
0.000000001
43
0.0000000001
44
0.0000000001
40
0
40
0
40
0
40
1
40
1
40
1
10
0.95293315127491951
20
0.14802202582359314
30
0
10
1.013642568141222
20
0.084583908319473267
30
0
10
1.1043656058609486
20
0.084583908319473267
30
0
0
SPLINE
5
760
100
AcDbEntity
8
0
100
AcDbSpline
70
0
71
2
72
6
73
3
74
0
42
0.000000001
43
0.0000000001
44
0.0000000001
40
0
40
0
40
0
40
1
40
1
40
1
10
1.1043656058609486
20
0.084583908319473267
30
0
10
1.1718963272869587
20
0.084583908319473267
30
0
10
1.2196453101933002
20
0.12005463242530823
30
0
0
SPLINE
5
761
100
AcDbEntity
8
0
100
AcDbSpline
70
0
71
2
72
6
73
3
74
0
42
0.000000001
43
0.0000000001
44
0.0000000001
40
0
40
0
40
0
40
1
40
1
40
1
10
1.2196453101933002
20
0.12005463242530823
30
0
10
1.2673942930996418
20
0.15552535653114319
30
0
10
1.2953615374863148
20
0.23328796029090881
30
0
0
LINE
5
762
100
AcDbEntity
8
0
100
AcDbLine
10
0.89222373440861702
20
0.43178722262382507
30
0
11
1.2967258878052235
21
0.43178722262382507
31
0
0
SPLINE
5
763
100
AcDbEntity
8
0
100
AcDbSpline
70
0
71
2
72
6
73
3
74
0
42
0.000000001
43
0.0000000001
44
0.0000000001
40
0
40
0
40
0
40
1
40
1
40
1
10
1.2967258878052235
20
0.43178722262382507
30
0
10
1.2885402329266071
20
0.52319243550300598
30
0
10
1.2503411062061787
20
0.56889519095420837
30
0
0
SPLINE
5
764
100
AcDbEntity
8
0
100
AcDbSpline
70
0
71
2
72
6
73
3
74
0
42
0.000000001
43
0.0000000001
44
0.0000000001
40
0
40
0
40
0
40
1
40
1
40
1
10
1.2503411062061787
20
0.56889519095420837
30
0
10
1.1916780658066273
20
0.63983634114265442
30
0
10
1.0982264764606953
20
0.63983634114265442
30
0
0
SPLINE
5
765
100
AcDbEntity
8
0
100
AcDbSpline
70
0
71
2
72
6
73
3
74
0
42
0.000000001
43
0.0000000001
44
0.0000000001
40
0
40
0
40
0
40
1
40
1
40
1
10
1.0982264764606953
20
0.63983634114265442
30
0
10
1.013642568141222
20
0.63983634114265442
30
0
10
0.95566170290112495
20
0.58321967720985413
30
0
0
SPLINE
5
766
100
AcDbEntity
8
0
100
AcDbSpline
70
0
71
2
72
6
73
3
74
0
42
0.000000001
43
0.0000000001
44
0.0000000001
40
0
40
0
40
0
40
1
40
1
40
1
10
0.95566170290112495
20
0.58321967720985413
30
0
10
0.89836293831467628
20
0.52660301327705383
30
0
10
0.89222373440861702
20
0.43178722262382507
30
0
0
LINE
5
767
100
AcDbEntity
8
0
100
AcDbLine
10
1.5750341303646564
20
1.4901161193847656e-07
30
0
11
1.5750341303646564
21
0.72442039847373962
31
0
0
LINE
5
768
100
AcDbEntity
8
0
100
AcDbLine
10
1.5750341303646564
20
0.72442039847373962
30
0
11
1.6855389066040516
21
0.72442039847373962
31
0
0
LINE
5
769
100
AcDbEntity
8
0
100
AcDbLine
10
1.6855389066040516
20
0.72442039847373962
30
0
11
1.6855389066040516
21
0.61459764838218689
31
0
0
SPLINE
5
770
100
AcDbEntity
8
0
100
AcDbSpline
70
0
71
2
72
6
73
3
74
0
42
0.000000001
43
0.0000000001
44
0.0000000001
40
0
40
0
40
0
40
1
40
1
40
1
10
1.6855389066040516
20
0.61459764838218689
30
0
10
1.7278309352695942
20
0.69167807698249817
30
0
10
1.7633015103638172
20
0.71623489260673523
30
0
0
SPLINE
5
771
100
AcDbEntity
8
0
100
AcDbSpline
70
0
71
2
72
6
73
3
74
0
42
0.000000001
43
0.0000000001
44
0.0000000001
40
0
40
0
40
0
40
1
40
1
40
1
10
1.7633015103638172
20
0.71623489260673523
30
0
10
1.7994544096291065
20
0.74079141020774841
30
0
10
1.8424284644424915
20
0.74079141020774841
30
0
0
SPLINE
5
772
100
AcDbEntity
8
0
100
AcDbSpline
70
0
71
2
72
6
73
3
74
0
42
0.000000001
43
0.0000000001
44
0.0000000001
40
0
40
0
40
0
40
1
40
1
40
1
10
1.8424284644424915
20
0.74079141020774841
30
0
10
1.9045020826160908
20
0.74079141020774841
30
0
10
1.9686222262680531
20
0.70122793316841125
30
0
0
LINE
5
773
100
AcDbEntity
8
0
100
AcDbLine
10
1.9686222262680531
20
0.70122793316841125
30
0
11
1.9263301976025105
21
0.58731243014335632
31
0
0
SPLINE
5
774
100
AcDbEntity
8
0
100
AcDbSpline
70
0
71
2
72
6
73
3
74
0
42
0.000000001
43
0.0000000001
44
0.0000000001
40
0
40
0
40
0
40
1
40
1
40
1
10
1.9263301976025105
20
0.58731243014335632
30
0
10
1.8813097663223743
20
0.61391547322273254
30
0
10
1.8362891860306263
20
0.61391547322273254
30
0
0
SPLINE
5
775
100
AcDbEntity
8
0
100
AcDbSpline
70
0
71
2
72
6
73
3
74
0
42
0.000000001
43
0.0000000001
44
0.0000000001
40
0
40
0
40
0
40
1
40
1
40
1
10
1.8362891860306263
20
0.61391547322273254
30
0
10
1.7960436828434467
20
0.61391547322273254
30
0
10
1.7639836855232716
20
0.58935895562171936
30
0
0
SPLINE
5
776
100
AcDbEntity
8
0
100
AcDbSpline
70
0
71
2
72
6
73
3
74
0
42
0.000000001
43
0.0000000001
44
0.0000000001
40
0
40
0
40
0
40
1
40
1
40
1
10
1.7639836855232716
20
0.58935895562171936
30
0
10
1.7319236882030964
20
0.56548431515693665
30
0
10
1.7182810790836811
20
0.52251026034355164
30
0
0
SPLINE
5
777
100
AcDbEntity
8
0
100
AcDbSpline
70
0
71
2
72
6
73
3
74
0
42
0.000000001
43
0.0000000001
44
0.0000000001
40
0
40
0
40
0
40
1
40
1
40
1
10
1.7182810790836811
20
0.52251026034355164
30
0
10
1.6978171654045582
20
0.4570259153842926
30
0
10
1.6978171654045582
20
0.37926331162452698
30
0
0
LINE
5
778
100
AcDbEntity
8
0
100
AcDbLine
10
1.6978171654045582
20
0.37926331162452698
30
0
11
1.6978171654045582
21
1.4901161193847656e-07
31
0
0
LINE
5
779
100
AcDbEntity
8
0
100
AcDbLine
10
1.6978171654045582
20
1.4901161193847656e-07
30
0
11
1.5750341303646564
21
1.4901161193847656e-07
31
0
0
LINE
5
780
100
AcDbEntity
8
0
100
AcDbLine
10
2.5375169701874256
20
0.23328796029090881
30
0
11
2.6643929071724415
21
0.21759912371635437
31
0
0
SPLINE
5
781
100
AcDbEntity
8
0
100
AcDbSpline
70
0
71
2
72
6
73
3
74
0
42
0.000000001
43
0.0000000001
44
0.0000000001
40
0
40
0
40
0
40
1
40
1
40
1
10
2.6643929071724415
20
0.21759912371635437
30
0
10
2.6343792863190174
20
0.10641202330589294
30
0
10
2.5532058067619801
20
0.045020729303359985
30
0
0
SPLINE
5
782
100
AcDbEntity
8
0
100
AcDbSpline
70
0
71
2
72
6
73
3
74
0
42
0.000000001
43
0.0000000001
44
0.0000000001
40
0
40
0
40
0
40
1
40
1
40
1
10
2.5532058067619801
20
0.045020729303359985
30
0
10
2.4720326252281666
20
-0.016370862722396851
30
0
10
2.3458388634026051
20
-0.016370862722396851
30
0
0
SPLINE
5
783
100
AcDbEntity
8
0
100
AcDbSpline
70
0
71
2
72
6
73
3
74
0
42
0.000000001
43
0.0000000001
44
0.0000000001
40
0
40
0
40
0
40
1
40
1
40
1
10
2.3458388634026051
20
-0.016370862722396851
30
0
10
2.186903078109026
20
-0.016370862722396851
30
0
10
2.0934514887630939
20
0.081173330545425415
30
0
0
SPLINE
5
784
100
AcDbEntity
8
0
100
AcDbSpline
70
0
71
2
72
6
73
3
74
0
42
0.000000001
43
0.0000000001
44
0.0000000001
40
0
40
0
40
0
40
1
40
1
40
1
10
2.0934514887630939
20
0.081173330545425415
30
0
10
2.0006820745766163
20
0.1793999969959259
30
0
10
2.0006820745766163
20
0.35607114434242249
30
0
0
SPLINE
5
785
100
AcDbEntity
8
0
100
AcDbSpline
70
0
71
2
72
6
73
3
74
0
42
0.000000001
43
0.0000000001
44
0.0000000001
40
0
40
0
40
0
40
1
40
1
40
1
10
2.0006820745766163
20
0.35607114434242249
30
0
10
2.0006820745766163
20
0.5388815701007843
30
0
10
2.0948156900703907
20
0.63983634114265442
30
0
0
SPLINE
5
786
100
AcDbEntity
8
0
100
AcDbSpline
70
0
71
2
72
6
73
3
74
0
42
0.000000001
43
0.0000000001
44
0.0000000001
40
0
40
0
40
0
40
1
40
1
40
1
10
2.0948156900703907
20
0.63983634114265442
30
0
10
2.1889494545757771
20
0.74079141020774841
30
0
10
2.3390177078545094
20
0.74079141020774841
30
0
0
SPLINE
5
787
100
AcDbEntity
8
0
100
AcDbSpline
70
0
71
2
72
6
73
3
74
0
42
0.000000001
43
0.0000000001
44
0.0000000001
40
0
40
0
40
0
40
1
40
1
40
1
10
2.3390177078545094
20
0.74079141020774841
30
0
10
2.4843108840286732
20
0.74079141020774841
30
0
10
2.5763982720673084
20
0.64188286662101746
30
0
0
SPLINE
5
788
100
AcDbEntity
8
0
100
AcDbSpline
70
0
71
2
72
6
73
3
74
0
42
0.000000001
43
0.0000000001
44
0.0000000001
40
0
40
0
40
0
40
1
40
1
40
1
10
2.5763982720673084
20
0.64188286662101746
30
0
10
2.6684856601059437
20
0.5429743230342865
30
0
10
2.6684856601059437
20
0.36357447504997253
30
0
0
SPLINE
5
789
100
AcDbEntity
8
0
100
AcDbSpline
70
0
71
2
72
6
73
3
74
0
42
0.000000001
43
0.0000000001
44
0.0000000001
40
0
40
0
40
0
40
1
40
1
40
1
10
2.6684856601059437
20
0.36357447504997253
30
0
10
2.6684856601059437
20
0.35266056656837463
30
0
10
2.6678034849464893
20
0.33083245158195496
30
0
0
LINE
5
790
100
AcDbEntity
8
0
100
AcDbLine
10
2.6678034849464893
20
0.33083245158195496
30
0
11
2.1275578625500202
21
0.33083245158195496
31
0
0
SPLINE
5
791
100
AcDbEntity
8
0
100
AcDbSpline
70
0
71
2
72
6
73
3
74
0
42
0.000000001
43
0.0000000001
44
0.0000000001
40
0
40
0
40
0
40
1
40
1
40
1
10
2.1275578625500202
20
0.33083245158195496
30
0
10
2.1343791671097279
20
0.21145984530448914
30
0
10
2.1950885839760303
20
0.14802202582359314
30
0
0
SPLINE
5
792
100
AcDbEntity
8
0
100
AcDbSpline
70
0
71
2
72
6
73
3
74
0
42
0.000000001
43
0.0000000001
44
0.0000000001
40
0
40
0
40
0
40
1
40
1
40
1
10
2.1950885839760303
20
0.14802202582359314
30
0
10
2.2557980008423328
20
0.084583908319473267
30
0
10
2.3465210385620594
20
0.084583908319473267
30
0
0
SPLINE
5
793
100
AcDbEntity
8
0
100
AcDbSpline
70
0
71
2
72
6
73
3
74
0
42
0.000000001
43
0.0000000001
44
0.0000000001
40
0
40
0
40
0
40
1
40
1
40
1
10
2.3465210385620594
20
0.084583908319473267
30
0
10
2.4140517599880695
20
0.084583908319473267
30
0
10
2.4618005938827991
20
0.12005463242530823
30
0
0
SPLINE
5
794
100
AcDbEntity
8
0
100
AcDbSpline
70
0
71
2
72
6
73
3
74
0
42
0.000000001
43
0.0000000001
44
0.0000000001
40
0
40
0
40
0
40
1
40
1
40
1
10
2.4618005938827991
20
0.12005463242530823
30
0
10
2.5095498748123646
20
0.15552535653114319
30
0
10
2.5375169701874256
20
0.23328796029090881
30
0
0
LINE
5
795
100
AcDbEntity
8
0
100
AcDbLine
10
2.1343791671097279
20
0.43178722262382507
30
0
11
2.5388813205063343
21
0.43178722262382507
31
0
0
SPLINE
5
796
100
AcDbEntity
8
0
100
AcDbSpline
70
0
71
2
72
6
73
3
74
0
42
0.000000001
43
0.0000000001
44
0.0000000001
40
0
40
0
40
0
40
1
40
1
40
1
10
2.5388813205063343
20
0.43178722262382507
30
0
10
2.5306958146393299
20
0.52319243550300598
30
0
10
2.4924963898956776
20
0.56889519095420837
30
0
0
SPLINE
5
797
100
AcDbEntity
8
0
100
AcDbSpline
70
0
71
2
72
6
73
3
74
0
42
0.000000001
43
0.0000000001
44
0.0000000001
40
0
40
0
40
0
40
1
40
1
40
1
10
2.4924963898956776
20
0.56889519095420837
30
0
10
2.4338334985077381
20
0.63983634114265442
30
0
10
2.3403819091618061
20
0.63983634114265442
30
0
0
SPLINE
5
798
100
AcDbEntity
8
0
100
AcDbSpline
70
0
71
2
72
6
73
3
74
0
42
0.000000001
43
0.0000000001
44
0.0000000001
40
0
40
0
40
0
40
1
40
1
40
1
10
2.3403819091618061
20
0.63983634114265442
30
0
10
2.2557980008423328
20
0.63983634114265442
30
0
10
2.1978171356022358
20
0.58321967720985413
30
0
0
SPLINE
5
799
100
AcDbEntity
8
0
100
AcDbSpline
70
0
71
2
72
6
73
3
74
0
42
0.000000001
43
0.0000000001
44
0.0000000001
40
0
40
0
40
0
40
1
40
1
40
1
10
2.1978171356022358
20
0.58321967720985413
30
0
10
2.1405182965099812
20
0.52660301327705383
30
0
10
2.1343791671097279
20
0.43178722262382507
30
0
0
LINE
5
800
100
AcDbEntity
8
0
100
AcDbLine
10
2.8990453667938709
20
-0.29399707913398743
30
0
11
2.8110507316887379
21
-0.29399707913398743
31
0
0
SPLINE
5
801
100
AcDbEntity
8
0
100
AcDbSpline
70
0
71
2
72
6
73
3
74
0
42
0.000000001
43
0.0000000001
44
0.0000000001
40
0
40
0
40
0
40
1
40
1
40
1
10
2.8110507316887379
20
-0.29399707913398743
30
0
10
3.015007097274065
20
0.033424347639083862
30
0
10
3.015007097274065
20
0.36152824759483337
30
0
0
SPLINE
5
802
100
AcDbEntity
8
0
100
AcDbSpline
70
0
71
2
72
6
73
3
74
0
42
0.000000001
43
0.0000000001
44
0.0000000001
40
0
40
0
40
0
40
1
40
1
40
1
10
3.015007097274065
20
0.36152824759483337
30
0
10
3.015007097274065
20
0.48976823687553406
30
0
10
2.9856753535568714
20
0.61596199870109558
30
0
0
SPLINE
5
803
100
AcDbEntity
8
0
100
AcDbSpline
70
0
71
2
72
6
73
3
74
0
42
0.000000001
43
0.0000000001
44
0.0000000001
40
0
40
0
40
0
40
1
40
1
40
1
10
2.9856753535568714
20
0.61596199870109558
30
0
10
2.9624831862747669
20
0.71828112006187439
30
0
10
2.9208731837570667
20
0.81241488456726074
30
0
0
SPLINE
5
804
100
AcDbEntity
8
0
100
AcDbSpline
70
0
71
2
72
6
73
3
74
0
42
0.000000001
43
0.0000000001
44
0.0000000001
40
0
40
0
40
0
40
1
40
1
40
1
10
2.9208731837570667
20
0.81241488456726074
30
0
10
2.8942704387009144
20
0.87380632758140564
30
0
10
2.8110507316887379
20
1.0170532763004303
30
0
0
LINE
5
805
100
AcDbEntity
8
0
100
AcDbLine
10
2.8110507316887379
20
1.0170532763004303
30
0
11
2.8990453667938709
21
1.0170532763004303
31
0
0
SPLINE
5
806
100
AcDbEntity
8
0
100
AcDbSpline
70
0
71
2
72
6
73
3
74
0
42
0.000000001
43
0.0000000001
44
0.0000000001
40
0
40
0
40
0
40
1
40
1
40
1
10
2.8990453667938709
20
1.0170532763004303
30
0
10
3.0272853560745716
20
0.8458392322063446
30
0
10
3.0886769481003284
20
0.67326083779335022
30
0
0
SPLINE
5
807
100
AcDbEntity
8
0
100
AcDbSpline
70
0
71
2
72
6
73
3
74
0
42
0.000000001
43
0.0000000001
44
0.0000000001
40
0
40
0
40
0
40
1
40
1
40
1
10
3.0886769481003284
20
0.67326083779335022
30
0
10
3.1412008590996265
20
0.52455678582191467
30
0
10
3.1412008590996265
20
0.36221012473106384
30
0
0
SPLINE
5
808
100
AcDbEntity
8
0
100
AcDbSpline
70
0
71
2
72
6
73
3
74
0
42
0.000000001
43
0.0000000001
44
0.0000000001
40
0
40
0
40
0
40
1
40
1
40
1
10
3.1412008590996265
20
0.36221012473106384
30
0
10
3.1412008590996265
20
0.17803564667701721
30
0
10
3.0702594108879566
20
0.0061394274234771729
30
0
0
SPLINE
5
809
100
AcDbEntity
8
0
100
AcDbSpline
70
0
71
2
72
6
73
3
74
0
42
0.000000001
43
0.0000000001
44
0.0000000001
40
0
40
0
40
0
40
1
40
1
40
1
10
3.0702594108879566
20
0.0061394274234771729
30
0
10
3.000000137835741
20
-0.16575708985328674
30
0
10
2.8990453667938709
20
-0.29399707913398743
30
0
0
ENDSEC
0
SECTION
2
OBJECTS
0
DICTIONARY
5
C
100
AcDbDictionary
3
ACAD_GROUP
350
D
3
ACAD_MLINESTYLE
350
17
0
DICTIONARY
5
D
100
AcDbDictionary
0
DICTIONARY
5
1A
330
C
100
AcDbDictionary
0
DICTIONARY
5
17
100
AcDbDictionary
0
ENDSEC
0
EOF
